<svg width="35" height="34" viewBox="0 0 35 34" fill="none" xmlns="http://www.w3.org/2000/svg">
<path fill-rule="evenodd" clip-rule="evenodd" d="M7.90332 0C4.03733 0 0.90332 3.13401 0.90332 7V27C0.90332 30.866 4.03732 34 7.90332 34H27.1322C30.9982 34 34.1322 30.866 34.1322 27V7C34.1322 3.13401 30.9982 0 27.1322 0H7.90332ZM2.90332 7C2.90332 4.23858 5.1419 2 7.90332 2H27.1322C29.8937 2 32.1322 4.23858 32.1322 7V27C32.1322 29.7614 29.8937 32 27.1322 32H7.90332C5.14189 32 2.90332 29.7614 2.90332 27V7ZM21.0369 26.7397C20.7498 26.7339 20.4603 26.7281 20.1692 26.7422L20.1582 26.731V25.8704C20.1527 25.3529 19.7959 24.9704 19.3128 24.9704C18.8133 24.9704 18.4455 25.3472 18.4455 25.876V27.5747C18.4455 28.1204 18.8023 28.4804 19.3348 28.4804H21.9039C24.2973 28.4747 26.4052 26.7254 26.8883 24.3291C26.9322 24.121 27.0146 24.0591 27.1957 24.0366C29.0182 23.806 30.429 22.1804 30.4345 20.3072C30.44 19.3116 30.4455 18.316 30.4345 17.3204C30.429 17.0785 30.407 16.8254 30.3521 16.5891C29.9953 14.9747 28.7931 13.8554 27.1737 13.6135C27.031 13.5966 26.9706 13.546 26.9487 13.3829C26.8993 12.9947 26.8444 12.601 26.7346 12.2297C25.6861 8.64662 23.3805 6.45287 19.7794 5.79474C18.9982 5.65453 18.1885 5.66343 17.3818 5.6723C17.1853 5.67446 16.9889 5.67662 16.7932 5.67662C16.2113 5.68224 15.613 5.73287 15.042 5.84537C11.4684 6.55974 8.65232 9.66474 8.23512 13.3266C8.21316 13.5066 8.18571 13.5966 7.98809 13.6247C6.12717 13.8666 4.74382 15.481 4.74382 17.3991C4.74382 17.6185 4.7426 17.8379 4.74138 18.0572C4.73894 18.496 4.7365 18.9347 4.74382 19.3735C4.74502 19.4884 4.74491 19.6039 4.74481 19.7195C4.74444 20.1359 4.74406 20.5547 4.80421 20.9597C5.05123 22.681 6.65965 24.0872 8.35589 24.0985C8.88633 24.1022 9.41434 24.101 9.94316 24.0997C10.2079 24.0991 10.4728 24.0985 10.7383 24.0985C11.2269 24.0929 11.5947 23.7272 11.5947 23.2379V14.4347C11.5947 13.9397 11.2324 13.5741 10.7493 13.5685H9.94783C9.96678 13.4675 9.98376 13.3699 10.0004 13.2745C10.0319 13.0935 10.062 12.9204 10.1015 12.7472C10.7328 10.0585 12.9945 7.90974 15.6624 7.54412C16.5956 7.42037 17.5452 7.42037 18.4894 7.43724C20.4876 7.46537 22.1783 8.24162 23.5287 9.76037C24.4839 10.8347 25.0383 12.106 25.2305 13.5741H24.44C23.9514 13.5854 23.5891 13.9454 23.5891 14.4404V23.2435C23.5891 23.7329 23.9569 24.0985 24.44 24.1041H25.1262C25.1287 24.1143 25.1309 24.123 25.1328 24.1306C25.1394 24.1567 25.1426 24.1698 25.1426 24.1829C25.1372 24.2279 25.1262 24.2672 25.1097 24.3122C24.7309 25.4429 23.9899 26.2022 22.881 26.5679C22.282 26.7647 21.665 26.7523 21.0369 26.7397ZM9.39921 15.3292C9.55828 15.3319 9.71903 15.3347 9.88196 15.3347V15.3404V22.3885C9.67549 22.3757 9.46844 22.3706 9.26213 22.3656C8.83214 22.355 8.40534 22.3446 7.99358 22.2647C7.09331 22.0847 6.48398 21.2522 6.46751 20.296C6.45105 19.3229 6.44556 18.3554 6.46751 17.3879C6.48947 16.2741 7.29642 15.4191 8.38333 15.3404C8.71763 15.3173 9.0545 15.3232 9.39921 15.3292ZM25.3238 22.3435V15.3741C25.5047 15.3741 25.684 15.3679 25.8617 15.3617C26.245 15.3485 26.6213 15.3354 26.9926 15.3854C28.0136 15.5204 28.7053 16.3472 28.7273 17.3935C28.7492 18.361 28.7492 19.3285 28.7273 20.296C28.6998 21.421 27.8819 22.276 26.784 22.3435C26.467 22.3584 26.1476 22.3535 25.8225 22.3486C25.6579 22.346 25.4918 22.3435 25.3238 22.3435Z" fill="#12B1BB"/>
</svg>
