<svg width="33" height="43" viewBox="0 0 33 43" fill="none" xmlns="http://www.w3.org/2000/svg">
<g clip-path="url(#clip0_2466_1391)">
<path d="M27.7025 11.1425C27.6652 12.029 27.2332 12.7441 26.7266 13.4369C23.9704 17.2063 21.2141 20.9831 18.4653 24.7525C16.2752 27.762 14.0851 30.7715 11.8875 33.781C11.7013 34.0343 11.5151 34.295 11.2991 34.526C10.0997 35.8519 8.20758 36.0531 6.82946 35.0176C5.36939 33.9226 4.98202 32.0677 6.00258 30.5406C7.07528 28.939 8.25228 27.397 9.39202 25.8401C13.3253 20.4467 17.2585 15.0609 21.1918 9.67502C21.4376 9.33236 21.6834 8.98224 21.9739 8.68427C22.9572 7.68606 24.3875 7.41788 25.6613 7.96913C26.9128 8.51293 27.7695 9.85381 27.695 11.15L27.7025 11.1425Z" fill="#12B1BB"/>
<path d="M7.02344 13.1168C7.24692 12.5358 7.36611 11.8877 7.70878 11.396C9.02731 9.49647 10.3905 7.61924 11.8059 5.7867C12.5881 4.76614 13.7055 4.33408 14.9868 4.59481C16.3351 4.87044 17.2439 5.69731 17.6164 7.03819C17.8846 7.99915 17.7281 8.93032 17.1471 9.74229C15.8211 11.5972 14.4951 13.4521 13.1095 15.2697C12.1933 16.469 10.696 16.8415 9.32528 16.3424C8.00675 15.8582 7.13518 14.5769 7.02344 13.1168Z" fill="#12B1BB"/>
<path d="M26.1007 30.2204C25.8623 30.8238 25.7356 31.5091 25.3706 32.0306C24.0968 33.878 22.7634 35.6882 21.4076 37.4761C20.5733 38.5786 19.4186 39.0106 18.0554 38.7275C16.7369 38.4445 15.9174 37.5952 15.5077 36.3289C15.2172 35.4275 15.3513 34.5634 15.8802 33.8184C17.2732 31.8444 18.6662 29.8628 20.1561 27.9558C21.0649 26.7937 22.5399 26.5181 23.8808 27.047C25.1695 27.561 25.9591 28.7529 26.0932 30.2279L26.1007 30.2204Z" fill="#12B1BB"/>
<path d="M4.35598 1.43638C6.24066 1.41403 7.74543 2.8443 7.76033 4.68428C7.77522 6.52427 6.30026 8.11842 4.47517 8.09608C2.61284 8.08118 1.13043 6.7552 1.06338 4.80347C1.00379 3.10503 2.38191 1.40658 4.34854 1.42893L4.35598 1.43638Z" fill="#12B1BB"/>
<path d="M25.4082 38.5932C25.4082 36.7309 26.8906 35.2484 28.7381 35.2559C30.5706 35.2633 32.0604 36.7681 32.0604 38.6155C32.0604 40.4481 30.5557 41.9528 28.7157 41.9454C26.8683 41.9454 25.4082 40.463 25.4082 38.5932Z" fill="#12B1BB"/>
</g>
<defs>
<clipPath id="clip0_2466_1391">
<rect width="31.7838" height="42" fill="white" transform="translate(0.608398 0.5)"/>
</clipPath>
</defs>
</svg>
