<svg width="32" height="32" viewBox="0 0 32 32" fill="none" xmlns="http://www.w3.org/2000/svg">
<rect x="1" y="1" width="30" height="30" rx="7" stroke="#12B1BB" stroke-width="2"/>
<path d="M5 6H5.801C6.65226 6 7.42008 6.5302 7.74773 7.34426L12.0579 18.0531M12.0579 18.0531L23.3799 17.2208C24.1721 17.1626 24.8655 16.6482 25.1741 15.89L26.8321 11.816C27.4183 10.3754 26.3975 8.78148 24.8885 8.78148H8.66205M12.0579 18.0531C11.77 18.2594 11.7384 18.9251 11.792 19.6003C11.8719 20.6067 12.7415 21.2981 13.7161 21.2981H24.6711M13.2704 24.9073C13.2704 25.5108 12.7982 26 12.2158 26C11.6333 26 11.1612 25.5108 11.1612 24.9073C11.1612 24.3038 11.6333 23.8146 12.2158 23.8146C12.7982 23.8146 13.2704 24.3038 13.2704 24.9073ZM24.8712 24.9073C24.8712 25.5108 24.399 26 23.8166 26C23.2341 26 22.762 25.5108 22.762 24.9073C22.762 24.3038 23.2341 23.8146 23.8166 23.8146C24.399 23.8146 24.8712 24.3038 24.8712 24.9073Z" stroke="#12B1BB" stroke-width="2" stroke-linecap="round"/>
</svg>
