<svg width="36" height="36" viewBox="0 0 36 36" fill="none" xmlns="http://www.w3.org/2000/svg">
<path d="M5.79999 7.72H6.6039C7.45826 7.72 8.22887 8.25444 8.55771 9.07501L12.8836 19.8695M12.8836 19.8695L24.2467 19.0306C25.0418 18.9719 25.7378 18.4534 26.0475 17.6891L27.7114 13.5826C28.2999 12.1304 27.2753 10.5237 25.7609 10.5237H9.47536M12.8836 19.8695C12.5946 20.0775 12.5629 20.7485 12.6167 21.4291C12.6969 22.4435 13.5696 23.1405 14.5478 23.1405H25.5427M9 34.6694H26.6694C31.0877 34.6694 34.6694 31.0877 34.6694 26.6694V9C34.6694 4.58172 31.0877 1 26.6694 1H9C4.58172 1 1 4.58172 1 9V26.6694C1 31.0877 4.58172 34.6694 9 34.6694ZM14.1005 26.7785C14.1005 27.3869 13.6266 27.88 13.042 27.88C12.4575 27.88 11.9836 27.3869 11.9836 26.7785C11.9836 26.1702 12.4575 25.6771 13.042 25.6771C13.6266 25.6771 14.1005 26.1702 14.1005 26.7785ZM25.7434 26.7785C25.7434 27.3869 25.2696 27.88 24.685 27.88C24.1004 27.88 23.6265 27.3869 23.6265 26.7785C23.6265 26.1702 24.1004 25.6771 24.685 25.6771C25.2696 25.6771 25.7434 26.1702 25.7434 26.7785Z" stroke="#12B1BB" stroke-width="2" stroke-linecap="round"/>
</svg>
