<svg width="31" height="32" viewBox="0 0 31 32" fill="none" xmlns="http://www.w3.org/2000/svg">
<path d="M25.4069 0.0124118C25.8663 0.13653 26.3444 0.211 26.779 0.390971C28.7907 1.20394 30.0014 2.68715 30.3429 4.8406C30.8023 7.74496 28.8466 10.6059 25.8105 11.1644C23.8982 11.5119 22.2342 10.9596 20.8372 9.60673C20.7317 9.50744 20.6385 9.39573 20.533 9.27782C20.4088 9.34609 20.3033 9.40194 20.1977 9.464C17.3106 11.2016 14.4235 12.9393 11.5365 14.6707C11.3129 14.8073 11.2695 14.9128 11.3564 15.1548C11.7103 16.1353 11.7724 17.1407 11.5054 18.1585C11.4744 18.2702 11.462 18.3819 11.4309 18.506C11.611 18.5991 11.7848 18.6922 11.9587 18.7791C14.6346 20.1444 17.3044 21.5096 19.9742 22.8874C20.1977 23.0053 20.3095 22.9991 20.4833 22.7943C21.7313 21.3173 23.3332 20.6408 25.2579 20.7587C27.7911 20.9201 30.0014 23.0425 30.3553 25.5497C30.7775 28.5161 28.8031 31.2964 25.8663 31.8921C22.7744 32.5251 19.6265 30.2972 19.2167 27.1818C19.1174 26.4247 19.1546 25.6862 19.3657 24.9601C19.4216 24.7677 19.372 24.6933 19.2043 24.6064C16.4104 23.179 13.6164 21.7517 10.8287 20.3119C10.661 20.225 10.5679 20.2312 10.4437 20.3926C9.20195 21.9379 7.57525 22.6826 5.60085 22.5398C2.89382 22.3474 0.844914 20.2623 0.472386 17.7551C0.068815 15.0121 1.73277 12.418 4.23491 11.6112C6.38316 10.9224 8.28926 11.3878 9.9408 12.9207C10.0215 13.0014 10.1022 13.082 10.1829 13.1627C10.1954 13.1751 10.2202 13.1875 10.2699 13.2124C13.3432 11.363 16.429 9.50744 19.5396 7.63946C19.2602 6.88234 19.1422 6.11902 19.1609 5.31846C19.2292 2.78645 21.3836 0.390971 23.892 0.0682647C23.9851 0.0558529 24.072 0.0248236 24.1589 0C24.5749 0 24.9909 0 25.4069 0V0.0124118Z" fill="#12B1BB"/>
</svg>
