<svg width="44" height="42" viewBox="0 0 44 42" fill="none" xmlns="http://www.w3.org/2000/svg">
<g clip-path="url(#clip0_2466_1380)">
<path d="M43.2326 28.178C42.8261 28.7248 42.4615 28.872 42.0409 28.6337C41.7325 28.4584 41.5082 28.178 41.6063 27.8275C41.6764 27.5682 41.8797 27.2808 42.104 27.1546C42.4125 26.9793 42.77 27.0634 43.0364 27.3509C43.1065 27.428 43.1695 27.5121 43.2396 27.5962V28.171L43.2326 28.178Z" fill="#12B1BB" stroke="#12B1BB" stroke-width="0.5" stroke-miterlimit="10"/>
<path d="M17.4785 25.532H16.932C12.6717 25.532 8.41147 25.532 4.15823 25.532C2.25233 25.532 1.01209 24.2918 1.01209 22.3929C1.01209 16.2407 1.03311 10.0816 0.998074 3.92944C0.991067 2.24076 2.3294 0.769288 4.12319 0.783302C10.4295 0.832351 16.7358 0.832351 23.0421 0.783302C24.8569 0.769288 26.1882 2.24776 26.1672 3.92944C26.1251 7.63614 26.1532 11.3498 26.1532 15.0565C26.1532 15.2037 26.1532 15.3578 26.1532 15.526C26.7698 15.3859 27.3584 15.2317 27.954 15.1196C34.2182 13.9915 40.4965 17.544 42.5986 23.8994C42.7808 24.4599 42.5846 24.9084 42.1011 25.0765C41.6386 25.2307 41.2042 24.9784 41.008 24.4109C40.2442 22.2177 39.039 20.3398 37.1822 18.9174C34.8068 17.1026 32.1021 16.3809 29.1381 16.6962C25.6276 17.0746 22.7548 18.6371 20.8209 21.6151C17.2122 27.1646 18.7188 34.9774 25.5926 38.1376C32.2002 41.1786 38.99 37.4439 40.994 31.4179C41.1271 31.0115 41.3373 30.6891 41.7998 30.6471C42.4164 30.591 42.8228 31.1796 42.6196 31.8383C42.2132 33.1486 41.6106 34.3608 40.7908 35.4539C38.6046 38.3828 35.7247 40.2467 32.0951 40.7372C27.5686 41.3468 23.7007 39.9173 20.6106 36.526C18.8028 34.543 17.7378 32.2026 17.3594 29.547C17.1702 28.2157 17.2193 26.8914 17.4785 25.525V25.532ZM9.39946 2.47199C9.23829 2.46498 9.11217 2.45097 8.99305 2.45097C7.37444 2.45097 5.74881 2.45097 4.1302 2.45097C3.19827 2.45097 2.65873 2.9905 2.65873 3.93645C2.65873 10.0886 2.65873 16.2407 2.65873 22.3929C2.65873 23.3388 3.19827 23.8643 4.15122 23.8643C8.61467 23.8643 13.0781 23.8643 17.5416 23.8713C17.8289 23.8713 17.934 23.7732 18.0321 23.514C19.1882 20.3678 21.2413 17.9925 24.1982 16.4089C24.4154 16.2898 24.5135 16.1707 24.5135 15.9114C24.5065 11.9174 24.5135 7.91642 24.5065 3.92243C24.5065 2.97649 23.96 2.44396 23.021 2.44396C21.4024 2.44396 19.7768 2.44396 18.1582 2.44396C18.0391 2.44396 17.92 2.45797 17.7588 2.46498C17.7588 2.63315 17.7588 2.7873 17.7588 2.93445C17.7588 4.40592 17.7588 5.87038 17.7588 7.34185C17.7588 8.06357 17.4505 8.36487 16.7288 8.36487C14.6267 8.36487 12.5246 8.36487 10.4225 8.36487C9.70776 8.36487 9.39946 8.06357 9.39946 7.33484C9.39946 5.86337 9.39946 4.39891 9.39946 2.92744C9.39946 2.78029 9.39946 2.63315 9.39946 2.46498V2.47199ZM16.0841 2.47899H11.0881V6.65516H16.0841V2.47899Z" fill="#12B1BB" stroke="#12B1BB" stroke-width="0.5" stroke-miterlimit="10"/>
<path d="M30.2575 37.2562C25.3926 37.2562 20.9272 33.8844 20.8571 27.7998C20.794 22.6895 25.1402 18.4766 30.2715 18.4766C35.4028 18.4766 39.7489 22.7176 39.6718 27.8068C39.5807 33.8564 35.1434 37.2702 30.2575 37.2562ZM30.2504 35.6579C34.4774 35.672 38.0455 32.202 37.9964 27.982C37.9404 23.3345 34.6807 20.2641 30.2925 20.201C25.9043 20.1309 22.5255 23.5377 22.5255 27.968C22.5255 32.181 26.0024 35.6439 30.2504 35.6579Z" fill="#12B1BB" stroke="#12B1BB" stroke-width="0.5" stroke-miterlimit="10"/>
<path d="M6.90032 30.6952C6.90032 30.9405 6.90032 31.0807 6.90032 31.2279C6.90032 32.3565 6.90032 33.4851 6.90032 34.6067C6.90032 35.5881 7.33493 36.0087 8.31633 36.0087C10.7628 36.0087 13.2093 36.0087 15.6557 36.0087C16.1955 36.0087 16.518 36.2541 16.5881 36.6887C16.6792 37.2355 16.3007 37.6561 15.6908 37.6561C14.2608 37.6561 12.8307 37.6561 11.4007 37.6561C10.2861 37.6561 9.17154 37.6561 8.06397 37.6561C6.47972 37.6561 5.23896 36.4293 5.22494 34.8451C5.21092 33.4992 5.22494 32.1533 5.22494 30.6952C5.03567 30.8775 4.90949 31.0036 4.77631 31.1298C4.39777 31.4873 3.89305 31.5013 3.55658 31.1789C3.2201 30.8494 3.2201 30.3447 3.58462 29.9662C4.19448 29.3353 4.81837 28.7114 5.44926 28.1015C5.8278 27.737 6.28344 27.737 6.66198 28.1015C7.30689 28.7254 7.93779 29.3563 8.55466 29.9942C8.91217 30.3657 8.89815 30.8424 8.56868 31.1719C8.25324 31.4873 7.74151 31.4803 7.384 31.1578C7.2438 31.0317 7.11062 30.8985 6.89331 30.6952H6.90032Z" fill="#12B1BB" stroke="#12B1BB" stroke-width="0.5" stroke-miterlimit="10"/>
<path d="M39.0618 11.0042C39.2861 10.7939 39.4263 10.6467 39.5735 10.5135C39.931 10.198 40.4007 10.198 40.7232 10.5065C41.0526 10.8219 41.0947 11.2986 40.7652 11.6491C40.1203 12.3291 39.4614 12.988 38.7884 13.6329C38.473 13.9414 37.9823 13.9414 37.6668 13.6329C37.0009 12.995 36.349 12.3431 35.7111 11.6842C35.3816 11.3407 35.3956 10.85 35.704 10.5345C36.0195 10.2051 36.5172 10.191 36.8887 10.5205C37.0289 10.6467 37.1411 10.8079 37.3514 11.0462C37.3724 10.8079 37.3864 10.6958 37.3864 10.5836C37.3864 9.3919 37.3864 8.1932 37.3864 7.00151C37.3864 6.15331 36.9518 5.70467 36.1036 5.69065C34.9259 5.67663 33.7413 5.69065 32.5636 5.69065C31.7645 5.69065 30.9723 5.69065 30.1732 5.69065C29.5353 5.69065 29.1778 5.37521 29.1918 4.84245C29.2058 4.33072 29.5563 4.0293 30.1732 4.0293C32.1921 4.0293 34.2109 4.0293 36.2298 4.0293C37.779 4.0293 38.9847 5.1579 39.0478 6.72112C39.0969 7.96889 39.0618 9.21665 39.0688 10.4714C39.0688 10.6186 39.0688 10.7659 39.0688 11.0112L39.0618 11.0042Z" fill="#12B1BB" stroke="#12B1BB" stroke-width="0.5" stroke-miterlimit="10"/>
<path d="M7.33473 20.0119C7.83243 20.0119 8.32313 20.0049 8.82083 20.0119C9.33957 20.0259 9.66203 20.3414 9.66904 20.8251C9.66904 21.3228 9.33256 21.6522 8.7998 21.6592C7.79738 21.6662 6.79496 21.6662 5.79254 21.6592C5.28081 21.6592 4.95135 21.3228 4.94434 20.8461C4.94434 20.3694 5.26679 20.0399 5.77151 20.0119C5.79955 20.0119 5.82759 20.0119 5.85563 20.0119C6.35333 20.0119 6.84403 20.0119 7.34174 20.0119H7.33473Z" fill="#12B1BB" stroke="#12B1BB" stroke-width="0.5" stroke-miterlimit="10"/>
<path d="M31.1966 32.8326C31.1335 33.9752 30.9162 34.3467 30.3414 34.3537C29.7946 34.3678 29.5773 34.0313 29.4582 33.0148C28.8763 32.7625 28.3155 32.5522 27.7968 32.2718C27.3061 32.0054 27.1799 31.5007 27.4393 31.0871C27.6987 30.6735 28.1964 30.5543 28.659 30.8628C29.2619 31.2694 29.9138 31.3044 30.5938 31.2343C31.1756 31.1782 31.6803 30.6244 31.7714 30.0146C31.8556 29.4187 31.5962 29.0122 30.9583 28.7458C30.3484 28.4934 29.7245 28.2901 29.1287 28.0167C28.1333 27.5471 27.5935 26.7199 27.5935 25.6263C27.5935 24.5048 28.1473 23.6636 29.1707 23.1729C29.4301 23.0467 29.4932 22.9065 29.4932 22.6471C29.4862 21.862 29.7666 21.4695 30.3134 21.4554C30.8601 21.4414 31.1756 21.841 31.1686 22.6121C31.1686 22.8574 31.2527 22.9486 31.47 23.0537C31.8485 23.236 32.2201 23.4533 32.5425 23.7267C32.9351 24.0631 32.9491 24.5468 32.6477 24.8973C32.3182 25.2829 31.8766 25.3179 31.449 24.9534C31.0074 24.5819 30.5307 24.4136 29.9699 24.6379C29.5563 24.8062 29.3109 25.1146 29.2759 25.5773C29.2408 26.0329 29.4582 26.3554 29.8577 26.5236C30.3554 26.7409 30.8742 26.9302 31.3859 27.1195C32.6337 27.5681 33.3767 28.4654 33.4188 29.594C33.4678 31.024 32.7809 32.1666 31.5471 32.6924C31.435 32.7414 31.3228 32.7835 31.1966 32.8326Z" fill="#12B1BB" stroke="#12B1BB" stroke-width="0.5" stroke-miterlimit="10"/>
</g>
<defs>
<clipPath id="clip0_2466_1380">
<rect width="42.9545" height="42" fill="white" transform="translate(0.522461)"/>
</clipPath>
</defs>
</svg>
