<svg width="35" height="34" viewBox="0 0 35 34" fill="none" xmlns="http://www.w3.org/2000/svg">
<path fill-rule="evenodd" clip-rule="evenodd" d="M7.93994 0C4.07395 0 0.939941 3.13401 0.939941 7V27C0.939941 30.866 4.07394 34 7.93994 34H27.1689C31.0348 34 34.1689 30.866 34.1689 27V7C34.1689 3.13401 31.0349 0 27.1689 0H7.93994ZM2.93994 7C2.93994 4.23858 5.17852 2 7.93994 2H27.1689C29.9303 2 32.1689 4.23858 32.1689 7V27C32.1689 29.7614 29.9303 32 27.1689 32H7.93994C5.17851 32 2.93994 29.7614 2.93994 27V7ZM9.86354 8.87001H10.1873H12.7659C13.1822 8.87001 13.5233 9.1603 13.5811 9.53353C13.6447 9.94231 13.4597 10.3037 13.0897 10.4459C12.9798 10.4873 12.8584 10.4992 12.737 10.5051H8.12328C7.56825 10.5051 7.24448 10.1734 7.24448 9.60462V4.87701C7.24448 4.42676 7.52778 4.08315 7.93249 4.01205C8.29673 3.95281 8.67253 4.18978 8.79973 4.56302C8.83442 4.66965 8.8402 4.78814 8.8402 4.9007V7.25266V7.56665C8.90776 7.50709 8.97232 7.44971 9.03483 7.39416L9.03493 7.39408C9.20241 7.24524 9.3551 7.10955 9.51086 6.98014C11.361 5.4102 13.477 4.45045 15.8533 4.11869C22.4211 3.20634 28.6305 7.64367 29.9487 14.3322C30.9085 19.2139 29.492 23.3965 25.9016 26.7556C24.0226 28.5151 21.7736 29.5755 19.2413 29.8718C14.4946 30.4286 10.5862 28.7758 7.56825 24.9842C6.12864 23.1713 5.30187 21.0623 4.98389 18.7518C4.90873 18.189 4.8856 17.6143 4.86826 17.0397C4.85091 16.5479 5.20937 16.1866 5.66033 16.1806C6.11129 16.1806 6.44663 16.5361 6.45819 17.0278C6.53335 20.535 7.85155 23.4439 10.459 25.7129C12.1068 27.1466 14.0263 27.9997 16.1828 28.2544C19.4667 28.6454 22.3749 27.7272 24.8609 25.5055C26.8556 23.7282 28.0928 21.477 28.4744 18.7873C29.0699 14.587 27.7633 11.0679 24.6412 8.28942C22.9935 6.82019 21.0509 5.97893 18.877 5.72419C15.541 5.3391 12.6213 6.31069 10.1121 8.58564C10.0543 8.63896 9.99651 8.69228 9.94448 8.75152C9.93313 8.76315 9.92177 8.77732 9.89907 8.80566L9.89907 8.80567L9.89895 8.80581C9.88699 8.82074 9.87188 8.8396 9.85197 8.86408L9.86354 8.87001ZM24.6932 17.4248V20.9143C24.6932 21.4712 24.5429 21.6904 24.0341 21.8859C23.0253 22.2739 22.0149 22.6619 21.0046 23.05C19.9943 23.438 18.9839 23.8261 17.975 24.2141C17.6975 24.3208 17.4316 24.3267 17.1483 24.2141L11.0603 21.8681C10.5862 21.6844 10.4243 21.4593 10.4243 20.938V13.8584C10.4243 13.3548 10.5862 13.1179 11.0487 12.946C12.0634 12.5551 13.078 12.1655 14.0926 11.776C15.1073 11.3865 16.122 10.997 17.1367 10.6059C17.4258 10.4934 17.6918 10.4934 17.9808 10.6059C18.9923 10.9968 20.0067 11.3862 21.0211 11.7757L21.0219 11.776L21.0228 11.7763C22.0372 12.1657 23.0516 12.5551 24.063 12.946C24.5314 13.1238 24.6875 13.3607 24.6875 13.888V17.4308L24.6932 17.4248ZM16.732 22.2946C16.7353 22.2727 16.7386 22.2532 16.7416 22.2353C16.7492 22.1902 16.7551 22.1551 16.7551 22.1169V16.939C16.7551 16.7672 16.6742 16.7198 16.5412 16.6665C16.0584 16.4829 15.5771 16.2977 15.0958 16.1126C14.6145 15.9275 14.1332 15.7423 13.6504 15.5587C13.4069 15.4637 13.1622 15.37 12.9162 15.2759C12.625 15.1644 12.332 15.0522 12.0374 14.9366C12.0346 14.968 12.0305 14.9926 12.0269 15.0135L12.0269 15.0136C12.0231 15.0361 12.02 15.0545 12.02 15.0729V20.3041C12.02 20.4818 12.1125 20.5233 12.2397 20.5707C12.6965 20.7454 13.1532 20.9217 13.61 21.0979C14.0667 21.2742 14.5234 21.4504 14.9802 21.6252C15.2303 21.72 15.4793 21.8148 15.7295 21.9101L15.7305 21.9105L15.7321 21.9111C16.0596 22.0358 16.3892 22.1613 16.7262 22.2887L16.732 22.2946ZM18.4589 22.2708L18.459 22.2708C18.4873 22.2627 18.5087 22.2566 18.5301 22.2472L19.1292 22.0166C20.391 21.5309 21.6496 21.0464 22.9125 20.5707C23.086 20.5055 23.0975 20.4048 23.0975 20.2507V15.2032C23.0975 15.1387 23.0935 15.0742 23.0888 14.9993L23.0888 14.9992L23.086 14.9544C23.0645 14.9613 23.0442 14.9678 23.0249 14.9741C23.0052 14.9806 22.9864 14.9868 22.9681 14.9928L22.968 14.9928C22.9271 15.0063 22.8888 15.0188 22.8489 15.0314C22.4308 15.1912 22.0126 15.3515 21.5944 15.5119C20.6014 15.8926 19.6077 16.2736 18.611 16.6488C18.4202 16.7198 18.3566 16.8146 18.3566 17.0279C18.3643 18.1301 18.3618 19.2348 18.3592 20.3387V20.3394C18.3579 20.8908 18.3566 21.442 18.3566 21.9925V22.2946L18.3624 22.3006C18.4032 22.2866 18.4338 22.2779 18.4589 22.2708ZM20.0688 13.153C20.5789 13.3492 21.0949 13.5477 21.6213 13.7488C21.2383 13.8963 20.8693 14.0373 20.5077 14.1755C20.1024 14.3303 19.7065 14.4816 19.3106 14.6345L19.0907 14.7203C18.6334 14.8988 18.1792 15.0762 17.7207 15.2447C17.6339 15.2743 17.5183 15.2802 17.4316 15.2506C16.482 14.8951 15.5323 14.5297 14.5827 14.1642C14.2662 14.0424 13.9496 13.9206 13.6331 13.7991C13.6241 13.7946 13.616 13.7891 13.6061 13.7824L13.6061 13.7824C13.5904 13.7717 13.5702 13.758 13.5348 13.7399C13.7633 13.6538 13.982 13.5678 14.1977 13.4828L14.1978 13.4828C14.3533 13.4216 14.5072 13.361 14.6622 13.3015C15.0094 13.1692 15.3574 13.0361 15.7059 12.9028L15.7069 12.9024L15.7079 12.902C16.2642 12.6892 16.8219 12.4758 17.3795 12.2647C17.4721 12.2292 17.5877 12.2055 17.6686 12.2351C18.4651 12.5362 19.2594 12.8417 20.0688 13.153L20.0688 13.153Z" fill="#12B1BB"/>
</svg>
