<svg width="32" height="31" viewBox="0 0 32 31" fill="none" xmlns="http://www.w3.org/2000/svg">
<path d="M16.3764 0.280273C7.8622 0.280273 0.959961 7.18251 0.959961 15.6967C0.959961 22.9264 5.93762 28.9931 12.6524 30.6593V20.408H9.47353V15.6967H12.6524V13.6667C12.6524 8.41953 15.0271 5.98743 20.1787 5.98743C21.1555 5.98743 22.8408 6.17921 23.5302 6.37038V10.6407C23.1664 10.6025 22.5343 10.5834 21.7493 10.5834C19.2216 10.5834 18.2449 11.541 18.2449 14.0305V15.6967H23.2805L22.4153 20.408H18.2449V31.0003C25.8784 30.0784 31.7934 23.5788 31.7934 15.6967C31.7928 7.18251 24.8906 0.280273 16.3764 0.280273Z" fill="white"/>
</svg>
