<svg width="35" height="34" viewBox="0 0 35 34" fill="none" xmlns="http://www.w3.org/2000/svg">
<path fill-rule="evenodd" clip-rule="evenodd" d="M0.855469 7C0.855469 3.13401 3.98948 0 7.85547 0H27.0844C30.9504 0 34.0844 3.13401 34.0844 7V27C34.0844 30.866 30.9504 34 27.0844 34H7.85546C3.98947 34 0.855469 30.866 0.855469 27V7ZM7.85547 2C5.09405 2 2.85547 4.23858 2.85547 7V27C2.85547 29.7614 5.09404 32 7.85546 32H27.0844C29.8458 32 32.0844 29.7614 32.0844 27V7C32.0844 4.23858 29.8458 2 27.0844 2H7.85547ZM7.15432 13.2219V8.675C7.15432 8.47812 7.20922 8.38906 7.3922 8.32344C9.04594 7.7117 10.6985 7.09645 12.3511 6.4812C14.0036 5.86598 15.6562 5.25077 17.3098 4.63906C17.4471 4.5875 17.6346 4.57344 17.7673 4.625C19.421 5.23673 21.0724 5.85197 22.7239 6.46721L22.7252 6.46772C24.3761 7.08277 26.0271 7.69783 27.6803 8.30938C27.8816 8.38438 27.9502 8.46875 27.9502 8.69375C27.9434 10.7818 27.9442 12.8672 27.9451 14.954C27.9454 15.6499 27.9456 16.3459 27.9456 17.0422C27.9456 20.8391 26.4452 23.9 23.609 26.3C21.8935 27.7531 19.9493 28.775 17.813 29.4125C17.6666 29.4547 17.4837 29.4781 17.3418 29.4313C14.254 28.4656 11.5642 26.8625 9.52394 24.2469C8.26136 22.625 7.47454 20.7688 7.27326 18.7016C7.18752 17.809 7.17892 16.9058 7.17034 16.0059C7.16748 15.7055 7.16462 15.4054 7.1589 15.1062C7.14975 14.6875 7.1528 14.2688 7.15585 13.85C7.15737 13.6406 7.1589 13.4313 7.1589 13.2219H7.15432ZM8.89646 9.73865L8.89645 9.73867C8.89445 9.75589 8.89265 9.77138 8.89265 9.78594C8.89265 10.5218 8.89067 11.2581 8.88869 11.9945V11.995V11.9953C8.88394 13.7637 8.87919 15.533 8.9018 17.3C8.93382 19.4375 9.56968 21.3828 10.8551 23.0797C12.5614 25.3344 14.8441 26.7125 17.4471 27.5938C17.5385 27.6266 17.6621 27.5938 17.7581 27.5656C19.7389 26.9188 21.5367 25.925 23.0646 24.4672C24.8624 22.7516 26.0106 20.6469 26.1341 18.125C26.229 16.1875 26.2211 14.2456 26.2133 12.3038V12.3038V12.3037C26.2097 11.4362 26.2062 10.5686 26.2119 9.70156C26.2119 9.69219 26.2073 9.68281 26.1982 9.66406C26.1677 9.65193 26.136 9.6385 26.1035 9.62475L26.1035 9.62474C26.0481 9.60132 25.9905 9.57692 25.9328 9.55625L24.2098 8.91433L24.2093 8.91414C22.0542 8.11117 19.9007 7.30881 17.7444 6.50938C17.63 6.46719 17.4791 6.47188 17.3647 6.51406C15.7224 7.11875 14.0848 7.72813 12.4471 8.34219C11.2668 8.78281 10.0866 9.22344 8.90637 9.65938L8.9018 9.66406C8.9018 9.69274 8.89897 9.71706 8.89646 9.73865ZM15.8368 21.7625L23.2888 14.1266L23.2933 14.1219C23.0989 13.925 22.9011 13.7223 22.6958 13.5119C22.4905 13.3016 22.2778 13.0836 22.0536 12.8562L15.7773 19.2875L13.0143 16.4422C12.8121 16.6471 12.6131 16.8498 12.4195 17.0471C12.2145 17.256 12.0155 17.4587 11.8249 17.6516L15.8368 21.7625Z" fill="#12B1BB"/>
</svg>
