<svg width="14" height="15" viewBox="0 0 14 15" fill="none" xmlns="http://www.w3.org/2000/svg">
<path fill-rule="evenodd" clip-rule="evenodd" d="M7 14.5C10.866 14.5 14 11.366 14 7.5C14 3.63401 10.866 0.5 7 0.5C3.13401 0.5 0 3.63401 0 7.5C0 11.366 3.13401 14.5 7 14.5ZM8.16634 3.99967C8.16634 4.644 7.64403 5.16634 6.99967 5.16634C6.35532 5.16634 5.83301 4.644 5.83301 3.99967C5.83301 3.35535 6.35532 2.83301 6.99967 2.83301C7.64403 2.83301 8.16634 3.35535 8.16634 3.99967ZM5.83301 12.1663V7.49967C5.83301 6.85535 6.35532 6.33301 6.99967 6.33301C7.64403 6.33301 8.16634 6.85535 8.16634 7.49967V12.1663C8.16634 12.8107 7.64403 13.333 6.99967 13.333C6.35532 13.333 5.83301 12.8107 5.83301 12.1663Z" fill="#F4743B"/>
</svg>
