<svg width="32" height="31" viewBox="0 0 32 31" fill="none" xmlns="http://www.w3.org/2000/svg">
<path d="M15.7885 0.280273H15.7186C7.2548 0.280273 0.393555 7.14151 0.393555 15.6053V15.6752C0.393555 24.139 7.2548 31.0003 15.7186 31.0003H15.7885C24.2523 31.0003 31.1136 24.139 31.1136 15.6752V15.6053C31.1136 7.14151 24.2523 0.280273 15.7885 0.280273Z" fill="white"/>
<path d="M20.8684 5.40028H10.6388C7.81274 5.40028 5.51363 7.8015 5.51363 10.7531V20.5274C5.51363 23.479 7.81274 25.8803 10.6388 25.8803H20.8684C23.6945 25.8803 25.9936 23.479 25.9936 20.5274V10.7531C25.9936 7.8015 23.6945 5.40028 20.8684 5.40028ZM7.32164 10.7531C7.32164 8.84304 8.80998 7.28859 10.6388 7.28859H20.8684C22.6973 7.28859 24.1856 8.84304 24.1856 10.7531V20.5274C24.1856 22.4375 22.6973 23.9919 20.8684 23.9919H10.6388C8.80998 23.9919 7.32164 22.4375 7.32164 20.5274V10.7531Z" fill="#0065FF"/>
<path d="M15.7536 20.7603C18.5761 20.7603 20.8736 18.464 20.8736 15.6403C20.8736 12.8166 18.5773 10.5203 15.7536 10.5203C12.9299 10.5203 10.6336 12.8166 10.6336 15.6403C10.6336 18.464 12.9299 20.7603 15.7536 20.7603ZM15.7536 12.4633C17.5063 12.4633 18.9319 13.8888 18.9319 15.6415C18.9319 17.3942 17.5063 18.8197 15.7536 18.8197C14.0009 18.8197 12.5754 17.3942 12.5754 15.6415C12.5754 13.8888 14.0009 12.4633 15.7536 12.4633Z" fill="#0065FF"/>
<path d="M20.8736 11.8003C21.5788 11.8003 22.1536 11.2266 22.1536 10.5203C22.1536 9.81392 21.58 9.24028 20.8736 9.24028C20.1673 9.24028 19.5936 9.81392 19.5936 10.5203C19.5936 11.2266 20.1673 11.8003 20.8736 11.8003Z" fill="#0065FF"/>
</svg>
