<svg width="32" height="31" viewBox="0 0 32 31" fill="none" xmlns="http://www.w3.org/2000/svg">
<path d="M15.715 0H15.6451C7.18133 0 0.320068 6.86125 0.320068 15.325V15.395C0.320068 23.8588 7.18133 30.72 15.6451 30.72H15.715C24.1788 30.72 31.0401 23.8588 31.0401 15.395V15.325C31.0401 6.86125 24.1788 0 15.715 0Z" fill="white"/>
<path d="M7.64626 10.2106C7.24158 9.83496 7.04033 9.37002 7.04033 8.81681C7.04033 8.26361 7.24266 7.77821 7.64626 7.40152C8.05094 7.0259 8.57186 6.83755 9.21008 6.83755C9.84831 6.83755 10.3488 7.0259 10.7524 7.40152C11.1571 7.77713 11.3583 8.24962 11.3583 8.81681C11.3583 9.38401 11.156 9.83496 10.7524 10.2106C10.3477 10.5862 9.83432 10.7745 9.21008 10.7745C8.58585 10.7745 8.05094 10.5862 7.64626 10.2106ZM11.0182 12.3653V23.8814H7.37935V12.3653H11.0182Z" fill="#0065FF"/>
<path d="M23.1316 13.5029C23.9248 14.3639 24.3209 15.5457 24.3209 17.0503V23.6779H20.865V17.5174C20.865 16.7586 20.668 16.1688 20.2752 15.7491C19.8823 15.3293 19.3528 15.1184 18.6898 15.1184C18.0269 15.1184 17.4973 15.3282 17.1045 15.7491C16.7116 16.1688 16.5147 16.7586 16.5147 17.5174V23.6779H13.0383V12.333H16.5147V13.8376C16.8666 13.3361 17.3413 12.94 17.9375 12.6483C18.5338 12.3567 19.2043 12.2114 19.9501 12.2114C21.2783 12.2114 22.3395 12.6429 23.1316 13.5029Z" fill="#0065FF"/>
</svg>
