<svg width="90" height="91" viewBox="0 0 90 91" fill="none" xmlns="http://www.w3.org/2000/svg">
<path d="M0.0281273 68.5518C0.0281273 62.6047 0.0281273 56.6559 0.0281273 50.7088C0.0281273 50.195 0.0386628 49.6935 0.279222 49.2132C0.941198 47.89 1.96489 47.1898 3.47321 47.1933C9.7295 47.2038 15.9858 47.1986 22.2421 47.1986C27.573 47.1986 32.9039 47.1986 38.2349 47.1986C38.4263 47.1986 38.6194 47.2179 38.809 47.195C39.4991 47.1123 39.9398 47.371 40.2296 48.0308C40.514 48.6748 40.9741 49.2202 41.5395 49.6601C41.78 49.8466 41.8222 50.0806 41.6799 50.3375C41.4324 50.7844 41.1725 51.2243 40.9179 51.6677C40.7967 51.8771 40.6176 51.9914 40.3736 52.0037C40.2138 52.0125 40.0522 52.0125 39.8959 52.0407C39.1392 52.1709 38.6018 52.8501 38.644 53.6119C38.6931 54.4829 39.2621 55.0477 40.1154 55.0741C41.3042 55.1128 42.0873 54.138 41.6343 53.0401C41.3656 52.3891 41.4008 51.9034 41.8152 51.3809C42.0311 51.1082 42.1909 50.7897 42.4016 50.5099C42.5228 50.3481 42.802 50.4061 42.874 50.5926C42.9196 50.7105 42.953 50.8372 42.9618 50.9621C42.9776 51.2172 42.9758 51.4741 42.9758 51.7293C42.9758 63.2082 42.9723 74.6872 42.9846 86.1679C42.9846 86.9597 42.8564 87.6828 42.449 88.3655C42.0153 89.094 41.3674 89.555 40.586 89.7731C40.0101 89.935 39.392 89.9948 38.7915 90.0001C36.4614 90.0247 34.1313 90.0107 31.8012 90.0107C22.6091 90.0107 13.4151 90.0142 4.22298 90.0036C3.68568 90.0036 3.13608 89.9544 2.61458 89.833C1.02197 89.4582 0.0421746 88.216 0.033395 86.5867C0.0193478 83.8683 0.0298832 81.1516 0.0298832 78.4332C0.0298832 75.1394 0.0298832 71.8456 0.0298832 68.5518H0.0281273ZM26.0998 75.0426C27.3711 74.4866 28.2771 73.5382 28.9689 72.3594L28.9777 72.3506C29.1603 72.0163 29.3869 71.6996 29.515 71.3459C29.9997 70.0122 30.1981 68.6662 29.9523 67.2216C29.6081 65.2017 28.5668 63.6446 26.9725 62.4921C25.206 61.2165 23.1604 60.9226 21.0446 61.3537C17.5099 62.0716 14.711 65.4041 15.4608 69.9559C15.589 70.7371 15.7909 71.5219 16.3247 72.1588L16.3335 72.1694C16.7004 73.1688 17.466 73.8356 18.2685 74.4637C18.5617 74.6942 18.5828 74.6819 18.9076 74.3353C19.0586 74.1752 19.2131 74.0995 19.3975 74.2438C19.5713 74.381 19.6152 74.5992 19.4502 74.7382C19.171 74.9722 19.2693 75.0778 19.5292 75.1974C21.1095 75.9241 22.7478 76.086 24.4352 75.6866C25.0164 75.5494 25.6257 75.4631 26.1016 75.0408L26.0998 75.0426ZM22.2649 77.5358L22.2702 77.5393C22.1285 76.9458 21.7715 76.6297 21.1991 76.591C21.0446 76.5804 20.89 76.5822 20.7355 76.5787L20.7004 76.5417L20.7373 76.5769C20.5968 76.9347 20.3445 77.066 19.9805 76.971L19.9612 76.9534C20.0209 76.5276 19.8921 76.2397 19.5749 76.0895C19.5187 76.0631 19.459 76.0403 19.4028 76.0121C19.0586 75.8344 18.7443 75.6655 18.3861 76.0473C18.2263 76.218 17.8787 75.9857 17.9717 75.7587C18.207 75.1763 17.7803 75.0708 17.4379 74.8174C17.322 75.1341 17.2694 75.4174 17.1236 75.6426C16.9568 75.9048 16.7075 76.1124 16.4985 76.3482C16.4353 76.4185 16.3861 76.5012 16.3317 76.5769C16.2685 76.642 16.2053 76.7071 16.1421 76.7722C15.9507 76.8778 15.7365 76.9569 15.5714 77.0959C15.2606 77.3581 15.2624 77.5605 15.5854 77.7857C16.1087 78.1481 16.6302 78.5211 17.1903 78.8185C19.6714 80.1346 22.2948 80.5322 25.0515 79.9551C26.1472 79.7246 27.2183 79.3833 28.1964 78.8502C30.1963 77.7628 31.7924 76.2373 32.9022 74.2244C33.0725 73.9165 33.1445 73.6825 32.8372 73.3852C32.5879 73.1423 32.6967 72.8309 33.004 72.8468C33.5167 72.8749 33.6713 72.5899 33.7766 72.1922C33.8504 71.9142 33.9048 71.6309 34.0066 71.3635C34.1524 70.9835 34.0804 70.7635 33.6502 70.6879C33.58 70.6755 33.4851 70.4802 33.5009 70.3852C33.5167 70.2885 33.6432 70.1987 33.738 70.1266C33.7801 70.0931 33.8609 70.1055 33.9241 70.1019C34.2156 70.0896 34.2981 69.8908 34.3087 69.6497C34.3859 67.8867 34.3139 66.1448 33.5852 64.4962L33.5677 64.4733C33.4395 63.8733 33.1691 63.3437 32.8618 62.8141C32.6019 62.3637 32.393 61.9924 31.8012 62.3197C31.7591 62.3426 31.6151 62.2563 31.58 62.1877C31.5466 62.1226 31.5624 61.9854 31.6116 61.9326C31.731 61.8041 31.9926 61.7074 31.9944 61.5948C31.9979 61.4399 31.8346 61.2605 31.7082 61.125C31.2534 60.6394 30.7846 60.1661 30.321 59.6875C30.1928 59.6241 30.0646 59.5608 29.9347 59.4992C29.2745 58.7092 28.393 58.2816 27.4448 57.9614H27.4483C27.1691 57.8189 26.9005 57.6535 26.6108 57.5374C25.4203 57.057 24.1543 56.955 22.8953 56.8406C22.4967 56.8036 22.0682 56.7421 21.6978 57.0042H21.7013C19.7434 57.0271 17.9875 57.6799 16.3598 58.7285C16.2053 58.8288 16.0859 58.9854 15.9507 59.1156H15.9524C15.1904 59.4869 15.164 59.6171 15.7505 60.1414C15.8453 60.2259 15.9401 60.3156 16.049 60.379C16.5688 60.6833 16.8532 61.183 17.1377 61.681C17.2307 61.8429 17.2957 62.0188 17.4081 62.2616C17.912 61.8939 18.3686 61.5596 18.8251 61.2253H18.8268C19.5239 60.9754 20.221 60.7238 20.9164 60.474L20.9532 60.4441C21.171 60.4405 21.3922 60.4599 21.6082 60.43C22.1174 60.3614 22.6811 60.3807 22.8286 59.6822C22.8461 59.596 23.0919 59.5573 23.2307 59.4974H23.2324C23.264 59.5872 23.3114 59.6752 23.3272 59.7666C23.4273 60.3807 23.4256 60.3825 24.0384 60.4529C24.3486 60.4892 24.6488 60.3549 24.9391 60.0499C25.0796 59.9021 25.3553 59.9532 25.4045 60.1432C25.4273 60.2294 25.4413 60.3385 25.408 60.4159C25.3202 60.6218 25.3132 60.7819 25.5555 60.8663C26.7109 61.271 27.6187 62.0698 28.5949 62.7613L28.7863 62.9531C29.4202 63.9472 30.1191 64.9044 30.5019 66.0375C30.5967 66.3208 30.8162 66.2785 31.0515 66.2715C31.1709 66.268 31.3745 66.3929 31.3991 66.4932C31.4518 66.7114 31.3078 66.8697 31.0708 66.8222C30.8039 66.7677 30.7178 66.8504 30.7477 67.1108C30.8021 67.6175 30.8969 68.1243 30.8846 68.631C30.8688 69.2978 30.767 69.9629 30.7038 70.6298L30.7055 70.628C30.4509 71.2685 30.1946 71.9089 29.94 72.5494C29.8768 72.6145 29.8118 72.6778 29.7486 72.743C29.3008 73.3183 28.8531 73.8937 28.4053 74.4673C28.3421 74.5324 28.2789 74.5975 28.2157 74.6608C27.954 74.8297 27.6889 74.9951 27.4308 75.1693C27.1533 75.3558 26.9444 75.5599 27.1604 75.9364C27.1955 75.9998 27.0972 76.2268 27.0339 76.2391C26.9058 76.2637 26.7337 76.2268 26.6301 76.1493C26.5476 76.0878 26.5353 75.9276 26.4931 75.8115C26.084 75.9822 25.6784 76.1581 25.2657 76.3183C25.055 76.3992 24.9602 76.4889 25.0708 76.7335C25.206 77.0326 24.9901 77.1998 24.7706 77.3458C24.6635 77.1927 24.5142 77.0537 24.458 76.883C24.3808 76.649 24.2333 76.5787 24.0313 76.6121C23.5397 76.693 23.0164 76.6983 22.7513 77.2666C22.6881 77.4003 22.4405 77.4479 22.2772 77.5358H22.2649ZM12.5565 78.4684C13.0833 78.4367 13.5486 78.2766 13.9437 77.9071C14.6864 77.2085 15.4397 76.5241 16.1895 75.8326C16.2597 75.7675 16.3317 75.7024 16.3932 75.632C16.7461 75.2291 16.7988 74.8719 16.5231 74.4109C16.344 74.1118 16.114 73.8426 15.8945 73.5699C15.1869 72.6849 14.6689 71.7101 14.3985 70.6034C14.1509 69.5917 14.1755 68.5905 14.3423 67.5665C14.6109 65.9302 15.1131 64.4082 16.2 63.122C16.2404 63.0727 16.2738 63.0182 16.3106 62.9654C16.8198 62.2194 16.8409 62.0012 16.1912 61.3995C15.2817 60.5567 14.3159 59.7737 13.3712 58.9661C13.2993 58.9045 13.215 58.8552 13.1307 58.8112C12.5179 58.4928 11.9735 58.5614 11.4643 59.04C11.3028 59.1913 11.1588 59.369 11.0341 59.552C10.5319 60.291 10.0315 61.03 9.54513 61.7795C9.07631 62.5044 8.68298 63.2663 8.43716 64.1038C8.28264 64.6281 8.24576 65.0839 8.64786 65.529C9.11845 66.0463 9.08684 66.7026 9.04294 67.3466C9.00431 67.899 8.62328 68.1647 8.19308 68.4128C7.9455 68.5553 7.99116 68.726 8.25981 68.9143C8.48808 69.0744 8.81468 69.2222 8.89369 69.4456C9.13601 70.1442 9.26419 70.9007 8.78834 71.5518C8.45998 72.0022 8.44769 72.4227 8.63557 72.896C9.05699 73.964 9.44329 75.0497 9.92265 76.0895C10.186 76.6614 10.5846 77.1769 10.9709 77.6801C11.3607 78.1868 11.9279 78.4015 12.5548 78.4666L12.5565 78.4684Z" fill="white"/>
<path d="M89.9111 21.4025C89.9111 27.0963 89.9111 32.7883 89.9111 38.482C89.9111 38.7371 89.8988 38.994 89.9111 39.2491C90.0024 41.0878 88.0622 42.8702 86.4871 42.6239C74.8964 42.6239 63.3074 42.6239 51.7167 42.6239C51.5569 42.6239 51.3971 42.6186 51.2373 42.6186C50.9265 42.6186 50.6825 42.5077 50.5227 42.2262C50.0784 41.438 49.5271 40.7429 48.7773 40.2186C48.5087 40.0303 48.5719 39.7717 48.7036 39.5342C49.0249 38.9447 49.3515 38.3588 49.6869 37.7782C50.1013 37.0586 50.5385 36.3512 50.9371 35.6228C51.1724 35.1917 51.4779 34.9331 51.9871 34.9243C52.542 34.9137 52.9388 34.6533 53.2162 34.1519C53.6183 33.4252 53.4691 32.8639 52.909 32.2323C52.5174 31.7906 51.578 31.7449 51.0266 32.0721C50.4911 32.3906 50.089 33.251 50.3875 33.8176C50.7878 34.5724 50.542 35.1161 50.1487 35.7425C49.5359 36.7155 48.9968 37.7324 48.4209 38.7283C48.3085 38.9219 48.1979 39.1295 48.0363 39.2738C47.9134 39.3846 47.6869 39.4919 47.5499 39.4515C47.4095 39.4092 47.2655 39.2016 47.2233 39.0398C47.1601 38.7987 47.1742 38.533 47.1742 38.2779C47.1724 26.8271 47.1847 15.3763 47.1601 3.92544C47.1566 2.31374 48.1206 0.717875 49.8467 0.302634C50.2435 0.207621 50.6684 0.198823 51.0793 0.197064C55.6763 0.190026 60.275 0.193545 64.8719 0.193545C71.8956 0.193545 78.9209 0.195304 85.9445 0.190026C86.589 0.190026 87.2211 0.218178 87.8163 0.496179C89.1175 1.10145 89.8795 2.08677 89.9024 3.55419C89.9252 5.0568 89.9094 6.56117 89.9094 8.06378C89.9094 12.51 89.9094 16.9563 89.9094 21.4008L89.9111 21.4025ZM68.2468 11.3294C67.929 11.3329 67.6515 11.4156 67.4812 11.713C67.2301 11.8432 66.9878 11.9927 66.7262 12.0948C66.6507 12.1229 66.461 12.0367 66.4294 11.9593C66.3609 11.7886 66.3451 11.5916 66.3346 11.4033C66.317 11.0549 66.3381 10.703 66.3118 10.3546C66.2837 9.97812 66.1555 9.84439 65.7727 9.82856C65.2337 9.80569 64.6946 9.81976 64.1555 9.83208C63.8518 9.83912 63.6937 10.0274 63.6849 10.3212C63.6709 10.7664 63.6814 11.2115 63.6709 11.6567C63.6621 12.0103 63.8166 12.2637 64.1064 12.4485C64.2942 12.5681 64.4804 12.6877 64.6612 12.8179C64.8948 12.9869 65.123 12.9851 65.3724 12.8479C65.6199 12.7106 65.8798 12.5945 66.1327 12.4696L66.152 12.4889C65.7692 12.8707 65.3917 13.2561 65.0036 13.6308C64.821 13.8085 64.6068 13.9528 64.4259 14.1323C62.5489 16.0062 60.6665 17.873 58.8088 19.7662C57.9695 20.6213 57.3251 21.6242 57.0757 22.8101C56.851 23.8782 56.7421 24.9972 57.2337 26.0124C57.9923 27.5801 59.167 28.6974 60.9703 28.9842C61.2565 29.2182 61.5989 29.1637 61.929 29.176C62.3294 29.4522 62.7912 29.3819 63.2161 29.3344C63.8939 29.2569 64.6138 29.2816 65.1845 28.7924C65.4444 28.6904 65.7306 28.6253 65.9623 28.4757C66.7332 27.976 67.209 27.2089 67.6744 26.447C68.3398 25.3561 68.9825 24.2529 69.6339 23.1532C69.9763 22.5761 70.3223 22.0025 70.6541 21.4201C70.8473 21.0806 71.1124 20.8993 71.5075 20.924C71.9465 21.3093 72.482 21.4342 73.0404 21.4993C73.6637 21.9709 74.403 22.1275 75.1475 22.2665C75.6462 22.687 76.2414 22.8172 76.8718 22.8418C77.6075 23.1532 78.3169 23.162 78.9771 22.65C79.8006 22.4688 80.2572 21.9656 80.3169 21.114C80.7488 20.3556 80.3169 19.6536 80.071 18.7633C80.424 19.0624 80.6365 19.2419 80.8489 19.4213C81.0421 19.585 81.2264 19.7627 81.4319 19.9122C81.6373 20.06 81.8586 20.0477 82.0359 19.8577C82.7716 19.0659 83.5021 18.2671 84.2343 17.4718C84.4239 17.266 84.4046 17.0724 84.2009 16.8947C83.7444 16.4988 83.2861 16.1064 82.8278 15.7123C81.5267 14.5915 80.2273 13.469 78.9244 12.3517C78.1273 11.669 77.3213 10.9969 76.5224 10.3159C76.3345 10.1558 76.1396 10.0538 75.9394 10.2684C75.0474 11.2238 73.9658 12.0156 73.4232 13.2561C72.7401 12.6737 72.1238 12.0684 71.4267 11.574C70.7173 11.0708 69.9149 10.7611 69.0194 11.1359C68.763 11.1992 68.5084 11.2643 68.2521 11.3277L68.2468 11.3294ZM55.9186 21.1967C56.3066 21.4676 56.505 21.2371 56.714 21.033C58.0625 19.7222 59.3654 18.3656 60.7824 17.1234C61.836 16.1997 62.7859 15.1563 63.7798 14.164C63.9378 14.0074 64.1134 13.8543 64.2223 13.666C64.2872 13.5552 64.289 13.3458 64.2258 13.2349C64.1187 13.0467 63.9448 12.8901 63.7833 12.737C62.9475 11.9505 62.1099 11.1693 61.2688 10.3898C60.9089 10.0555 60.8474 10.0503 60.4769 10.3969C59.4058 11.398 58.3435 12.408 57.2776 13.4144C56.0731 14.5528 54.9862 15.8126 53.6763 16.8437C53.3778 17.0795 53.1249 17.375 52.8651 17.6566C52.7843 17.7428 52.6772 17.917 52.7105 17.9786C52.9792 18.4554 52.7035 18.7439 52.4103 19.0642C52.1767 19.3193 52.2013 19.4829 52.4243 19.7328C52.5508 19.8753 52.6947 20.0037 52.8422 20.1251C53.0055 20.2624 53.1811 20.28 53.3655 20.1515C53.5727 20.0073 53.7764 19.8471 54.0011 19.7381C54.0801 19.6993 54.2417 19.768 54.3295 19.8366C54.3769 19.8735 54.3839 20.0354 54.3418 20.097C54.2189 20.2817 54.0679 20.4471 53.9221 20.6143C53.7465 20.8166 53.7448 21.019 53.9221 21.2125C54.0714 21.3761 54.2311 21.5363 54.3997 21.6805C54.628 21.8741 54.8685 21.853 55.0951 21.6682C55.218 21.5679 55.3198 21.4307 55.455 21.355C55.6078 21.2706 55.7869 21.2389 55.9151 21.1967H55.9186ZM76.4785 33.1894C76.2941 33.0856 76.2467 33.0451 76.1923 33.0311C76.0395 32.9906 75.827 32.973 75.8639 32.7724C75.885 32.6598 76.0623 32.5701 76.1835 32.4874C76.2291 32.4557 76.3117 32.4874 76.3714 32.4698C76.6154 32.3994 76.7348 32.1742 76.6225 31.9736C76.5628 31.8663 76.4802 31.7607 76.3819 31.6886C76.036 31.437 76.0711 31.0833 76.1203 30.7332C76.1642 30.4182 76.4451 30.3918 76.6786 30.2898C77.0158 30.1437 77.1141 29.8464 77.0263 29.4118C76.9631 29.0951 76.7331 29.0229 76.4592 29.0124C76.2678 29.0053 76.0764 29.0036 75.885 29.0036C74.5768 29.0036 73.2704 29.0036 71.9623 29.0036C71.7112 29.0036 71.4618 29.0036 71.1282 29.0036C71.2722 29.2869 71.3618 29.4857 71.4724 29.6739C71.7481 30.1472 71.6445 30.603 71.3969 31.0376C71.0053 31.7238 70.1274 31.9789 69.3987 31.6428C68.6717 31.3068 68.3434 30.5924 68.5699 29.8288C68.6401 29.5912 68.7297 29.3572 68.828 29.0687C67.8236 28.9525 66.8737 29.0018 65.9237 29.037C65.7464 29.044 65.5497 29.1373 65.4005 29.2446C64.5524 29.8481 63.6094 30.0223 62.5893 29.959C61.987 29.9203 61.3777 29.9607 60.7719 29.9766C60.584 29.9819 60.347 29.9889 60.3294 30.2282C60.3241 30.3109 60.5296 30.4217 60.6507 30.4991C60.728 30.5484 60.8386 30.5449 60.9194 30.5924C61.2109 30.7648 61.2232 31.2117 60.9352 31.3877C60.8298 31.4528 60.6981 31.4792 60.577 31.5144C60.3241 31.5883 60.2276 31.7783 60.2153 32.0194C60.1503 33.1877 60.2978 33.2088 61.2776 33.1947C61.469 33.1929 61.6604 33.1947 61.8518 33.1947C65.0405 33.1947 68.231 33.1947 71.4197 33.1947H76.4785V33.1894ZM71.8464 28.3913C73.0896 28.3913 74.3327 28.3913 75.5742 28.3913C75.7972 28.3913 76.029 28.4212 76.2397 28.3666C76.4416 28.3156 76.7085 28.2206 76.7928 28.0622C77.2967 27.1156 77.9183 26.2253 77.8393 25.0429C77.7568 23.8219 77.8059 23.7972 76.6734 23.3978C75.1405 22.8576 73.5935 22.3562 72.0817 21.765C71.2652 21.4448 71.1932 21.5838 70.7823 22.2084C70.7296 22.2876 70.6787 22.3685 70.6278 22.4512C69.6726 23.9978 68.7174 25.5426 67.7622 27.0892C67.5953 27.3602 67.4233 27.6294 67.2758 27.9127C67.1441 28.1643 67.2529 28.3473 67.5427 28.3719C67.7955 28.393 68.0519 28.3895 68.3065 28.3895C69.4847 28.3895 70.6647 28.3895 71.8429 28.3895L71.8464 28.3913ZM84.9121 15.4554C84.9121 15.2883 84.9015 15.1915 84.9121 15.0965C84.9999 14.361 84.7154 13.8015 84.1395 13.3528C83.7128 13.0203 83.3107 12.6578 82.9051 12.2989C82.1904 11.6655 81.4863 11.018 80.7681 10.3881C80.5785 10.2209 80.3643 10.0714 80.1378 9.957C79.9745 9.87431 79.769 9.81272 79.5934 9.83032C79.0245 9.89014 78.4591 9.97988 77.8972 10.0837C77.6128 10.1365 77.5478 10.3722 77.7673 10.5711C78.3573 11.106 78.956 11.632 79.5636 12.1458C81.0228 13.3792 82.4872 14.6056 83.9516 15.832C84.2132 16.0519 84.4889 16.2542 84.7576 16.4654C85.0719 16.1416 84.8295 15.7387 84.9121 15.4554ZM59.9414 10.0766C59.3268 10.001 58.9089 9.99395 58.5138 9.89366C57.7272 9.69484 57.1266 9.87079 56.5454 10.4778C55.5762 11.4878 54.5191 12.4097 53.4989 13.3704C53.3602 13.5024 53.2303 13.6432 53.0933 13.7751C52.851 14.0091 52.7316 14.2906 52.7334 14.6302C52.7369 15.2038 52.7281 15.7792 52.7421 16.3528C52.7457 16.4566 52.8264 16.571 52.9019 16.6537C52.9212 16.6748 53.074 16.6026 53.1372 16.5446C53.8923 15.8619 54.6473 15.1792 55.3918 14.4824C56.6701 13.286 57.9414 12.0807 59.2091 10.8737C59.4321 10.6608 59.627 10.4215 59.9414 10.0766ZM79.6725 27.8124C79.6725 27.8124 79.6725 27.8194 79.6725 27.8247C80.0868 27.8247 80.503 27.8476 80.9156 27.8194C81.8147 27.7578 82.3397 27.2652 82.3924 26.3731C82.4363 25.6095 82.4082 24.8406 82.3924 24.0752C82.3818 23.5614 82.1167 23.1691 81.7198 22.8612C81.5126 22.701 81.2984 22.7468 81.1509 22.9703C81.0157 23.1779 80.9824 23.389 81.1632 23.5826C81.4793 23.9204 81.4881 24.3374 81.4582 24.7544C81.4336 25.1028 81.3827 25.4511 81.3125 25.7943C81.1808 26.4453 81.1422 26.4805 80.5153 26.5016C80.0061 26.5192 79.4951 26.5051 78.9841 26.5086C78.7611 26.5086 78.5364 26.5051 78.3151 26.5297C77.9692 26.5702 77.8568 26.7268 77.8498 27.1262C77.841 27.5801 77.9604 27.7825 78.3327 27.8054C78.7769 27.8353 79.2247 27.8124 79.6707 27.8124H79.6725ZM72.252 9.79689C72.252 9.80744 72.252 9.81976 72.252 9.83032C71.9676 9.83032 71.6831 9.81624 71.4004 9.83736C71.2845 9.84615 71.1458 9.90774 71.0703 9.99219C70.828 10.2614 70.9526 10.9247 71.3021 11.0602C71.95 11.3101 72.6172 11.5089 73.2827 11.7059C73.3565 11.7271 73.5531 11.6021 73.5566 11.537C73.583 11.0972 73.6023 10.652 73.5566 10.2156C73.5426 10.0802 73.3407 9.88838 73.1949 9.85671C72.8912 9.78985 72.5681 9.81096 72.252 9.79689ZM70.0782 29.1954C69.4742 29.1866 68.9175 29.6528 68.8859 30.1912C68.8543 30.7525 69.432 31.3349 70.0378 31.349C70.612 31.3613 71.1932 30.8634 71.2178 30.3355C71.2476 29.7197 70.7314 29.2042 70.0782 29.1954Z" fill="white"/>
<path d="M68.4575 89.8365C62.5822 89.8365 56.7087 89.8277 50.8335 89.8453C49.8941 89.8488 49.0723 89.6183 48.3647 88.9954C47.6307 88.3479 47.2743 87.5139 47.1812 86.5568C47.1531 86.2717 47.1724 85.9814 47.1724 85.6929C47.1724 74.4989 47.1724 63.305 47.1724 52.1111C47.1724 51.9826 47.1865 51.8542 47.1707 51.7275C47.0741 50.9938 47.3375 50.5381 48.0714 50.2724C48.6702 50.056 49.1302 49.5756 49.5868 49.1234C50.0363 48.6783 50.1417 48.6871 50.6491 49.0513C51.0372 49.3311 51.4112 49.6319 51.8027 49.9064C52.24 50.2126 52.5069 50.5768 52.5964 51.1434C52.7386 52.0372 53.3514 52.3891 54.1908 52.2149C54.5788 52.1339 54.8246 51.9158 54.9353 51.5533C55.3286 50.2548 54.4664 49.6196 53.5446 49.873C53.1214 49.9891 52.8229 49.9047 52.4963 49.639C51.9274 49.1745 51.3251 48.7539 50.7387 48.3123C50.5736 48.1874 50.456 48.0114 50.5648 47.8197C50.6509 47.6666 50.8019 47.4924 50.9564 47.4519C51.2286 47.3815 51.5253 47.3939 51.8115 47.3939C55.2601 47.3903 58.707 47.3921 62.1556 47.3921C70.0097 47.3921 77.8639 47.3921 85.718 47.3921C86.0376 47.3921 86.3572 47.3939 86.675 47.3974C88.3747 47.4097 89.9357 49.0126 89.9111 50.6841C89.9076 50.9392 89.9129 51.1961 89.9129 51.4513C89.9129 62.9003 89.9129 74.3511 89.9129 85.8002C89.9129 86.0553 89.9094 86.3122 89.9111 86.5673C89.9234 88.2547 88.3361 89.8435 86.6574 89.8365C86.3695 89.8365 86.0833 89.8382 85.7953 89.8382C80.0166 89.8382 74.2379 89.8382 68.4593 89.8382L68.4575 89.8365ZM80.2062 84.9204C79.8586 84.3451 79.5829 83.8489 79.2704 83.3774C76.9368 79.8619 74.5961 76.3517 72.259 72.8415C72.0992 72.6022 71.9307 72.3682 71.7849 72.1218C71.5374 71.7066 71.59 71.5606 72.0202 71.4075C72.1098 71.3758 72.2099 71.3688 72.2977 71.3336C73.8815 70.7125 75.2388 69.8134 76.1115 68.2879C77.1036 66.553 77.5706 64.6739 77.604 62.698C77.6356 60.8593 77.2739 59.0717 76.5487 57.3773C75.4302 54.7591 73.5022 53.0718 70.6928 52.5034C69.8236 52.3275 68.9228 52.243 68.0361 52.2342C64.7473 52.2026 61.4585 52.2237 58.1714 52.2219C56.6964 52.2219 56.7702 52.1691 56.7702 53.6454C56.7702 63.6235 56.7702 73.6033 56.7702 83.5815C56.7702 83.8366 56.7632 84.0935 56.7772 84.3486C56.8088 84.8624 56.9054 84.9574 57.4041 84.9961C57.5305 85.0067 57.6587 85.0031 57.7869 85.0031C59.5112 85.0031 61.2355 85.0031 62.9598 85.0031C63.1511 85.0031 63.3425 84.9961 63.5339 84.9838C63.8395 84.9644 63.9957 84.785 64.0133 84.4911C64.0291 84.236 64.0309 83.9791 64.0309 83.724C64.0309 81.9011 64.0309 80.0783 64.0309 78.2555C64.0309 76.7529 64.0273 75.2485 64.0344 73.7459C64.0344 73.4943 64.0765 73.2409 64.1239 72.9946C64.1309 72.9611 64.3188 72.9101 64.3504 72.9418C64.4611 73.0509 64.5506 73.1864 64.6296 73.3236C65.9676 75.6848 67.3039 78.0496 68.6384 80.4126C69.3618 81.6918 70.101 82.9621 70.7981 84.2554C71.0878 84.7938 71.4478 85.0278 72.0834 85.0172C74.5417 84.982 77 85.0049 79.4582 84.9996C79.6672 84.9996 79.8761 84.9556 80.2062 84.9187V84.9204Z" fill="white"/>
<path d="M0.0280176 21.3744C0.0280176 15.3939 0.0420649 9.41508 0.0157263 3.43454C0.0104586 2.30494 0.449435 1.45335 1.29051 0.781217C1.87699 0.31495 2.56706 0.059823 3.32034 0.0123165C3.57494 -0.003519 3.83131 0.0052785 4.08591 0.0052785C15.7065 0.003519 27.3253 0.0052785 38.9459 0C39.6553 0 40.3489 0.03519 40.9985 0.358938C42.2119 0.965965 42.9125 1.91609 42.9722 3.2973C42.9827 3.55243 42.9757 3.80931 42.9757 4.06444C42.9757 15.4484 42.9757 26.8324 42.9757 38.2163C42.9757 38.3131 42.9669 38.4099 42.9757 38.5031C43.0617 39.2439 42.8844 39.8192 42.0942 40.0902C41.866 40.1694 41.6816 40.384 41.4814 40.5388C41.053 40.8714 40.9125 40.882 40.4735 40.56C40.2944 40.428 40.1434 40.2556 39.9626 40.1271C39.6114 39.8773 39.5271 39.587 39.5868 39.1418C39.8502 37.1835 38.1821 36.5747 36.9213 36.9477C35.7291 37.3014 35.2778 39.1172 36.1364 40.0603C36.6913 40.6708 37.4253 41.0139 38.2014 40.6497C39.0425 40.2556 39.5903 40.6057 40.1575 41.1124C40.4542 41.3781 40.4893 41.5206 40.319 41.862C40.247 42.0045 40.1417 42.1294 40.0767 42.2755C39.8923 42.6837 39.564 42.8156 39.1443 42.798C38.9529 42.7892 38.7615 42.798 38.5701 42.798C26.9829 42.798 15.3939 42.798 3.80672 42.7945C3.42569 42.7945 3.03939 42.7857 2.66363 42.7259C1.35021 42.52 -0.0176359 40.8995 -7.68613e-05 39.4092C0.0701593 33.3988 0.0280176 27.3866 0.0280176 21.3744ZM27.1919 20.2465C27.4026 20.104 27.543 20.0337 27.6484 19.9298C28.1488 19.4407 28.7335 19.0061 29.1128 18.436C30.1541 16.8701 30.4912 15.0719 30.4596 13.2262C30.4438 12.2778 30.27 11.3171 30.054 10.3881C29.5939 8.39457 28.4719 6.83565 26.6967 5.8081C25.4886 5.10958 24.1489 4.80695 22.7512 4.80519C18.7618 4.80167 14.7724 4.80167 10.7812 4.80519C9.6416 4.80519 9.62404 4.82454 9.62404 6.00341C9.62404 16.2666 9.62404 26.5315 9.62404 36.7946C9.62404 37.9946 9.6293 37.9999 10.8707 37.9999C14.9251 38.0016 18.9777 37.9753 23.0321 38.0122C24.8196 38.028 26.5176 37.7201 28.1559 37.0198C30.4912 36.0205 32.0996 34.3401 32.8634 31.9067C33.5518 29.7197 33.6009 27.4974 32.9653 25.2928C32.4631 23.5509 31.5781 22.0676 29.8503 21.2565C29.5044 21.0946 29.1673 20.9134 28.8108 20.7797C28.3121 20.5932 27.7994 20.4436 27.1901 20.243L27.1919 20.2465Z" fill="white"/>
<path d="M30.4176 62.3338C30.3157 62.3707 30.1436 62.478 29.9733 62.478C29.8609 62.478 29.6731 62.3302 29.6608 62.2317C29.6485 62.1314 29.7907 61.9449 29.9013 61.9097C30.1595 61.827 30.4386 61.8147 30.709 61.7725C30.9004 61.7426 31.0005 61.8464 31.0409 62.0153C31.0901 62.2264 30.9689 62.4077 30.7687 62.4129C30.6792 62.4147 30.5879 62.3742 30.4193 62.3338H30.4176Z" fill="white"/>
<path d="M18.3317 59.5168C18.3457 59.3303 18.3299 59.135 18.3879 58.9626C18.4125 58.8887 18.5916 58.8359 18.7022 58.8341C18.7671 58.8341 18.8883 58.9467 18.8918 59.0136C18.9041 59.3479 18.9059 59.6857 18.8672 60.0165C18.8585 60.0904 18.6776 60.1977 18.5793 60.1942C18.4862 60.1907 18.3422 60.0746 18.3229 59.9848C18.2895 59.8388 18.3387 59.6734 18.3528 59.5168C18.3457 59.5168 18.3405 59.5168 18.3334 59.5168H18.3317Z" fill="white"/>
<path d="M20.9111 60.4722C20.4247 60.2312 20.4353 60.2329 20.495 59.8335C20.5213 59.6593 20.5072 59.4781 20.5002 59.3004C20.4932 59.1104 20.588 59.003 20.7601 58.9784C20.9515 58.952 21.0744 59.0804 21.0674 59.2458C21.0481 59.6452 20.9901 60.0429 20.948 60.4423L20.9111 60.4722Z" fill="white"/>
<path d="M16.9059 76.5787C16.9989 76.4203 17.0709 76.2408 17.1974 76.1159C17.25 76.0631 17.4502 76.0913 17.5292 76.1529C17.6767 76.269 17.6434 76.4379 17.5187 76.5664C17.3203 76.774 17.1096 76.6561 16.9024 76.5751H16.9041L16.9059 76.5787Z" fill="white"/>
<path d="M29.738 72.7377C29.803 72.6743 29.8662 72.6092 29.9312 72.5459C30.1015 72.6585 30.2859 72.7553 30.4299 72.8943C30.4667 72.9295 30.3965 73.1195 30.3298 73.2039C30.2894 73.2532 30.1156 73.2761 30.084 73.2409C29.9523 73.0878 29.8504 72.9083 29.738 72.7377Z" fill="white"/>
<path d="M32.5984 66.8064C32.4808 66.8504 32.3649 66.9313 32.2472 66.9296C32.1401 66.9296 31.9522 66.8486 31.9435 66.787C31.9259 66.6551 31.9733 66.4844 32.0576 66.3824C32.1068 66.3243 32.321 66.3225 32.3895 66.3824C32.5001 66.4756 32.551 66.6375 32.6265 66.7712L32.5966 66.8082L32.5984 66.8064Z" fill="white"/>
<path d="M25.0217 57.5268C24.8075 57.6746 24.6828 57.8066 24.5388 57.8365C24.4809 57.8488 24.2982 57.6306 24.3123 57.5374C24.3281 57.43 24.4879 57.2858 24.6038 57.2682C24.7003 57.2523 24.8215 57.3948 25.0217 57.5251V57.5268Z" fill="white"/>
<path d="M32.8179 72.3682C32.6318 72.4878 32.5106 72.6303 32.4105 72.6145C32.3069 72.5987 32.1507 72.4262 32.1577 72.333C32.1647 72.2345 32.335 72.0814 32.4386 72.0761C32.5387 72.0708 32.6458 72.2274 32.8161 72.3682H32.8179Z" fill="white"/>
<path d="M26.1016 59.1156C26.17 58.9749 26.2104 58.8077 26.3158 58.7057C26.379 58.6459 26.5511 58.6582 26.6547 58.6951C26.7161 58.7162 26.7899 58.864 26.7688 58.9256C26.7337 59.0312 26.6406 59.179 26.5546 59.1913C26.4088 59.2124 26.2508 59.142 26.098 59.1104L26.1016 59.1139V59.1156Z" fill="white"/>
<path d="M31.8451 68.9037C32.2993 68.8439 32.5551 69.0357 32.6125 69.4791V69.4756C32.1928 69.5055 31.9101 69.3489 31.8486 68.8984L31.8451 68.9037Z" fill="white"/>
<path d="M18.8198 61.2253C18.6793 61.1619 18.5125 61.1267 18.4107 61.0247C18.3492 60.9649 18.3615 60.7907 18.3966 60.6869C18.4177 60.6253 18.5599 60.5531 18.6249 60.5707C18.7303 60.6006 18.883 60.6886 18.8971 60.7713C18.9199 60.9138 18.8514 61.0722 18.8216 61.2235H18.8198V61.2253Z" fill="white"/>
<path d="M26.8513 61.0036C27.048 60.891 27.1814 60.7537 27.278 60.7766C27.3816 60.7995 27.5256 60.9807 27.5151 61.0775C27.5045 61.1725 27.3219 61.315 27.2148 61.315C27.1147 61.315 27.0164 61.1531 26.8513 61.0036Z" fill="white"/>
<path d="M31.4448 71.5606C31.6414 71.4462 31.7731 71.3107 31.8715 71.3301C31.9733 71.3512 32.119 71.5342 32.1068 71.6292C32.0945 71.726 31.9154 71.8702 31.81 71.8702C31.7099 71.8702 31.6098 71.7101 31.4448 71.5606Z" fill="white"/>
<path d="M15.9454 59.1156C16.1034 59.128 16.2667 59.1156 16.416 59.1561C16.5951 59.2036 16.6917 59.3725 16.574 59.515C16.502 59.603 16.2334 59.6558 16.1772 59.5995C16.0578 59.4816 16.0192 59.2793 15.9472 59.1121L15.9454 59.1139V59.1156Z" fill="white"/>
<path d="M30.3666 64.6985C30.2192 64.5367 30.0576 64.4381 30.0559 64.3361C30.0523 64.2323 30.1981 64.0475 30.2929 64.037C30.3912 64.0264 30.5756 64.1689 30.5967 64.271C30.6177 64.3713 30.4808 64.5032 30.3684 64.6985H30.3666Z" fill="white"/>
<path d="M32.6423 64.3378C32.4421 64.4522 32.3104 64.5877 32.2121 64.5683C32.1085 64.5472 32.0383 64.3748 31.9522 64.2674C32.0593 64.183 32.1665 64.0317 32.2718 64.0334C32.3736 64.0334 32.4737 64.1918 32.6423 64.3378Z" fill="white"/>
<path d="M28.7828 62.9496C28.7196 62.8862 28.6564 62.8229 28.5914 62.7578C28.6371 62.4956 28.7056 62.244 29.0515 62.3056C29.1235 62.3179 29.2236 62.42 29.2358 62.4921C29.292 62.837 29.0515 62.9126 28.7828 62.9478V62.9496Z" fill="white"/>
<path d="M33.58 64.4962C33.5115 64.6334 33.4676 64.7971 33.3622 64.8956C33.299 64.9554 33.1304 64.9413 33.0268 64.9044C32.9671 64.8833 32.8969 64.7407 32.9145 64.6756C32.9443 64.5701 33.0286 64.417 33.1111 64.4029C33.2516 64.3783 33.4096 64.4452 33.5589 64.4733L33.5764 64.4962H33.58Z" fill="white"/>
<path d="M16.1368 76.7687L16.3317 76.5787C16.5231 76.5787 16.7145 76.5787 16.9059 76.5787L16.9041 76.5787C16.9006 76.6666 16.9164 76.7652 16.8883 76.8479C16.7373 77.2948 16.5196 77.3229 16.1983 76.9376C16.1614 76.8936 16.1561 76.825 16.1368 76.7669V76.7687Z" fill="white"/>
<path d="M26.098 59.1121C26.1174 59.2669 26.17 59.4306 26.1402 59.5766C26.1209 59.6716 25.9892 59.793 25.8944 59.8071C25.8048 59.8212 25.645 59.7297 25.6117 59.6452C25.5765 59.5555 25.6169 59.3813 25.6889 59.3162C25.796 59.2177 25.9611 59.1807 26.1016 59.1156L26.098 59.1121Z" fill="white"/>
<path d="M32.6265 66.7695C32.7775 66.7466 32.9355 66.6868 33.0743 66.7167C33.1568 66.7343 33.2376 66.8874 33.2639 66.9929C33.2797 67.058 33.2077 67.197 33.1463 67.2181C33.0444 67.2533 32.8758 67.2639 32.8126 67.2041C32.709 67.1055 32.6669 66.9419 32.5984 66.8064L32.6283 66.7695H32.6265Z" fill="white"/>
<path d="M29.1287 76.1863C29.278 76.3552 29.436 76.4572 29.436 76.5575C29.436 76.6631 29.285 76.7704 29.199 76.8778C29.0936 76.7915 28.9233 76.7177 28.9022 76.6138C28.8812 76.5153 29.0164 76.3851 29.1287 76.1863Z" fill="white"/>
<path d="M32.6125 69.4791C32.7652 69.4474 32.925 69.377 33.069 69.3981C33.155 69.4105 33.2498 69.56 33.2832 69.6656C33.3025 69.7272 33.2305 69.875 33.1691 69.8961C33.0655 69.933 32.8916 69.9471 32.8302 69.8855C32.7248 69.7835 32.6827 69.6163 32.616 69.4756V69.4791H32.6125Z" fill="white"/>
<path d="M31.7082 75.5828C31.5168 75.7077 31.4097 75.8291 31.292 75.8414C31.134 75.859 30.9707 75.7429 31.0234 75.5652C31.0567 75.4526 31.2112 75.3189 31.3236 75.3065C31.4184 75.296 31.5308 75.4473 31.7099 75.5828H31.7082Z" fill="white"/>
<path d="M31.6748 64.3185C31.4887 64.4434 31.3658 64.5877 31.2674 64.5736C31.1638 64.5595 31.0269 64.4012 31.0058 64.2868C30.976 64.1214 31.1164 63.9842 31.2885 64.0246C31.4061 64.051 31.501 64.1812 31.6748 64.3185Z" fill="white"/>
<path d="M31.8486 68.8984C31.6959 68.9354 31.5396 69.011 31.3939 68.9935C31.3078 68.9829 31.213 68.8333 31.1761 68.7278C31.1551 68.6662 31.2253 68.5201 31.2867 68.4973C31.3903 68.4586 31.5642 68.4374 31.6274 68.4973C31.7327 68.5976 31.7749 68.7647 31.8434 68.9055L31.8469 68.9002L31.8486 68.8984Z" fill="white"/>
<path d="M26.8566 77.3652C26.7337 77.1786 26.5915 77.0572 26.6055 76.9569C26.6196 76.8549 26.7916 76.6965 26.8829 76.7018C26.9813 76.7089 27.134 76.8778 27.1393 76.9833C27.1463 77.0819 26.9918 77.191 26.8548 77.3652H26.8566Z" fill="white"/>
<path d="M18.876 57.7573C18.9849 57.9526 19.1201 58.0863 19.099 58.1849C19.0762 58.2869 18.8936 58.4294 18.797 58.4171C18.7004 58.4048 18.5582 58.2218 18.5617 58.118C18.5652 58.0159 18.7268 57.9192 18.876 57.7573Z" fill="white"/>
<path d="M23.9839 79.0631C23.9997 78.9065 23.9927 78.7446 24.0349 78.5968C24.0858 78.4191 24.2526 78.3276 24.3931 78.442C24.4809 78.5141 24.537 78.7763 24.4809 78.8379C24.3685 78.961 24.1683 79.005 24.005 79.0807L23.9822 79.0631H23.9839Z" fill="white"/>
<path d="M29.9312 59.4957C30.0576 59.5608 30.1858 59.6259 30.3122 59.691C30.2508 59.8282 30.2209 60.0059 30.1173 60.0922C30.026 60.1678 29.8048 60.1995 29.7257 60.1379C29.6485 60.0798 29.638 59.8669 29.6731 59.7438C29.7012 59.6435 29.8416 59.5766 29.9312 59.4939V59.4957Z" fill="white"/>
<path d="M29.0076 60.657C28.8601 60.488 28.702 60.386 28.702 60.2857C28.702 60.1801 28.8531 60.0746 28.9391 59.9672C29.0444 60.0534 29.2148 60.1273 29.2358 60.2312C29.2552 60.3297 29.12 60.4599 29.0076 60.657Z" fill="white"/>
<path d="M29.1551 77.147C29.292 77.3264 29.443 77.4373 29.436 77.5376C29.429 77.6432 29.2692 77.7364 29.1779 77.8367C29.0796 77.7434 28.918 77.6572 28.9022 77.5517C28.8882 77.4531 29.0322 77.3317 29.1568 77.147H29.1551Z" fill="white"/>
<path d="M22.2649 77.5358C22.2965 77.6889 22.3685 77.8472 22.3457 77.9933C22.3334 78.0795 22.1859 78.1745 22.0788 78.2079C22.0173 78.2273 21.8698 78.1552 21.8488 78.0936C21.8119 77.9898 21.7978 77.8156 21.8593 77.754C21.9611 77.6484 22.1297 77.608 22.2684 77.5393L22.2632 77.5358L22.2649 77.5358Z" fill="white"/>
<path d="M26.8566 78.3258C26.7337 78.1393 26.5915 78.0179 26.6055 77.9176C26.6196 77.8156 26.7916 77.6572 26.8829 77.6625C26.9813 77.6695 27.134 77.8385 27.1393 77.944C27.1463 78.0426 26.9918 78.1516 26.8548 78.3258H26.8566Z" fill="white"/>
<path d="M19.3993 78.0584C19.2377 78.208 19.1394 78.3716 19.0411 78.3716C18.934 78.3716 18.7496 78.2308 18.739 78.1358C18.7285 78.0373 18.8707 77.8543 18.9743 77.8314C19.0709 77.8085 19.2044 77.9475 19.3993 78.0584Z" fill="white"/>
<path d="M18.0683 78.1059C18.1894 78.2942 18.3299 78.4191 18.3141 78.5159C18.2966 78.6214 18.1333 78.7024 18.0332 78.7939C17.9419 78.6936 17.7856 78.595 17.7803 78.4895C17.7751 78.3892 17.9296 78.2801 18.07 78.1041L18.0683 78.1059Z" fill="white"/>
<path d="M26.6564 79.2795C26.5318 79.0947 26.386 78.9751 26.4001 78.8766C26.4141 78.7728 26.5792 78.6883 26.6793 78.5968C26.7706 78.6953 26.9286 78.7904 26.9356 78.8959C26.9426 78.9945 26.7916 79.1053 26.6564 79.2795Z" fill="white"/>
<path d="M21.2676 79.3745C21.1113 79.5276 21.0147 79.6965 20.9164 79.6982C20.811 79.6982 20.6565 79.561 20.6108 79.4484C20.5441 79.2812 20.6741 79.1335 20.8409 79.1405C20.962 79.1458 21.0779 79.2636 21.2658 79.3727L21.2676 79.3745Z" fill="white"/>
<path d="M24.005 79.0807C24.0349 79.2302 24.1086 79.3868 24.084 79.5276C24.0489 79.7282 23.7609 79.8232 23.6468 79.6771C23.5713 79.5821 23.5344 79.3675 23.5924 79.2777C23.6608 79.1686 23.847 79.1317 23.9822 79.0648L24.005 79.0824L24.005 79.0807Z" fill="white"/>
<path d="M31.4694 74.6643C31.285 74.7875 31.1638 74.93 31.0673 74.9159C30.9619 74.8983 30.8056 74.7312 30.8091 74.6344C30.8126 74.5376 30.983 74.3828 31.0883 74.3758C31.1867 74.3705 31.2955 74.5253 31.4694 74.6643Z" fill="white"/>
<path d="M20.7302 58.2957C20.9304 58.1866 21.0639 58.0511 21.1622 58.074C21.264 58.0969 21.3325 58.2728 21.4168 58.3819C21.3079 58.4646 21.1973 58.6107 21.0885 58.6089C20.9884 58.6071 20.8918 58.4453 20.7302 58.2957Z" fill="white"/>
<path d="M19.9805 76.971C19.9945 77.0643 20.0051 77.1575 20.0209 77.249C20.0542 77.4654 19.9822 77.6361 19.7592 77.6608C19.6679 77.6713 19.5134 77.5798 19.4765 77.4954C19.3852 77.2877 19.5222 77.1417 19.6978 77.0467C19.7785 77.0027 19.8734 76.9833 19.9612 76.9534L19.9805 76.971Z" fill="white"/>
<path d="M29.1393 75.2942C29.2499 75.4807 29.3956 75.618 29.3746 75.7183C29.3535 75.8133 29.1551 75.9329 29.0374 75.9294C28.8548 75.9241 28.7881 75.7411 28.8513 75.5793C28.8864 75.486 29.0041 75.4227 29.1393 75.2942Z" fill="white"/>
<path d="M28.472 60.5672C28.2824 60.7115 28.156 60.8751 28.0699 60.8558C27.9575 60.8311 27.8522 60.6728 27.7978 60.5496C27.782 60.5109 27.9505 60.3262 28.0278 60.3297C28.1489 60.3385 28.2648 60.4493 28.472 60.5672Z" fill="white"/>
<path d="M33.7503 67.8181C33.6344 67.6685 33.4957 67.5313 33.5132 67.5049C33.5887 67.3941 33.7029 67.2885 33.8258 67.2445C33.8732 67.2269 34.0611 67.4152 34.047 67.4539C33.9996 67.5718 33.8837 67.6633 33.7503 67.8181Z" fill="white"/>
<path d="M21.6925 57.0025C21.8049 57.1432 21.9646 57.2682 22.0138 57.4283C22.0647 57.5937 21.9278 57.7274 21.7381 57.7133C21.5661 57.6992 21.4221 57.6025 21.4712 57.4089C21.5081 57.2629 21.617 57.1362 21.6942 57.0007L21.6907 57.0025H21.6925Z" fill="white"/>
<path d="M21.9629 78.8027C21.7733 78.9469 21.6486 79.1088 21.5625 79.0895C21.4484 79.0648 21.3431 78.91 21.2869 78.7851C21.2711 78.7481 21.4396 78.5599 21.5169 78.5634C21.638 78.5704 21.7539 78.6813 21.9629 78.8009V78.8027Z" fill="white"/>
<path d="M24.3474 58.2676C24.1279 58.3714 23.9787 58.5016 23.8856 58.4699C23.7855 58.4365 23.7047 58.2552 23.6837 58.1268C23.6749 58.0758 23.8733 57.9245 23.9383 57.9438C24.0612 57.9808 24.1578 58.1092 24.3457 58.2693L24.3474 58.2676Z" fill="white"/>
<path d="M23.2254 59.4957C23.1762 59.3479 23.0902 59.1983 23.0919 59.0505C23.0919 58.959 23.2131 58.8429 23.3097 58.7901C23.3659 58.7602 23.5239 58.8112 23.5555 58.8693C23.6047 58.9626 23.6363 59.1244 23.5854 59.1983C23.5028 59.3215 23.3501 59.3989 23.2271 59.4957H23.2254Z" fill="white"/>
<path d="M27.4396 57.9614C27.5063 58.067 27.6064 58.1655 27.631 58.2816C27.6538 58.3837 27.6274 58.5473 27.559 58.6019C27.4852 58.6617 27.3008 58.6722 27.2271 58.6177C27.1533 58.5631 27.0972 58.3802 27.134 58.2975C27.1937 58.1655 27.3342 58.0723 27.4413 57.9614H27.4378H27.4396Z" fill="white"/>
<path d="M30.7231 74.1523C30.6055 73.9412 30.4632 73.7934 30.4948 73.7142C30.537 73.6051 30.7055 73.5242 30.8355 73.4872C30.8741 73.4767 31.0321 73.672 31.0181 73.7494C30.9953 73.8673 30.8688 73.9658 30.7231 74.1541V74.1523Z" fill="white"/>
<path d="M28.2051 74.6573C28.2701 74.5939 28.3351 74.5306 28.4 74.4673C28.4615 74.4708 28.5247 74.4673 28.5862 74.4778C28.7969 74.5077 28.9409 74.6151 28.9128 74.8438C28.9022 74.9212 28.7986 75.0532 28.7565 75.0461C28.6178 75.0233 28.4791 74.9652 28.3597 74.8878C28.2877 74.842 28.2543 74.7365 28.2051 74.6573Z" fill="white"/>
<path d="M24.7583 77.344C24.8075 77.4918 24.8952 77.6414 24.8935 77.7892C24.8935 77.8807 24.7723 77.9986 24.6775 78.0496C24.6213 78.0795 24.4633 78.0285 24.4317 77.9722C24.3825 77.8789 24.3509 77.7153 24.4001 77.6414C24.4826 77.5182 24.6354 77.4408 24.7583 77.344Z" fill="white"/>
<path d="M30.6968 70.6298C30.8478 70.6509 31.0146 70.6404 31.1463 70.7055C31.2218 70.7424 31.2393 70.899 31.2832 71.0011C31.1515 71.0415 30.9373 71.1471 30.9057 71.1084C30.8021 70.9764 30.7635 70.7917 30.6985 70.628H30.6968V70.6298Z" fill="white"/>
<path d="M25.9066 63.3349C26.0331 63.4774 26.1402 63.6463 26.2894 63.7572C27.8259 64.9009 28.5581 66.4844 28.7126 68.3407C28.76 68.8967 28.6476 69.4932 28.4843 70.0351C27.7978 72.3224 26.3386 73.8778 23.9646 74.367C21.9488 74.7822 20.1227 74.3511 18.5986 72.8432C17.2711 71.5307 16.5951 69.9841 16.7075 68.119C16.79 66.7695 17.3238 65.5976 18.2193 64.5806C18.9796 63.7167 19.9102 63.1185 20.9971 62.7912C22.2157 62.4253 23.4466 62.4165 24.6564 62.8774C25.0726 63.0358 25.4923 63.1836 25.9102 63.3367H25.9066V63.3349ZM17.4801 66.5988C17.6925 66.539 17.9032 66.4299 18.1157 66.4316C18.4704 66.4352 18.7707 66.7712 18.7987 67.1161C18.8233 67.4205 18.5933 67.7178 18.2597 67.8216C18.0156 67.899 17.8418 67.7724 17.6434 67.658C17.25 67.4275 17.1622 67.4838 17.1166 67.9254C16.9603 69.4263 17.3888 70.7723 18.2333 71.9916C18.3879 72.2151 18.6284 72.4174 18.8743 72.5195C18.9585 72.5547 19.1798 72.2538 19.3413 72.1095C19.4116 72.0462 19.4836 71.9811 19.5643 71.9301C19.8014 71.7823 20.0595 71.8104 20.2684 71.9987C20.5529 72.2538 20.6144 72.6127 20.4019 72.9471C20.2895 73.1212 20.1332 73.2673 19.9893 73.4362C21.7873 74.3634 23.9348 74.3476 25.3149 73.4098C25.1727 73.2409 25.0076 73.0896 24.897 72.9048C24.6986 72.574 24.7881 72.2028 25.0902 71.9688C25.3869 71.7383 25.7627 71.7576 26.0401 72.0427C26.17 72.1782 26.2368 72.3752 26.3702 72.5054C26.4299 72.5635 26.6406 72.5758 26.688 72.523C27.4448 71.6767 28.0559 70.7336 28.1735 69.5811C28.2508 68.8263 28.1876 68.0557 28.1876 67.19C27.9927 67.4011 27.8856 67.5559 27.7433 67.665C27.4115 67.9202 27.1586 67.9166 26.8829 67.6703C26.6634 67.4733 26.4703 67.2533 26.5686 66.9243C26.6652 66.5988 27.0181 66.3894 27.4027 66.4334C27.566 66.4528 27.7258 66.5161 28.005 66.5918C27.6854 65.9689 27.4764 65.441 27.0884 64.9976C25.8575 63.5936 24.3492 62.9144 22.4545 62.932C20.5459 62.9496 18.0771 64.3484 17.4801 66.5953L17.4485 66.6287L17.4818 66.5988H17.4801Z" fill="white"/>
<path d="M25.9102 63.3367C25.8417 63.2329 25.7662 63.1326 25.7082 63.0217C25.6011 62.8159 25.6942 62.6593 25.8628 62.5449C26.0436 62.4217 26.2245 62.4464 26.3527 62.6241C26.4738 62.793 26.4703 62.9918 26.3123 63.1308C26.2016 63.2276 26.0436 63.2681 25.9066 63.3349L25.9102 63.3349V63.3367Z" fill="white"/>
<path d="M16.804 64.8129C16.9673 65.0064 17.1359 65.1208 17.1745 65.2704C17.2307 65.4885 16.9726 65.7173 16.7654 65.6768C16.5512 65.6346 16.4055 65.4692 16.4423 65.2756C16.4704 65.1278 16.6443 65.0082 16.804 64.8129Z" fill="white"/>
<path d="M16.3247 72.1588C16.416 72.004 16.4792 71.8157 16.6074 71.7031C16.7637 71.5658 16.9726 71.6134 17.0973 71.7787C17.1605 71.8614 17.1886 72.018 17.157 72.1166C17.0973 72.2996 16.9515 72.4491 16.7356 72.391C16.5916 72.3523 16.4669 72.245 16.3317 72.1694L16.3229 72.1588H16.3247Z" fill="white"/>
<path d="M23.099 75.3312C22.9058 75.4895 22.7882 75.6584 22.6424 75.6866C22.4229 75.7271 22.3088 75.5353 22.3088 75.3312C22.3088 75.1271 22.4229 74.9335 22.6424 74.9758C22.7864 75.0039 22.9041 75.1728 23.0972 75.3312H23.099Z" fill="white"/>
<path d="M29.789 68.5378C29.8048 68.858 29.6028 69.085 29.3939 69.0251C29.2675 68.9899 29.127 68.8633 29.0761 68.7436C28.9988 68.5589 29.2253 68.258 29.4202 68.2932C29.5695 68.3196 29.6959 68.4726 29.789 68.5378Z" fill="white"/>
<path d="M29.0409 65.3443C28.8478 65.5044 28.7301 65.6768 28.5862 65.7032C28.3649 65.7437 28.2543 65.5431 28.2525 65.3425C28.2508 65.1366 28.3702 64.9466 28.5879 64.9871C28.7319 65.0135 28.8496 65.1859 29.0409 65.3443Z" fill="white"/>
<path d="M19.2061 63.3525C19.0516 63.1291 18.8971 62.9989 18.8778 62.8511C18.8514 62.6593 18.9814 62.4868 19.2114 62.4886C19.4414 62.4904 19.5696 62.661 19.538 62.8563C19.5134 63.0059 19.3606 63.1326 19.2079 63.3525H19.2061Z" fill="white"/>
<path d="M26.0998 75.0426C25.9646 74.9194 25.796 74.8156 25.7047 74.6661C25.5959 74.4866 25.6714 74.279 25.861 74.1998C25.9769 74.1523 26.1841 74.1717 26.2684 74.2491C26.3509 74.3265 26.3755 74.5271 26.3456 74.652C26.3105 74.7928 26.1858 74.9124 26.0998 75.0409V75.0426Z" fill="white"/>
<path d="M23.1095 61.8253C22.9041 62.003 22.7899 62.1596 22.6407 62.2141C22.4616 62.2775 22.3492 62.1244 22.3176 61.9519C22.279 61.732 22.3861 61.5367 22.5915 61.5279C22.732 61.5226 22.8795 61.6863 23.1095 61.8253Z" fill="white"/>
<path d="M15.9384 69.136C15.7891 68.8949 15.6364 68.7559 15.6276 68.6081C15.6135 68.3917 15.812 68.2509 16.0139 68.2967C16.1245 68.3213 16.2843 68.5202 16.272 68.6204C16.2527 68.77 16.0999 68.902 15.9384 69.136Z" fill="white"/>
<path d="M28.9689 72.3594C28.7828 72.3347 28.5862 72.3383 28.4176 72.2714C28.3386 72.2397 28.2666 72.0567 28.2824 71.96C28.3 71.8597 28.4158 71.7277 28.5142 71.7013C28.609 71.6767 28.7916 71.7383 28.8337 71.8157C28.918 71.9741 28.9338 72.1711 28.9777 72.3506L28.9689 72.3594Z" fill="white"/>
<path d="M9.20624 72.3048C9.18341 71.7418 9.3432 71.2192 9.58376 70.7301C9.83486 70.2181 9.83134 69.75 9.49772 69.289C9.15005 68.8105 9.17463 68.3653 9.54162 67.8903C9.95601 67.3536 9.9367 66.7044 9.62064 66.173C9.09211 65.2827 9.16059 64.4152 9.46085 63.5021C9.79447 62.4939 10.2528 61.5508 10.8691 60.6851C11.4415 59.881 12.2123 59.5467 13.1957 59.6875C13.661 59.7543 14.0438 59.9567 14.3546 60.2998C14.7022 60.6816 14.869 61.1162 14.6337 61.6159C14.4722 61.959 14.3159 62.3179 14.0877 62.6153C12.9498 64.0827 12.4547 65.7718 12.3054 67.5911C12.2843 67.8445 12.2246 68.0961 12.2141 68.3495C12.2001 68.7278 12.1843 69.1113 12.2229 69.4861C12.2808 70.0562 12.3546 70.6263 12.4757 71.1858C12.6197 71.8456 12.9235 72.4386 13.3045 73.0034C13.7136 73.6104 14.0912 74.2438 14.4265 74.8948C14.6759 75.3804 14.776 75.9118 14.6355 76.4748C14.3704 77.5323 13.3414 78.0302 12.4195 77.469C11.9086 77.1575 11.4327 76.7599 11.0166 76.327C10.1597 75.435 9.64522 74.3335 9.30106 73.1564C9.22204 72.8855 9.23258 72.5881 9.20273 72.3031L9.20624 72.3048ZM9.80325 72.1641C9.82432 72.4843 9.8173 72.6145 9.84188 72.7394C10.1421 74.228 10.8515 75.4842 12.0016 76.4784C12.2404 76.6842 12.5196 76.8567 12.8058 76.9921C13.3221 77.2367 13.8418 76.9781 14.0104 76.4309C14.1386 76.0139 14.114 75.5986 13.9086 75.2203C13.5574 74.5763 13.2132 73.9253 12.7953 73.3253C12.2896 72.6004 11.9332 71.8192 11.8225 70.9571C11.7189 70.1406 11.4415 69.3366 11.5872 68.492C11.6522 68.1155 11.6786 67.7337 11.7207 67.3536C11.9244 65.5536 12.3546 63.8364 13.5258 62.3865C13.7031 62.1666 13.8611 61.915 13.9665 61.6546C14.2316 61.0018 13.9876 60.5391 13.3098 60.3385C12.5109 60.1009 11.6926 60.3649 11.2466 61.1461C10.7585 62.0012 10.3406 62.9056 9.97006 63.8205C9.69789 64.4927 9.77164 65.1701 10.1369 65.8457C10.553 66.6146 10.5688 67.4363 10.0614 68.1964C9.88051 68.4674 9.81905 68.7102 10.0192 68.9829C10.5091 69.655 10.4494 70.3342 10.1176 71.0609C9.9367 71.4585 9.87349 71.9107 9.80501 72.1623L9.80325 72.1641Z" fill="white"/>
<path d="M68.245 11.3277C68.4996 11.2643 68.756 11.1992 69.0106 11.1359C69.5128 11.2098 70.0185 11.2608 70.5137 11.3646C70.8473 11.4332 71.1475 11.5986 71.4794 12.0807C70.9877 11.9083 70.7033 11.801 70.4136 11.7059C68.3697 11.0409 66.4628 12.4643 66.526 14.6056C66.5629 15.8302 67.4795 16.9915 68.6717 17.2185C69.9781 17.4665 71.1563 17.2044 71.9992 16.0765C72.2011 15.8073 72.3784 15.466 72.4223 15.1387C72.5347 14.2748 72.5136 13.4127 71.9447 12.6701C71.8885 12.5963 71.8517 12.5048 71.813 12.4185C71.8025 12.3957 71.8201 12.3622 71.8236 12.3323C71.878 12.3288 71.957 12.3007 71.9851 12.327C72.8367 13.0942 73.6796 13.8701 74.5312 14.6355C75.0281 15.0824 75.5303 15.5241 76.0448 15.9499C76.9016 16.6607 77.7743 17.3522 78.6277 18.0683C78.8928 18.29 79.1141 18.5627 79.3564 18.8126C79.1562 18.7211 78.9455 18.6489 78.7576 18.5363C78.1378 18.1668 77.4951 18.2073 76.8226 18.3516C75.827 18.5645 74.9385 20.0284 75.6866 21.2935C76.2362 22.226 77.4389 22.6465 78.6189 22.1292C79.5443 21.7228 79.9639 20.6002 79.604 19.5322C79.5232 19.2929 79.4407 19.0536 79.3581 18.8143C79.9832 19.1398 80.215 19.7081 80.2958 20.3609C80.3257 20.609 80.3116 20.8641 80.3169 21.1157C79.978 21.7228 79.4969 22.2049 78.9754 22.6518C78.2783 22.7855 77.5829 22.9175 76.8665 22.8436C76.3345 22.5216 75.755 22.3439 75.1422 22.2682C74.5171 21.7967 73.7796 21.6401 73.0351 21.5011C72.5962 21.1157 72.0606 20.9908 71.5022 20.9257C70.9035 20.5527 70.8894 20.5457 70.5611 21.0929C69.7428 22.46 68.9404 23.8359 68.1239 25.2031C67.5216 26.2148 66.9702 27.2652 66.0466 28.0446C65.7552 28.291 65.4689 28.5426 65.181 28.7924C64.9351 28.8399 64.6876 28.8804 64.4435 28.9367C63.613 29.1267 62.7754 29.22 61.922 29.176C61.6376 28.942 61.2916 29.0018 60.9633 28.9842C60.7456 28.8611 60.5366 28.7115 60.3066 28.6165C59.1143 28.1309 58.2223 27.3021 57.5814 26.2025C57.0055 25.2136 56.9827 24.1315 57.2355 23.0617C57.3848 22.4301 57.4901 21.7351 58.0854 21.3022L58.0941 21.3093C57.9818 21.6753 57.8711 22.043 57.757 22.4072C57.0371 24.7174 57.9115 26.7444 59.8202 27.9813C61.8079 29.2693 64.3487 28.9789 66.0045 27.6294C67.9571 26.0388 68.3785 23.3556 67.0106 21.2424C65.2934 18.5891 61.9132 18.5381 60.0467 19.636C59.4989 19.958 59.0037 20.368 58.484 20.7374L58.4611 20.7199C58.6315 20.4577 58.7649 20.1586 58.9809 19.9404C60.793 18.1035 62.6051 16.2666 64.4523 14.4631C65.2249 13.71 66.0835 13.0449 66.893 12.3306C67.1054 12.1423 67.2828 11.9153 67.4777 11.7077C67.7323 11.5793 67.9887 11.4526 68.2433 11.3241L68.245 11.3277ZM72.9351 14.1446C72.8157 15.1194 72.6049 15.9938 71.9658 16.6519C71.3214 17.3135 70.5031 17.6583 69.5655 17.6759C67.7534 17.7111 66.7104 16.8173 65.9904 14.588C65.1107 15.0261 64.4821 15.7563 63.8395 16.4425C63.1775 17.1498 62.282 17.6161 61.6165 18.6067C62.7649 18.2214 63.6674 18.619 64.5805 18.8565C65.569 19.1117 66.3205 19.7539 66.9825 20.514C67.6164 21.2424 67.8148 22.189 68.2187 23.1216C68.389 22.9263 68.4979 22.8154 68.5892 22.6923C69.2002 21.8758 69.8008 21.0524 70.4153 20.2378C70.8578 19.6518 70.9421 19.6202 71.6181 19.8436C72.2222 20.0424 72.8157 20.2747 73.4144 20.4946C74.4328 20.8694 74.4469 20.8729 74.6945 19.8155C74.8894 18.9832 75.3213 18.3639 76.1185 18.0208C76.2642 17.9574 76.403 17.8783 76.5382 17.7938C76.7489 17.6618 76.7436 17.4929 76.5944 17.3152C76.5329 17.2413 76.4697 17.1692 76.3995 17.1058C75.5039 16.293 74.6102 15.4783 73.7041 14.676C73.4969 14.493 73.2476 14.3593 72.9351 14.1464V14.1446Z" fill="white"/>
<path d="M69.4759 15.3076C69.0018 15.2988 68.619 14.9153 68.6331 14.4578C68.6454 14.0162 69.0475 13.5833 69.4654 13.5622C69.871 13.5429 70.4592 14.0637 70.4522 14.4384C70.4452 14.8625 69.936 15.3164 69.4759 15.3076Z" fill="white"/>
<path d="M76.0237 11.8784C75.7568 11.8555 75.5478 11.6162 75.5724 11.3664C75.597 11.106 75.8341 10.8843 76.0746 10.8931C76.3362 10.9036 76.5803 11.1288 76.5821 11.3611C76.5838 11.6532 76.3134 11.903 76.0255 11.8766L76.0237 11.8784Z" fill="white"/>
<path d="M67.6814 13.9247C67.9272 13.9352 68.1713 14.2027 68.1467 14.4367C68.1204 14.6813 67.8377 14.9117 67.6094 14.8748C67.4057 14.8431 67.2003 14.6144 67.195 14.4103C67.188 14.1657 67.4408 13.9141 67.6831 13.9247H67.6814Z" fill="white"/>
<path d="M70.8139 12.7159C71.0597 12.6965 71.346 12.9165 71.3565 13.1364C71.3653 13.3212 71.1563 13.5411 70.9368 13.5798C70.6822 13.6256 70.4259 13.4215 70.4171 13.1646C70.4083 12.9481 70.5979 12.7335 70.8157 12.7159H70.8139Z" fill="white"/>
<path d="M70.8596 16.0801C70.6348 16.0836 70.4346 15.9006 70.4188 15.6771C70.3995 15.4167 70.6278 15.1862 70.8894 15.2144C71.13 15.2408 71.3038 15.3675 71.3477 15.6138C71.3863 15.832 71.1177 16.0748 70.8596 16.0783V16.0801Z" fill="white"/>
<path d="M69.9272 12.5857C69.9272 12.8004 69.734 12.9992 69.5146 13.0115C69.2916 13.0238 69.0879 12.8531 69.0633 12.6314C69.0352 12.3781 69.2564 12.1458 69.5146 12.1599C69.7323 12.1722 69.9254 12.371 69.9254 12.5857H69.9272Z" fill="white"/>
<path d="M68.1397 12.7177C68.3504 12.7141 68.5629 12.9094 68.5787 13.1206C68.598 13.3739 68.3627 13.6009 68.1081 13.5781C67.8903 13.5569 67.706 13.3493 67.7148 13.1347C67.7235 12.9165 67.9219 12.7212 68.1397 12.7177Z" fill="white"/>
<path d="M68.5769 15.6156C68.5927 15.832 68.4189 16.0413 68.1976 16.0713C67.9781 16.1012 67.7657 15.9428 67.7235 15.7229C67.6761 15.4713 67.8815 15.2179 68.1379 15.2144C68.3486 15.2109 68.5611 15.4062 68.5769 15.6173V15.6156Z" fill="white"/>
<path d="M69.9272 16.2226C69.9324 16.4372 69.7463 16.6396 69.5251 16.6572C69.3003 16.6748 69.0966 16.5111 69.065 16.2894C69.0299 16.0361 69.2459 15.7985 69.504 15.8056C69.72 15.8126 69.9202 16.0114 69.9254 16.2226H69.9272Z" fill="white"/>
<path d="M71.3407 14.8326C71.1194 14.815 70.9473 14.6144 70.9579 14.3857C70.9667 14.164 71.1633 13.9634 71.3723 13.9616C71.6146 13.9616 71.8499 14.2291 71.8113 14.4596C71.7779 14.6619 71.5426 14.8467 71.3424 14.8308L71.3407 14.8326Z" fill="white"/>
<path d="M74.3819 14.0056C75.0053 14.1833 75.3547 14.6848 75.7252 15.1563L75.7094 15.1739C75.0773 15.0032 74.7489 14.4807 74.3661 14.0197L74.3802 14.0056H74.3819Z" fill="white"/>
<path d="M75.7269 15.1581C76.266 15.2918 76.5663 15.7123 76.8788 16.1188L76.8595 16.1381C76.3239 16.0009 76.0131 15.5944 75.7111 15.1757L75.7269 15.1581Z" fill="white"/>
<path d="M78.2028 17.2836C77.748 17.1956 77.4828 16.8701 77.2476 16.5111L77.2511 16.5076C77.7129 16.585 77.971 16.9176 78.2133 17.273L78.2028 17.2836Z" fill="white"/>
<path d="M78.2151 17.273L78.2522 17.3207L78.2028 17.2836L78.2151 17.273Z" fill="white"/>
<path d="M77.2476 16.5111C77.1808 16.4478 77.1159 16.3862 77.0491 16.3229L77.0632 16.3088C77.1264 16.3757 77.1879 16.4408 77.2511 16.5076L77.2476 16.5111Z" fill="white"/>
<path d="M77.0509 16.3246C76.9877 16.263 76.9227 16.1997 76.8595 16.1381L76.8788 16.1188C76.9403 16.1821 77.0035 16.2472 77.0649 16.3106L77.0509 16.3246Z" fill="white"/>
<path d="M74.3679 14.0214C74.3046 13.9581 74.2397 13.893 74.1765 13.8297L74.1905 13.8156C74.2537 13.8789 74.3187 13.944 74.3819 14.0074L74.3679 14.0214Z" fill="white"/>
<path d="M74.1765 13.8297L74.1396 13.7786L74.1905 13.8138L74.1765 13.8297Z" fill="white"/>
<path d="M61.0406 33.0909C60.9071 32.9501 60.7333 32.8481 60.7385 32.7548C60.7491 32.5419 60.951 32.4504 61.1389 32.4909C61.26 32.5173 61.3566 32.6528 61.4637 32.7407C61.3373 32.8463 61.2109 32.9501 61.0423 33.0909H61.0406Z" fill="white"/>
<path d="M58.0889 21.3022C58.117 21.0471 58.2452 20.8536 58.4646 20.7216L58.4875 20.7392C58.4471 20.9908 58.3277 21.1879 58.0977 21.3093L58.0889 21.3022Z" fill="white"/>
<path d="M66.1309 12.4678L66.1818 12.4344L66.1502 12.4872L66.1309 12.4678Z" fill="white"/>
<path d="M64.0326 62.7842C64.0326 61.7619 64.0203 60.7379 64.0361 59.7156C64.0484 58.8939 64.1854 58.762 64.972 58.7303C66.1731 58.681 67.3126 58.8799 68.3732 59.4974C69.2055 59.9831 69.6462 60.7361 69.9202 61.6071C70.317 62.8704 70.0764 64.0598 69.4338 65.1947C69.1177 65.7507 68.6208 66.1008 68.0835 66.3771C67.0036 66.9313 65.8377 67.0703 64.6402 66.9577C64.2416 66.9208 64.0993 66.7536 64.0519 66.3313C64.0274 66.1096 64.0326 65.8844 64.0326 65.661C64.0309 64.702 64.0326 63.7431 64.0326 62.7842Z" fill="white"/>
<path d="M20.0876 24.3638C21.0094 24.3691 21.9278 24.3374 22.8373 24.5908C24.221 24.9743 25.0427 25.803 25.1709 27.2634C25.199 27.5784 25.2552 27.8951 25.2324 28.2065C25.1182 29.7866 24.2034 30.705 22.7285 31.078C21.2711 31.4475 19.7768 31.5408 18.2755 31.4651C17.8014 31.4422 17.6732 31.305 17.6644 30.793C17.6451 29.5807 17.6539 28.3684 17.6539 27.1543C17.6539 26.484 17.6416 25.8136 17.6609 25.1432C17.6802 24.4817 17.7803 24.3867 18.4634 24.3655C19.0042 24.3497 19.5468 24.362 20.0876 24.362V24.3638Z" fill="white"/>
<path d="M17.6574 14.5616C17.6574 13.7311 17.6434 12.8989 17.6627 12.0684C17.6767 11.4561 17.7961 11.3189 18.3966 11.3241C19.0955 11.3312 19.8031 11.347 20.4879 11.4667C22.5248 11.8256 23.2552 13.3687 23.0147 15.2144C22.8321 16.6167 21.7575 17.6706 20.3475 17.829C19.6539 17.9064 18.9445 17.873 18.2439 17.8519C17.8172 17.8396 17.682 17.697 17.6715 17.2466C17.6504 16.3528 17.6644 15.4572 17.6644 14.5616C17.6644 14.5616 17.6609 14.5616 17.6574 14.5616Z" fill="white"/>
<path d="M22.2579 64.607C21.8839 63.8065 21.8804 63.5777 22.2228 63.3173C22.502 63.1044 22.8268 63.1062 23.1007 63.3226C23.4712 63.6164 23.4712 63.9032 23.1253 64.5296C23.7434 64.8393 24.4229 65.0663 24.969 65.4727C27.2921 67.2005 26.7548 70.4415 24.9304 71.6169C24.3018 72.0216 23.6556 72.2996 22.9023 72.3752C20.8883 72.574 19.013 70.6527 18.8321 68.8333C18.6846 67.3624 19.6679 65.7296 21.113 65.0592C21.4835 64.8868 21.8751 64.7566 22.2579 64.607Z" fill="white"/>
<path d="M10.8129 64.1214C11.1448 64.1408 11.4503 64.424 11.4468 64.7126C11.4433 65.1014 11.0728 65.4586 10.7111 65.4217C10.3493 65.3847 10.0385 65.0451 10.0737 64.7214C10.1088 64.3871 10.46 64.1003 10.8129 64.1214Z" fill="white"/>
<path d="M10.8147 73.0913C10.4687 73.1142 10.1053 72.8239 10.0701 72.4984C10.0368 72.1781 10.3493 71.835 10.7093 71.7981C11.0675 71.7611 11.4415 72.055 11.4468 72.3787C11.452 72.7271 11.1483 73.0685 10.8147 73.0913Z" fill="white"/>
<path d="M74.5119 18.9005C74.5382 19.3457 74.1501 19.7627 73.7041 19.7715C73.281 19.7803 72.7805 19.3844 72.7454 19.0149C72.7085 18.6278 73.1493 18.1563 73.5707 18.1299C73.9816 18.1052 74.4908 18.5222 74.5119 18.9005Z" fill="white"/>
<path d="M65.9027 17.1639C65.9132 17.4102 65.6972 17.6249 65.4303 17.6355C65.1652 17.646 64.9404 17.4472 64.9316 17.1921C64.9211 16.9334 65.1318 16.7205 65.3987 16.7205C65.6726 16.7205 65.8939 16.9141 65.9044 17.1621L65.9027 17.1639Z" fill="white"/>
<path d="M62.6314 20.7216C63.4409 20.66 64.1327 20.9363 64.7701 21.4061C66.6647 22.8031 66.087 25.5268 64.5945 26.4752C62.5102 27.7983 59.8799 26.8288 59.3145 24.2864C59.16 23.5931 59.3356 22.9175 59.7113 22.3667C60.3996 21.3568 61.2916 20.6037 62.6332 20.7216H62.6314ZM64.5137 23.8095C64.4066 22.8436 63.8834 22.1538 62.6858 22.1099C61.5972 22.0694 60.7737 22.8401 60.8053 23.8342C60.8439 25.0746 61.5234 25.5796 62.7051 25.6605C63.6656 25.7274 64.5278 24.7773 64.5137 23.8095Z" fill="white"/>
<path d="M77.978 20.1762C77.9692 20.4823 77.7743 20.6882 77.5513 20.6794C77.3494 20.6723 77.1826 20.5791 77.1668 20.3504C77.1475 20.1005 77.3986 19.8296 77.6356 19.8894C77.7813 19.9263 77.8937 20.1005 77.978 20.1762Z" fill="white"/>
<path d="M76.3731 20.5738C76.2484 20.4806 76.1606 20.4137 76.0746 20.3486C76.1642 20.2853 76.2502 20.1762 76.345 20.1691C76.4398 20.1621 76.5417 20.2553 76.6418 20.3029C76.5627 20.382 76.4855 20.4612 76.3749 20.5738H76.3731Z" fill="white"/>
<path d="M77.4934 19.3985C77.4811 19.2313 77.4583 19.087 77.4723 18.9463C77.4758 18.9111 77.6058 18.89 77.676 18.8618C77.6918 19.0061 77.7164 19.1486 77.7164 19.2929C77.7164 19.3175 77.6145 19.3422 77.4916 19.3967L77.4934 19.3985Z" fill="white"/>
<path d="M77.5531 21.8301C77.518 21.6225 77.4776 21.5099 77.4934 21.4078C77.5004 21.3621 77.6233 21.3339 77.6918 21.297C77.7216 21.3814 77.7831 21.4694 77.7743 21.5486C77.7655 21.6172 77.6777 21.677 77.5531 21.8301Z" fill="white"/>
<path d="M78.8876 20.5791C78.7629 20.4542 78.6839 20.375 78.6049 20.2958C78.7085 20.2483 78.8086 20.1744 78.9157 20.1639C78.9877 20.1568 79.0684 20.2395 79.1439 20.2835C79.0719 20.3662 78.9982 20.4507 78.8876 20.5791Z" fill="white"/>
<path d="M78.7401 19.2999C78.575 19.4266 78.4222 19.5463 78.2642 19.6606C78.2589 19.6642 78.208 19.6272 78.2028 19.6026C78.1694 19.4565 78.4697 19.1539 78.6189 19.1821C78.6435 19.1873 78.661 19.2208 78.7401 19.2999Z" fill="white"/>
<path d="M76.5891 19.0431C76.7208 19.2172 76.8384 19.3738 76.9526 19.5322C76.9561 19.5375 76.9174 19.5885 76.8946 19.5938C76.7489 19.6254 76.4469 19.3211 76.4767 19.1733C76.482 19.1486 76.5136 19.1293 76.5891 19.0448V19.0431Z" fill="white"/>
<path d="M78.7383 21.2055C78.6558 21.2776 78.6347 21.311 78.6101 21.3146C78.4574 21.3374 78.1641 21.0348 78.2063 20.8958C78.2133 20.8729 78.2642 20.8377 78.2712 20.843C78.4258 20.9591 78.575 21.0788 78.7383 21.2072V21.2055Z" fill="white"/>
<path d="M76.6137 21.4536C76.5276 21.3832 76.4925 21.3691 76.4855 21.3462C76.4451 21.2108 76.7383 20.9028 76.8876 20.924C76.9122 20.9275 76.9526 20.975 76.9508 20.9785C76.8419 21.1369 76.7278 21.2934 76.6119 21.4553L76.6137 21.4536Z" fill="white"/>
</svg>
