<svg width="32" height="31" viewBox="0 0 32 31" fill="none" xmlns="http://www.w3.org/2000/svg">
<path d="M31.3601 15.36C31.3601 23.8431 24.4832 30.72 16.0001 30.72C7.51704 30.72 0.640137 23.8431 0.640137 15.36C0.640137 6.87691 7.51704 0 16.0001 0C24.4832 0 31.3601 6.87691 31.3601 15.36Z" fill="white"/>
<path d="M5.79857 11.0016C5.85617 10.8416 5.91377 10.6816 5.95857 10.5408C8.01937 12.5888 10.0738 14.6368 12.141 16.6848C10.0866 18.7264 8.03217 20.768 5.96497 22.8224C5.91377 22.688 5.85617 22.5216 5.79857 22.3616C5.79857 18.5728 5.79857 14.7904 5.79857 11.0016Z" fill="#0065FF"/>
<path d="M6.86091 9.5936C7.11691 9.5552 7.3793 9.4848 7.6353 9.4848C10.4129 9.4784 13.1841 9.4848 15.9617 9.4848C18.7777 9.4848 21.5937 9.4848 24.4033 9.4848C24.6593 9.4848 24.9217 9.5552 25.2289 9.6C25.1393 9.7024 25.1009 9.7472 25.0625 9.7856C22.2401 12.6208 19.4177 15.4624 16.5953 18.2976C16.2177 18.6752 15.8273 18.6752 15.4497 18.2976C12.6273 15.4624 9.8049 12.6272 6.97611 9.792C6.93771 9.7536 6.88651 9.728 6.84811 9.696C6.84811 9.664 6.86091 9.6256 6.86731 9.5936H6.86091Z" fill="#0065FF"/>
<path d="M6.8417 23.7056C8.9153 21.6448 10.9697 19.6032 13.0177 17.568C13.5553 18.0992 14.1057 18.6496 14.6625 19.2C15.2641 19.7952 16.0897 19.9616 16.8257 19.5968C17.0561 19.4816 17.2673 19.3024 17.4593 19.1232C17.9969 18.6112 18.5217 18.08 19.0273 17.5744C21.0753 19.616 23.1297 21.6512 25.2289 23.7376C24.9857 23.7952 24.7873 23.84 24.5889 23.8848C24.5185 23.8976 24.4417 23.8848 24.3713 23.8848C18.8097 23.8848 13.2481 23.8848 7.6929 23.8848C7.4113 23.8848 7.1425 23.8528 6.8545 23.7056H6.8417Z" fill="#0065FF"/>
<path d="M19.8786 16.672C21.9458 14.6176 24.0002 12.576 26.061 10.528C26.1826 10.7456 26.2402 10.9952 26.2402 11.264C26.2402 12.7808 26.2402 14.304 26.2402 15.8208C26.2402 17.9072 26.2402 19.9936 26.2402 22.08C26.2402 22.336 26.157 22.592 26.1122 22.8544C24.0194 20.7744 21.965 18.7328 19.885 16.6656L19.8786 16.672Z" fill="#0065FF"/>
</svg>
