<svg width="35" height="34" viewBox="0 0 35 34" fill="none" xmlns="http://www.w3.org/2000/svg">
<path fill-rule="evenodd" clip-rule="evenodd" d="M7.90332 0C4.03733 0 0.90332 3.13401 0.90332 7V27C0.90332 30.866 4.03732 34 7.90332 34H27.1322C30.9982 34 34.1322 30.866 34.1322 27V7C34.1322 3.13401 30.9982 0 27.1322 0H7.90332ZM2.90332 7C2.90332 4.23858 5.1419 2 7.90332 2H27.1322C29.8937 2 32.1322 4.23858 32.1322 7V27C32.1322 29.7614 29.8937 32 27.1322 32H7.90332C5.14189 32 2.90332 29.7614 2.90332 27V7ZM4.97925 7.24422V25.8784L4.97513 25.8742C4.9973 25.9348 5.01735 25.9965 5.03737 26.058C5.07311 26.168 5.10878 26.2777 5.15628 26.3805C5.58446 27.3002 6.30907 27.722 7.29717 27.722C8.74845 27.7178 10.2008 27.7178 11.6531 27.7178C13.1054 27.7178 14.5577 27.7178 16.0089 27.7136C16.2889 27.7136 16.4701 27.7938 16.6594 28.0089C18.0593 29.6078 19.8008 30.5359 21.884 30.7933C21.9241 30.7962 21.9622 30.8094 22.0011 30.8228L22.0177 30.8284L22.0317 30.8331C22.0387 30.8354 22.0457 30.8376 22.0528 30.8397H23.6338C23.78 30.8082 23.9267 30.7794 24.0734 30.7507L24.0736 30.7506L24.0737 30.7506L24.0739 30.7506L24.0741 30.7505L24.0742 30.7505L24.0744 30.7505L24.0745 30.7504L24.0748 30.7504C24.3407 30.6982 24.6065 30.646 24.8689 30.5781C28.0803 29.7428 30.4888 27.0302 30.9746 23.6594C31.378 20.8328 30.567 18.3944 28.6361 16.3483C28.5208 16.2259 28.4714 16.1078 28.4714 15.9391V7.645C28.4714 6.56078 27.7838 5.67906 26.7587 5.43859C26.5569 5.39219 26.3387 5.37953 26.1288 5.37953C25.654 5.37672 25.1774 5.37766 24.7014 5.37859H24.7013H24.7012H24.7012H24.7011H24.701H24.7009H24.7008H24.7007L24.7003 5.3786C24.4626 5.37906 24.225 5.37953 23.9879 5.37953H23.6997C23.6461 4.67922 23.2633 4.27422 22.6663 4.05062H22.1064C21.6617 4.21094 21.3076 4.46406 21.143 4.94078L21.1391 4.95334C21.1153 5.03013 21.0894 5.11391 21.0894 5.19391C21.0853 5.34578 21.0194 5.38375 20.8836 5.38375H12.5135C12.4933 5.38375 12.4718 5.37997 12.4484 5.37585C12.429 5.37243 12.4083 5.36879 12.3859 5.36688C12.3365 4.675 11.9536 4.27422 11.3525 4.05484H10.7926C10.315 4.23203 9.94034 4.51469 9.8086 5.04625C9.78807 5.11836 9.7759 5.19048 9.76167 5.27478L9.76166 5.27483C9.75591 5.30888 9.74983 5.34492 9.74272 5.38375H9.45041C9.21753 5.38493 8.98465 5.3838 8.75186 5.38266H8.75185H8.75184H8.75183H8.75182H8.7518H8.75179H8.75178H8.75177H8.75175C8.15324 5.37975 7.55534 5.37683 6.95957 5.41328C6.00852 5.46812 5.26333 6.16 5.03277 7.105C5.02536 7.13284 5.0135 7.16069 5.00164 7.18853L5.00163 7.18855C4.99373 7.20711 4.98583 7.22566 4.97925 7.24422ZM17.1453 16.1373C14.2262 19.3563 13.7569 22.9042 15.7331 26.8234H14.7862H7.21895C6.41611 26.8234 5.85207 26.2581 5.85207 25.4312V12.2983C5.85207 12.2748 5.85384 12.2504 5.85575 12.2242C5.85794 12.194 5.8603 12.1615 5.8603 12.1253H27.5821V15.4159C25.1324 13.7495 22.5387 13.4373 19.772 14.4583C19.772 14.3866 19.7724 14.3174 19.7729 14.2498V14.2497V14.2496V14.2495V14.2493V14.2492V14.2491V14.249V14.2488C19.7738 14.1177 19.7747 13.9927 19.772 13.8677C19.7555 13.3741 19.4467 13.0112 18.9691 12.9902C18.3474 12.9648 17.7258 12.9648 17.1082 12.9902C16.6142 13.007 16.3013 13.3741 16.293 13.8803C16.2903 14.1617 16.2912 14.4411 16.2921 14.72V14.7202C16.2926 14.8594 16.293 14.9984 16.293 15.1375C16.2971 15.6944 16.5318 15.9855 17.0588 16.1078C17.0813 16.1136 17.1019 16.1213 17.1206 16.1283C17.1292 16.1316 17.1374 16.1347 17.1453 16.1373ZM27.5986 10.5138V11.1677H5.85207V10.9103C5.85207 10.5884 5.85363 10.2665 5.85519 9.94454C5.8587 9.22021 5.86221 8.49589 5.84795 7.77156C5.83148 6.81812 6.52727 6.24016 7.28894 6.28656C7.6554 6.31003 8.02585 6.30494 8.40997 6.29966C8.57822 6.29735 8.7491 6.295 8.92342 6.295C8.51171 6.96156 8.33879 7.63656 8.54877 8.38328C8.71345 8.95281 9.01812 9.42109 9.47923 9.77969C10.4015 10.5011 11.8013 10.4884 12.7029 9.75438C13.7363 8.91484 13.9092 7.82641 13.2546 6.30766H20.2248C19.8378 6.93625 19.6526 7.58172 19.8502 8.30313C20.0108 8.89375 20.3154 9.38734 20.793 9.75438C21.7852 10.518 23.0945 10.4927 24.0414 9.69953C25.046 8.85578 25.2189 7.75469 24.5643 6.31609C24.7659 6.31609 24.9676 6.31152 25.1689 6.30696C25.6376 6.29634 26.1044 6.28575 26.5652 6.33297C27.1333 6.38781 27.5533 6.88984 27.5739 7.48047C27.6006 8.20863 27.5995 8.93899 27.5983 9.66996C27.5979 9.95116 27.5974 10.2325 27.5986 10.5138ZM22.8021 29.9538C18.7303 29.9453 15.4284 26.5366 15.4284 22.3558H15.4243C15.4284 18.1708 18.7345 14.7789 22.8104 14.7789C26.8863 14.7789 30.1964 18.1666 30.2088 22.3516C30.2211 26.5197 26.8657 29.9622 22.8021 29.9538ZM9.77566 8.84734C9.21985 8.23141 9.19927 7.20625 9.77154 6.74219V6.74641C9.73449 7.31172 9.77978 7.83063 10.2285 8.21031C10.4756 8.41703 10.7555 8.5225 11.0725 8.5225C11.5172 8.51406 11.8713 8.32422 12.1389 7.95719C12.3847 7.62268 12.3797 7.23311 12.3746 6.83299L12.3735 6.74641C12.8758 7.14297 12.9952 8.17234 12.353 8.86422C11.6695 9.6025 10.455 9.59828 9.77566 8.84734ZM23.6873 7.23156V6.71688C24.2843 7.36234 24.2184 8.28625 23.572 8.91906C22.8763 9.59406 21.7564 9.55609 21.1059 8.83047C20.5336 8.19344 20.5048 7.26953 21.0812 6.72531C21.0812 6.80349 21.0797 6.876 21.0782 6.94482V6.94495V6.94508V6.94521C21.0756 7.07305 21.0732 7.18817 21.0812 7.30328C21.1347 8.00359 21.7193 8.53938 22.4028 8.5225C23.1068 8.50562 23.6708 7.93609 23.6873 7.23156ZM17.5229 15.2134C17.4085 15.2092 17.2922 15.205 17.1741 15.205H17.17V13.9056H18.895C18.895 13.9939 18.9016 14.0855 18.9083 14.1775C18.9239 14.3934 18.9396 14.6111 18.8703 14.7916C18.7962 14.9814 18.5039 15.1459 18.2857 15.1881C18.0415 15.2323 17.7872 15.223 17.5229 15.2134ZM10.6402 7.10922V6.29922C10.6402 6.20258 10.6398 6.10641 10.6393 6.01055V6.01029V6.01002V6.00975V6.00949V6.00923V6.00896V6.0087V6.00844C10.6384 5.81626 10.6375 5.62532 10.6402 5.43438C10.6444 5.15172 10.8296 4.945 11.0684 4.945C11.3072 4.945 11.5048 5.1475 11.5048 5.43016C11.5131 5.99547 11.5131 6.565 11.5048 7.13031C11.5007 7.42141 11.3196 7.61125 11.0725 7.61125C10.8132 7.61547 10.6444 7.42141 10.6402 7.10922ZM21.9531 6.56047V6.56V6.55954C21.9536 6.46141 21.954 6.36344 21.954 6.26547H21.9499C21.9499 6.17266 21.9494 6.07984 21.949 5.98703V5.98674C21.9481 5.80121 21.9472 5.61568 21.9499 5.43016C21.9581 5.15594 22.1228 4.96609 22.3575 4.94922C22.5839 4.93656 22.798 5.12219 22.8063 5.38797C22.8227 5.98703 22.8227 6.59031 22.8063 7.18937C22.798 7.45937 22.5881 7.62813 22.3493 7.61125C22.1187 7.59859 21.9581 7.42141 21.954 7.15562C21.9513 6.95618 21.9522 6.75861 21.9531 6.56165V6.56151V6.56136V6.56121V6.56106V6.56091V6.56077V6.56062V6.56047ZM8.1703 25.0441H8.17075H8.17121H8.17165H8.1721H8.17254H8.17297H8.1734C8.27117 25.0436 8.3688 25.0431 8.46642 25.0431C8.56249 25.0431 8.65856 25.0436 8.75462 25.0441H8.75491C8.94695 25.045 9.13898 25.0459 9.33101 25.0431C9.79625 25.0347 10.1544 24.7352 10.1874 24.2542C10.2203 23.7437 10.2203 23.2248 10.1874 22.7144C10.1586 22.2377 9.80036 21.9212 9.33513 21.9128C8.7505 21.9002 8.16176 21.9002 7.57713 21.9128C7.07896 21.9255 6.72078 22.3178 6.71666 22.8283C6.71254 23.2713 6.70843 23.7184 6.71666 24.1614C6.72489 24.6592 7.0872 25.0305 7.57302 25.0431C7.77314 25.0459 7.97144 25.045 8.16914 25.0441H8.16928H8.16943H8.16957H8.16972H8.16986H8.17001H8.17015H8.1703ZM9.30631 24.1319H7.61007V22.8367H9.30631V24.1319ZM8.72525 12.9766L8.7258 12.9766C8.90695 12.9756 9.08811 12.9747 9.26926 12.9775C9.85388 12.9944 10.1997 13.3403 10.2121 13.9436C10.2203 14.3444 10.2203 14.7452 10.2121 15.1459C10.1997 15.745 9.85389 16.1078 9.27338 16.1162C8.72992 16.1247 8.18646 16.1289 7.64301 16.1162C7.0625 16.1036 6.72078 15.7323 6.72078 15.1333V13.9056C6.72489 13.3825 7.05014 13.0155 7.56478 12.9817C7.7621 12.9705 7.95942 12.9742 8.15795 12.978C8.25767 12.9798 8.3577 12.9817 8.45819 12.9817V12.9775H8.45407C8.54447 12.9775 8.63486 12.977 8.72525 12.9766ZM7.60184 15.1923H9.30631V13.9098H7.60184V15.1923ZM12.9705 16.1214C13.0584 16.1209 13.1462 16.1205 13.234 16.1205H13.2299C13.323 16.1205 13.4162 16.1214 13.5093 16.1223L13.5099 16.1223C13.6965 16.1242 13.8831 16.1261 14.0698 16.1205C14.6215 16.0994 14.9673 15.7619 14.9838 15.2092C14.9961 14.7452 15.0003 14.2811 14.9797 13.8212C14.9632 13.3614 14.6544 13.0155 14.2139 12.9944C13.5675 12.9648 12.9211 12.9648 12.2789 12.9944C11.8219 13.0155 11.509 13.3994 11.509 13.8719V15.1291C11.509 15.745 11.8424 16.1036 12.4435 16.1205C12.6191 16.1233 12.7947 16.1223 12.9703 16.1214H12.9705ZM12.39 13.9098H14.0986V15.1881H12.39V13.9098ZM8.46231 17.4494H9.35572C9.77978 17.4578 10.1503 17.7531 10.1791 18.1834C10.2203 18.7192 10.2203 19.2634 10.1874 19.7992C10.1586 20.2591 9.79213 20.5713 9.34337 20.5797C8.75874 20.5881 8.16999 20.5923 7.58537 20.5797C7.09132 20.5713 6.72901 20.1789 6.72078 19.6684C6.71666 19.2255 6.71666 18.7783 6.72078 18.3353C6.72901 17.8248 7.09955 17.4536 7.59772 17.4494H8.46231ZM7.60595 18.3564V19.6558H9.30219V18.3564H7.60595ZM12.682 19.6802H12.6816H12.6811H12.6807H12.6802C12.5861 19.6806 12.4922 19.6811 12.3982 19.6811V19.6684V18.3311C12.5933 18.3311 12.786 18.3316 12.9772 18.332H12.9777C13.3553 18.333 13.727 18.3339 14.0986 18.3311C14.3662 18.3311 14.5597 18.1328 14.5597 17.8839C14.5597 17.635 14.3621 17.4452 14.0904 17.4452C13.8982 17.4452 13.7061 17.4447 13.514 17.4442H13.5134C13.1293 17.4433 12.7453 17.4423 12.3612 17.4452C11.8795 17.4494 11.5131 17.8291 11.509 18.3269C11.5062 18.628 11.5071 18.9309 11.508 19.2333V19.2338V19.2342V19.2347V19.2352C11.5085 19.3855 11.509 19.5356 11.509 19.6853C11.5131 20.1789 11.8754 20.5586 12.3571 20.5797C12.6453 20.5923 12.9335 20.6008 13.2217 20.5755C13.3452 20.567 13.5057 20.5038 13.5716 20.4109C13.6457 20.3013 13.6704 20.1241 13.6498 19.9848C13.6169 19.7823 13.4481 19.6853 13.2546 19.6811C13.0625 19.6783 12.8722 19.6792 12.6825 19.6802H12.6824H12.6823H12.6821H12.682ZM12.3982 24.1488H13.6416C13.9422 24.1488 14.1192 24.3259 14.1151 24.6044C14.111 24.8702 13.938 25.0347 13.6498 25.0389C13.2176 25.0431 12.7853 25.0473 12.3488 25.0389C11.8754 25.0305 11.5172 24.655 11.509 24.1741C11.5062 23.873 11.5071 23.57 11.508 23.2677V23.2672V23.2667V23.2662C11.5085 23.1158 11.509 22.9655 11.509 22.8156C11.509 22.3178 11.863 21.9381 12.3488 21.9128C12.637 21.9002 12.9252 21.9044 13.2134 21.9128C13.4893 21.9213 13.6828 22.1111 13.691 22.3558C13.6993 22.6005 13.514 22.7988 13.234 22.8198C13.1311 22.8289 13.0282 22.8272 12.9252 22.8254C12.8841 22.8248 12.8429 22.8241 12.8017 22.8241H12.3982V24.1488ZM22.8063 15.6648C19.1997 15.6691 16.293 18.6517 16.293 22.3642C16.2889 26.0556 19.1956 29.0594 22.7816 29.0678C26.4005 29.0763 29.3442 26.0809 29.3442 22.3811C29.3483 18.6812 26.4128 15.6648 22.8063 15.6648ZM26.0217 17.6013C26.5899 17.9936 27.0592 18.483 27.4586 19.0736L27.4421 19.0778C26.8822 19.4659 26.7875 19.6178 26.9316 19.9005C27.0757 20.1831 27.2445 20.1831 27.9526 19.8752C28.0277 20.1578 28.1028 20.4382 28.1788 20.7221L28.179 20.723C28.2822 21.1083 28.3871 21.5001 28.4961 21.9128C28.4228 21.9128 28.3609 21.9122 28.306 21.9117H28.306L28.3056 21.9117H28.3055H28.3055C28.2127 21.9108 28.1403 21.9102 28.0679 21.9128C27.7838 21.9212 27.5986 22.09 27.5903 22.3473C27.5821 22.6216 27.755 22.803 28.0556 22.8241C28.1274 22.8295 28.1975 22.8279 28.2771 22.8261H28.2771H28.2771H28.2772H28.2773C28.3207 22.8251 28.367 22.8241 28.4179 22.8241C28.3808 23.5455 28.1914 24.1994 27.8991 24.8491C27.8343 24.8203 27.7691 24.7838 27.704 24.7473C27.4346 24.5963 27.1671 24.4463 26.9316 24.8575C26.7793 25.1191 26.8863 25.2709 27.4421 25.6548C27.0633 26.2413 26.5775 26.7222 26.0052 27.1398C25.9681 27.0847 25.9337 27.0241 25.8994 26.9635C25.747 26.6947 25.5939 26.4247 25.1942 26.6209C24.9224 26.7559 24.9348 26.9584 25.2065 27.5786C24.8154 27.8444 23.8108 28.1313 23.2509 28.1228C23.2509 28.0833 23.2518 28.0442 23.2528 28.0053V28.0053C23.2546 27.928 23.2564 27.8512 23.2509 27.7727C23.2344 27.4605 23.0656 27.2833 22.8021 27.2833C22.5387 27.2875 22.3699 27.4773 22.3616 27.7853V28.1313C21.6658 28.0933 21.0277 27.8992 20.3936 27.5997C20.4209 27.5319 20.4572 27.4626 20.4936 27.3929L20.4937 27.3929L20.4937 27.3928C20.6387 27.1156 20.7868 26.8325 20.3854 26.6167C20.0207 26.4231 19.8696 26.6863 19.7193 26.9481C19.6829 27.0114 19.6466 27.0747 19.6073 27.1314C19.0309 26.7348 18.5657 26.2413 18.1745 25.6675C18.7468 25.2077 18.8209 25.0811 18.6603 24.8111C18.5039 24.5453 18.3063 24.5495 17.7217 24.8406C17.4211 24.212 17.24 23.5539 17.1988 22.8367C17.2643 22.8292 17.3325 22.8264 17.4004 22.8235C17.7117 22.8107 18.0154 22.7981 18.0222 22.3305C18.0304 22.0309 17.8657 21.9508 17.2029 21.8833C17.2317 21.183 17.4211 20.5291 17.7175 19.8836C17.7816 19.9121 17.8456 19.9472 17.9093 19.9821L17.9094 19.9822C18.1855 20.1336 18.455 20.2815 18.6892 19.8667C18.8374 19.6052 18.7221 19.4406 18.1745 19.0778C18.5533 18.4914 19.035 18.0147 19.6155 17.5886C19.6407 17.6316 19.6644 17.6741 19.6877 17.7158C19.733 17.7968 19.7766 17.8748 19.8255 17.9472C19.9778 18.1792 20.2084 18.2383 20.4225 18.1117C20.6283 17.9894 20.6942 17.7362 20.583 17.4958C20.5443 17.4098 20.498 17.3264 20.4441 17.2293C20.4292 17.2026 20.4138 17.1748 20.3978 17.1456C21.0112 16.8166 21.6576 16.6562 22.3493 16.593C22.3591 16.6649 22.3624 16.742 22.3657 16.8192C22.3792 17.1316 22.3928 17.4469 22.8351 17.4367C23.2394 17.4267 23.2512 17.131 23.2632 16.8323C23.2663 16.7538 23.2694 16.6752 23.2797 16.6014C23.9673 16.6394 24.5972 16.8334 25.2271 17.1287C25.1994 17.2007 25.1616 17.2731 25.1238 17.3453C24.9825 17.6159 24.8421 17.8846 25.2353 18.1244C25.4947 18.2805 25.6347 18.1792 26.0217 17.6013ZM24.1278 18.7994C24.4613 18.8036 24.6466 19.1242 24.5025 19.4786L24.3522 19.8447L24.3522 19.8447C24.0611 20.5546 23.7694 21.2657 23.4568 21.9677C23.3538 22.1997 23.3868 22.3305 23.5597 22.495C23.9 22.823 24.2265 23.1623 24.5528 23.5013C24.6252 23.5766 24.6976 23.6518 24.7701 23.7269C25.0295 23.9969 25.0583 24.25 24.8648 24.4567C24.6672 24.6677 24.4119 24.6423 24.1526 24.3766C23.977 24.1967 23.8015 24.0159 23.6259 23.835C23.2741 23.4727 22.9217 23.1097 22.5675 22.7523C22.374 22.5583 22.3328 22.36 22.444 22.0942C22.8639 21.1155 23.2715 20.1325 23.675 19.1495C23.7614 18.9386 23.8849 18.7952 24.1237 18.7952L24.1278 18.7994Z" fill="#12B1BB"/>
</svg>
