<svg width="42" height="42" viewBox="0 0 42 42" fill="none" xmlns="http://www.w3.org/2000/svg">
<g clip-path="url(#clip0_2466_1401)">
<path d="M0.236055 34.0335C0.236055 24.3735 0.236055 14.7135 0.236055 5.04691C0.262305 4.97473 0.30168 4.90254 0.321367 4.83035C0.688867 3.36035 1.87668 2.2841 3.39262 2.19879C4.71168 2.12004 6.0373 2.15941 7.36293 2.15285C7.52043 2.15285 7.67793 2.15285 7.82887 2.15285C7.86824 1.94285 7.88793 1.78535 7.93387 1.62785C8.14387 0.800977 8.74105 0.361289 9.5023 0.0856641H10.3948C11.3529 0.426914 11.9632 1.05035 12.042 2.1266C12.1207 2.13316 12.1864 2.15285 12.2454 2.15285C16.6948 2.15285 21.1376 2.15285 25.587 2.15285C25.8036 2.15285 25.9086 2.09379 25.9151 1.85754C25.9151 1.72629 25.9611 1.58848 26.0004 1.46379C26.2629 0.722227 26.8273 0.328477 27.5361 0.0791016H28.4286C29.3801 0.426914 29.9904 1.05691 30.0757 2.14629C30.2464 2.14629 30.3907 2.14629 30.5351 2.14629C31.6704 2.14629 32.8123 2.13973 33.9476 2.14629C34.2823 2.14629 34.6301 2.16598 34.9517 2.23816C36.5857 2.61223 37.6817 3.98379 37.6817 5.67035C37.6817 9.96879 37.6817 14.2738 37.6817 18.5722C37.6817 18.8347 37.7604 19.0185 37.9442 19.2088C41.022 22.3916 42.3148 26.1847 41.6717 30.5816C40.8973 35.825 37.0582 40.0447 31.9395 41.3441C31.2898 41.5082 30.627 41.6132 29.9707 41.751H27.4507C27.3589 41.7247 27.2736 41.6854 27.1817 41.6788C23.8611 41.2785 21.0851 39.8347 18.8539 37.3475C18.552 37.0129 18.2632 36.8882 17.817 36.8882C13.1904 36.9013 8.5573 36.8882 3.93074 36.9013C2.35574 36.9013 1.20074 36.245 0.518242 34.8144C0.400117 34.565 0.32793 34.2894 0.229492 34.0269L0.236055 34.0335ZM17.3773 35.5035C14.2273 29.4069 14.9754 23.8879 19.6282 18.8807C19.5889 18.8675 19.5429 18.8479 19.4904 18.8347C18.6504 18.6444 18.2764 18.1916 18.2698 17.3254C18.2698 16.6757 18.2632 16.026 18.2698 15.3697C18.2829 14.5822 18.7817 14.0113 19.5692 13.985C20.5536 13.9457 21.5445 13.9457 22.5354 13.985C23.2967 14.0179 23.7889 14.5822 23.8151 15.35C23.8217 15.6454 23.8151 15.9407 23.8151 16.2688C28.2251 14.6807 32.3595 15.1663 36.2642 17.7585V12.6397H1.64043C1.64043 12.7447 1.6273 12.83 1.6273 12.9088C1.6273 19.7207 1.6273 26.526 1.6273 33.3379C1.6273 34.6241 2.52637 35.5035 3.80605 35.5035C7.82887 35.5035 11.8451 35.5035 15.8679 35.5035C16.3667 35.5035 16.8654 35.5035 17.3773 35.5035ZM36.2904 11.1566C36.2904 10.7825 36.2904 10.461 36.2904 10.1329C36.2839 8.55785 36.3101 6.98285 36.2511 5.41441C36.2182 4.49566 35.5489 3.71473 34.6432 3.62941C33.5932 3.52441 32.5236 3.60316 31.4539 3.60316C32.4973 5.84098 32.2217 7.55379 30.6204 8.86629C29.1111 10.1 27.0242 10.1394 25.4426 8.9516C24.6814 8.38066 24.1957 7.61285 23.9398 6.6941C23.6248 5.57191 23.9201 4.56785 24.537 3.59004H13.4267C14.4701 5.95254 14.1945 7.64566 12.5473 8.9516C11.1101 10.0935 8.87887 10.1132 7.40887 8.99098C6.67387 8.43316 6.18824 7.70473 5.92574 6.81879C5.59105 5.65723 5.86668 4.60723 6.52293 3.57035C5.61074 3.57035 4.75762 3.60973 3.91762 3.55723C2.70355 3.48504 1.59449 4.3841 1.62074 5.86723C1.65355 7.49473 1.6273 9.12223 1.6273 10.7497C1.6273 10.881 1.6273 11.0122 1.6273 11.15H36.2904V11.1566ZM16.8917 28.5538C16.8917 35.0572 22.1548 40.3597 28.6451 40.3729C35.1223 40.386 40.4707 35.031 40.4511 28.5472C40.4314 22.0372 35.1551 16.7675 28.6582 16.7675C22.1614 16.7675 16.8917 22.0438 16.8851 28.5538H16.8917ZM7.8748 4.26598C6.96262 4.98785 6.99543 6.58254 7.88137 7.54066C8.96418 8.70879 10.9001 8.71535 11.9895 7.56691C13.0132 6.49066 12.8229 4.88941 12.0223 4.27254C12.0289 4.94191 12.0682 5.59816 11.6482 6.15598C11.2217 6.72691 10.6573 7.02223 9.94855 7.03535C9.44324 7.03535 8.99699 6.87129 8.60324 6.54973C7.88793 5.9591 7.81574 5.15191 7.8748 4.27254V4.26598ZM30.0561 4.22004C30.0561 4.5416 30.0561 4.78441 30.0561 5.02723C30.0298 6.12316 29.1307 7.0091 28.0086 7.03535C26.9192 7.0616 25.9873 6.22816 25.902 5.13879C25.8823 4.86316 25.902 4.58754 25.902 4.23973C24.9832 5.08629 25.0292 6.52348 25.9414 7.51441C26.9782 8.64316 28.7632 8.70223 29.8723 7.65223C30.9026 6.66785 31.0076 5.23066 30.0561 4.2266V4.22004ZM19.6742 17.4304C20.2976 17.4304 20.8882 17.5025 21.4461 17.4041C21.7939 17.3385 22.2598 17.0825 22.3779 16.7872C22.5354 16.3869 22.4173 15.8685 22.4173 15.4091H19.6676V17.4304H19.6742ZM9.25949 3.57691C9.25949 3.99691 9.25949 4.41691 9.25949 4.83691C9.26605 5.32254 9.53512 5.62441 9.94855 5.61785C10.3423 5.61785 10.6311 5.32254 10.6376 4.86973C10.6507 3.99035 10.6507 3.10441 10.6376 2.22504C10.6376 1.78535 10.3226 1.47035 9.94199 1.47035C9.56137 1.47035 9.26605 1.79191 9.25949 2.2316C9.25293 2.67785 9.25949 3.1241 9.25949 3.57691ZM27.2932 3.52441C27.2932 3.98379 27.2867 4.44316 27.2932 4.9091C27.2998 5.32254 27.5557 5.59816 27.9232 5.61785C28.3039 5.6441 28.6386 5.3816 28.6517 4.9616C28.6779 4.02973 28.6779 3.09129 28.6517 2.15941C28.6386 1.74598 28.2973 1.45723 27.9364 1.47691C27.5623 1.50316 27.2998 1.79848 27.2867 2.22504C27.2801 2.65816 27.2867 3.09129 27.2867 3.52441H27.2932Z" fill="#12B1BB"/>
<path d="M5.79469 32.7338C5.32219 32.7338 4.84969 32.7403 4.37062 32.7338C3.59625 32.7141 3.01875 32.1366 3.00562 31.3622C2.9925 30.6731 2.99906 29.9775 3.00562 29.2884C3.01219 28.4944 3.58312 27.8841 4.37719 27.8644C5.30906 27.8447 6.2475 27.8447 7.17937 27.8644C7.92094 27.8775 8.49187 28.3697 8.53781 29.1113C8.59031 29.9053 8.59031 30.7125 8.53781 31.5066C8.48531 32.2547 7.91437 32.7206 7.17281 32.7338C6.71344 32.7403 6.25406 32.7338 5.79469 32.7338ZM4.42969 31.3163H7.13344V29.3016H4.42969V31.3163Z" fill="#12B1BB"/>
<path d="M5.77453 13.9651C6.20766 13.9651 6.64078 13.9585 7.07391 13.9651C8.00578 13.9913 8.55703 14.5294 8.57672 15.4679C8.58984 16.0913 8.58984 16.7148 8.57672 17.3382C8.55703 18.2701 8.00578 18.8344 7.08047 18.8476C6.21422 18.8607 5.34797 18.8673 4.48172 18.8476C3.55641 18.8279 3.01172 18.2504 3.01172 17.3185C3.01172 16.6819 3.01172 16.0454 3.01172 15.4088C3.01828 14.5951 3.53672 14.0241 4.35703 13.9716C4.82953 13.9454 5.30203 13.9716 5.78109 13.9716C5.78109 13.9716 5.78109 13.9716 5.78109 13.9651H5.77453ZM4.41609 17.4104H7.13297V15.4154H4.41609V17.4104Z" fill="#12B1BB"/>
<path d="M13.3942 18.8543C12.9742 18.8543 12.5542 18.8609 12.1342 18.8543C11.1761 18.828 10.6445 18.2702 10.6445 17.3121C10.6445 16.6624 10.6445 16.0127 10.6445 15.3565C10.6445 14.6215 11.1433 14.0243 11.8717 13.9915C12.8955 13.9455 13.9258 13.9455 14.9561 13.9915C15.6583 14.0243 16.1505 14.5624 16.1767 15.2777C16.2095 15.993 16.203 16.7149 16.1833 17.4368C16.157 18.2965 15.6058 18.8215 14.7264 18.8543C14.2802 18.8674 13.8339 18.8543 13.3877 18.8543H13.3942ZM14.7723 15.4155H12.0489V17.404H14.7723V15.4155Z" fill="#12B1BB"/>
<path d="M5.7877 20.9209C6.2602 20.9209 6.7327 20.9209 7.21176 20.9209C7.8877 20.934 8.47832 21.3934 8.52426 22.0628C8.58988 22.8962 8.58988 23.7428 8.53738 24.5762C8.49145 25.2915 7.90738 25.7771 7.19207 25.7903C6.2602 25.8034 5.32176 25.81 4.38988 25.7903C3.60238 25.7771 3.02488 25.1668 3.01176 24.3728C3.0052 23.6837 3.0052 22.9881 3.01176 22.299C3.02488 21.505 3.61551 20.9275 4.40957 20.9209C4.86895 20.9209 5.32832 20.9209 5.7877 20.9209ZM4.4227 22.3318V24.3531H7.12645V22.3318H4.4227Z" fill="#12B1BB"/>
<path d="M12.062 24.3931C12.5148 24.3931 12.9676 24.3866 13.427 24.3931C13.7355 24.3997 14.0045 24.5507 14.057 24.8657C14.0898 25.0822 14.0505 25.3578 13.9323 25.5285C13.8273 25.6728 13.5714 25.7713 13.3745 25.7844C12.9151 25.8238 12.4558 25.8107 11.9964 25.791C11.2286 25.7582 10.6511 25.1675 10.6445 24.3997C10.6445 23.6975 10.638 22.9888 10.6445 22.2866C10.6511 21.5122 11.2351 20.9216 12.003 20.915C12.9217 20.9085 13.8405 20.915 14.7592 20.915C15.1923 20.915 15.5073 21.2103 15.5073 21.5975C15.5073 21.9847 15.1989 22.2932 14.7723 22.2932C13.8798 22.2997 12.9873 22.2932 12.062 22.2932V24.3735V24.3931Z" fill="#12B1BB"/>
<path d="M12.062 31.3421C12.7445 31.3421 13.3942 31.3421 14.0439 31.3421C14.523 31.3421 14.8051 31.6177 14.7986 32.0509C14.792 32.4643 14.5164 32.7202 14.057 32.7268C13.368 32.7334 12.6789 32.7399 11.9833 32.7268C11.2286 32.7137 10.6576 32.1296 10.6445 31.3815C10.638 30.6793 10.6445 29.9706 10.6445 29.2684C10.6445 28.494 11.2089 27.9034 11.9833 27.864C12.4426 27.8443 12.902 27.8509 13.3614 27.864C13.8011 27.8771 14.1095 28.1724 14.1226 28.553C14.1358 28.9337 13.8405 29.2421 13.3942 29.2749C13.1645 29.2946 12.9348 29.2815 12.7051 29.2815C12.4951 29.2815 12.2786 29.2815 12.062 29.2815V31.3487V31.3421Z" fill="#12B1BB"/>
<path d="M18.2695 28.5668C18.2695 22.7918 22.9027 18.1521 28.6514 18.1455C34.4002 18.1455 39.0792 22.8377 39.0727 28.593C39.0727 34.3483 34.3805 39.0077 28.612 38.9946C22.8961 38.9814 18.263 34.3089 18.2695 28.5668ZM36.067 23.448C35.4305 22.5293 34.6824 21.768 33.7767 21.1577C33.1599 22.0568 32.9367 22.2143 32.5233 21.9714C31.7292 21.4989 32.3002 20.9543 32.5102 20.4227C31.5061 19.9633 30.502 19.6614 29.4061 19.6024C29.3274 20.1536 29.5111 20.8821 28.6974 20.9018C27.818 20.9214 28.0017 20.1536 27.923 19.5893C26.8205 19.6877 25.7902 19.9371 24.8124 20.4489C24.9305 20.6589 25.0289 20.823 25.1077 20.9936C25.2848 21.3677 25.1798 21.7614 24.8517 21.9518C24.5105 22.1486 24.143 22.0568 23.9002 21.6958C23.782 21.5252 23.6836 21.3349 23.5655 21.138C22.6402 21.8008 21.8724 22.5424 21.2686 23.4546C22.1414 24.0189 22.3252 24.2749 22.0889 24.6818C21.6295 25.4758 21.0849 24.9443 20.5402 24.708C20.0677 25.7121 19.7658 26.7293 19.7199 27.8186C20.7764 27.9236 21.0389 28.0483 21.0258 28.5143C21.0127 29.4002 20.2974 29.2361 19.7133 29.3018C19.7789 30.4174 20.0677 31.4411 20.5467 32.4189C21.4786 31.9661 21.7936 31.9596 22.043 32.373C22.2989 32.793 22.1808 32.9899 21.2686 33.7052C21.892 34.5977 22.6336 35.3655 23.5524 35.9824C23.8739 35.5296 24.0708 34.8077 24.7927 35.1818C25.5933 35.6018 25.0223 36.1858 24.8058 36.7108C25.8164 37.1768 26.8336 37.4786 27.9427 37.5377C27.9427 37.3211 27.9427 37.1571 27.9427 36.9996C27.9558 36.5205 28.2249 36.2252 28.6449 36.2186C29.0649 36.2186 29.3339 36.4943 29.3602 36.9799C29.3733 37.1636 29.3602 37.3408 29.3602 37.5246C30.2527 37.5377 31.8539 37.0914 32.4774 36.678C32.0442 35.7133 32.0245 35.3983 32.4577 35.1883C33.2386 34.8143 33.4289 35.5296 33.7505 35.9955C34.6627 35.3458 35.437 34.5977 36.0408 33.6855C35.1549 33.0883 34.9842 32.8521 35.227 32.4452C35.693 31.6511 36.2377 32.2024 36.7692 32.4321C37.2352 31.4214 37.537 30.4043 37.5961 29.2821C37.3664 29.2821 37.1958 29.2952 37.0186 29.2821C36.5395 29.2493 36.2639 28.9671 36.277 28.5405C36.2902 28.1402 36.5855 27.8777 37.0383 27.8646C37.222 27.858 37.4058 27.8646 37.7208 27.8646C37.4189 26.7489 37.1367 25.7318 36.8545 24.6949C35.7258 25.1739 35.4567 25.1739 35.227 24.7343C34.9974 24.2946 35.1483 24.0583 36.0408 23.4546L36.067 23.448Z" fill="#12B1BB"/>
<path d="M30.7586 23.0212C31.2901 23.0278 31.5855 23.5265 31.3558 24.0778C30.8111 25.3706 30.273 26.67 29.6889 27.9496C29.5248 28.3106 29.5773 28.514 29.853 28.77C30.5158 29.3934 31.1458 30.0431 31.7823 30.6862C32.1958 31.1062 32.2417 31.5 31.9333 31.8215C31.6183 32.1496 31.2114 32.1103 30.798 31.6968C29.958 30.8568 29.118 30.0037 28.2714 29.1703C27.963 28.8684 27.8973 28.56 28.0745 28.1465C28.7439 26.624 29.3936 25.095 30.0367 23.5659C30.1745 23.2378 30.3714 23.0146 30.752 23.0146L30.7586 23.0212Z" fill="#12B1BB"/>
</g>
<defs>
<clipPath id="clip0_2466_1401">
<rect width="42" height="42" fill="white"/>
</clipPath>
</defs>
</svg>
