<svg xmlns="http://www.w3.org/2000/svg" width="45.161" height="50" viewBox="0 0 45.161 50">
  <g id="idea-de-negocio" transform="translate(-1 -1)">
    <path id="Trazado_9705" data-name="Trazado 9705" d="M25.616,33.258A5.59,5.59,0,0,0,29.6,31.61l6.416-6.416h3.7a2.422,2.422,0,0,0,2.419-2.419V21.161a2.4,2.4,0,0,0-.871-1.844,3.2,3.2,0,0,0,.871-2.189V15.685a1.553,1.553,0,0,1,.7-1.323A7.259,7.259,0,1,0,35,14.373a1.586,1.586,0,0,1,.677,1.344V17.3a3.115,3.115,0,0,0-1.256.756l-1.969,1.969-6.473,6.472a14.61,14.61,0,0,0-4.563-2.87,16.544,16.544,0,0,0-2.927-.671,1.6,1.6,0,0,1-1.36-1.593V20.288a6.485,6.485,0,0,0,2.751-3.16h.475a3.218,3.218,0,0,0,2.634-5.077L23,12.034a5.526,5.526,0,0,0-2.472-7.415l-.179-.09A3.618,3.618,0,0,0,16.736,1H11.484A5.652,5.652,0,0,0,5.849,6.3l-.158.158a5,5,0,0,0-1.209,5.119l.22.66A3.194,3.194,0,0,0,4.226,13.9a3.229,3.229,0,0,0,3.226,3.226h.475a6.485,6.485,0,0,0,2.751,3.16v1.156a1.615,1.615,0,0,1-1.413,1.6l-2.281.285A6.862,6.862,0,0,0,3,25.279a6.781,6.781,0,0,0-2,4.829V42.935a2.422,2.422,0,0,0,2.419,2.419H5.032a2.392,2.392,0,0,0,.806-.148V51H21.968V32.051l.955.521a5.643,5.643,0,0,0,2.694.686Zm14.9-16.129a1.611,1.611,0,0,1-1.165,1.542A3.118,3.118,0,0,0,37.29,17.2v-.073Zm-7.21-9.618a5.665,5.665,0,0,1,4.935-4.86,5.588,5.588,0,0,1,4.42,1.4,5.643,5.643,0,0,1-.71,8.96,3.147,3.147,0,0,0-1.426,2.51H37.277a3.145,3.145,0,0,0-1.41-2.5,5.623,5.623,0,0,1-2.56-5.5Zm2.255,11.681a1.548,1.548,0,0,1,1.087-.451,1.527,1.527,0,0,1,1.375.85l.381.763h1.3a.807.807,0,0,1,.806.806v1.613a.807.807,0,0,1-.806.806h-3.7l-2.419-2.419ZM16.919,27.38l-1.934-1.548,1.473-2.211.048.047Zm-1.46,7.215L13.9,36.15l-1.556-1.556,1.215-7.289.341-.273.341.273ZM11.29,23.76c.031-.03.063-.057.093-.088l1.44,2.16L10.888,27.38Zm9.065-8.244H20.3a6.49,6.49,0,0,0,.056-.806V12.29a1.613,1.613,0,1,1,0,3.226Zm-12.9,0a1.613,1.613,0,0,1,0-3.226V14.71a6.489,6.489,0,0,0,.056.806Zm.013-4.839H7.452A3.194,3.194,0,0,0,6,11.035,3.376,3.376,0,0,1,6.831,7.6l.62-.619V6.645a4.037,4.037,0,0,1,4.032-4.032h5.252a2.005,2.005,0,0,1,.635,3.907l-.5.165.51,1.531.5-.166A3.611,3.611,0,0,0,20,6.175a3.885,3.885,0,0,1,1.7,4.8,3.2,3.2,0,0,0-1.343-.3V9.065H16.7a14.535,14.535,0,0,1-6.472-1.528l-.36-.18-.36.181a3.7,3.7,0,0,0-2.046,3.14Zm1.6,4.032V10.868a2.1,2.1,0,0,1,.85-1.694,16.158,16.158,0,0,0,6.789,1.5h2.039V14.71a4.839,4.839,0,1,1-9.677,0ZM13.9,21.161a6.413,6.413,0,0,0,1.613-.212v.41a3.224,3.224,0,0,0,.073.657L13.9,24.546l-1.669-2.5a3.256,3.256,0,0,0,.056-.6v-.5a6.413,6.413,0,0,0,1.613.212ZM4.141,26.419a5.242,5.242,0,0,1,3.042-1.489l2.281-.285c.037,0,.07-.018.106-.023l-.717,6.45,2.822-2.257L10.62,35.148,13.9,38.431l3.283-3.283-1.056-6.333,2.822,2.257-.726-6.532c.013,0,.025.007.039.009a14.963,14.963,0,0,1,2.641.6,13.346,13.346,0,0,1,4.1,2.639l-.537,1.075,1.443.722.748-1.5,5.789-5.79,2.085,2.085-6.082,6.082a3.988,3.988,0,0,1-2.839,1.176,4.03,4.03,0,0,1-1.922-.49l-1.713-.934a1.928,1.928,0,0,1,.556-1.231L21.4,27.85a3.535,3.535,0,0,0-1.042,2.516V39.71H8.962a2.374,2.374,0,0,0-.591-1.027l-.919-.919v-7.4A3.538,3.538,0,0,0,6.41,27.849L5.269,28.99a1.935,1.935,0,0,1,.57,1.377V37.29H2.613V30.108a5.253,5.253,0,0,1,1.528-3.689Zm.891,17.323H3.419a.807.807,0,0,1-.806-.806V38.9h3.7l.919.919a.762.762,0,0,1,.221.535.752.752,0,0,1-.418.676l-1.2.6v1.3a.807.807,0,0,1-.806.806Zm9.677,5.645V47.1a2.73,2.73,0,0,1,1.868-2.592l-.51-1.529a4.341,4.341,0,0,0-2.165,1.6,4.333,4.333,0,0,0-2.165-1.6l-.51,1.529A2.73,2.73,0,0,1,13.1,47.1v2.289H7.452v-6.76l.3-.152A2.358,2.358,0,0,0,8.86,41.323H20.355v8.065Z" fill="#12B1BB"/>
    <path id="Trazado_9706" data-name="Trazado 9706" d="M50.885,7.433l-1.14-1.14-4.269,4.269L44.433,9.519l-1.14,1.14,2.183,2.183Z" transform="translate(-8.186 -1.024)" fill="#12B1BB"/>
  </g>
</svg>
