<svg width="26" height="27" viewBox="0 0 26 27" fill="none" xmlns="http://www.w3.org/2000/svg">
<path fill-rule="evenodd" clip-rule="evenodd" d="M20.3252 11C20.3252 15.3036 16.6545 19 11.865 19C7.07548 19 3.40479 15.3036 3.40479 11C3.40479 6.69642 7.07548 3 11.865 3C16.6545 3 20.3252 6.69642 20.3252 11ZM17.9953 20.2956C16.2225 21.375 14.1198 22 11.865 22C5.5357 22 0.404785 17.0751 0.404785 11C0.404785 4.92487 5.5357 0 11.865 0C18.1943 0 23.3252 4.92487 23.3252 11C23.3252 13.9693 22.0995 16.6638 20.1072 18.6428C20.2574 18.7145 20.3981 18.8128 20.5224 18.9375L25.4406 23.8727C26.0254 24.4596 26.0254 25.4109 25.4406 25.9977C24.8558 26.5845 23.9077 26.5845 23.323 25.9977L18.4048 21.0625C18.1877 20.8447 18.0512 20.5766 17.9953 20.2956Z" fill="#969494"/>
</svg>
