<svg width="27" height="28" viewBox="0 0 27 28" fill="none" xmlns="http://www.w3.org/2000/svg">
<path fill-rule="evenodd" clip-rule="evenodd" d="M20.5 11.7803C20.5 16.0743 16.8215 19.7803 12 19.7803C7.17851 19.7803 3.5 16.0743 3.5 11.7803C3.5 7.48628 7.17851 3.78027 12 3.78027C16.8215 3.78027 20.5 7.48628 20.5 11.7803ZM18.1507 21.0764C16.3719 22.1555 14.2622 22.7803 12 22.7803C5.64873 22.7803 0.5 17.8554 0.5 11.7803C0.5 5.70514 5.64873 0.780273 12 0.780273C18.3513 0.780273 23.5 5.70514 23.5 11.7803C23.5 14.7511 22.2687 17.4469 20.2677 19.4262C20.4175 19.4977 20.5579 19.5955 20.682 19.7196L25.6209 24.6585C26.2067 25.2443 26.2067 26.1941 25.6209 26.7799C25.0351 27.3656 24.0854 27.3656 23.4996 26.7799L18.5607 21.8409C18.3435 21.6238 18.2068 21.3566 18.1507 21.0764Z" fill="#A9A9A9"/>
</svg>
