<svg width="37" height="32" viewBox="0 0 37 32" fill="none" xmlns="http://www.w3.org/2000/svg">
<path d="M26.4368 27.3093C26.4368 27.9145 26.4368 28.4534 26.4368 28.9922C26.4368 30.1807 25.635 31 24.4581 31C17.1316 31 9.81254 31 2.48609 31C1.30915 31 0.5 30.188 0.5 28.9996C0.5 24.4969 0.5 19.9942 0.5 15.4915C0.5 14.34 1.33121 13.5206 2.47873 13.5132C3.91313 13.5059 5.34752 13.5059 6.77456 13.5132C7.04673 13.5132 7.18649 13.432 7.3189 13.1958C9.42268 9.51985 11.5338 5.84386 13.6523 2.16787C14.3511 0.957308 15.3883 0.676811 16.602 1.37805C22.8913 5.02451 29.1806 8.67097 35.4625 12.3174C36.4776 12.908 36.7939 14.0226 36.2054 15.0412C33.9692 18.946 31.7331 22.8434 29.4895 26.7335C28.9084 27.7374 27.8197 28.0253 26.7973 27.4716C26.7016 27.42 26.606 27.3757 26.4442 27.2871L26.4368 27.3093ZM25.3408 19.0641H1.59603C1.59603 19.2191 1.59603 19.352 1.59603 19.4849C1.59603 22.6072 1.59603 25.7296 1.59603 28.8594C1.59603 29.6197 1.88291 29.9075 2.63321 29.9075C9.84197 29.9075 17.0581 29.9075 24.2668 29.9075C25.076 29.9075 25.3408 29.6418 25.3408 28.8298C25.3408 25.7296 25.3408 22.6294 25.3408 19.5292C25.3408 19.3815 25.3408 19.2413 25.3408 19.0715V19.0641ZM33.4985 17.5731C26.6281 13.587 19.7945 9.62319 12.9314 5.64456C11.4161 8.28714 9.92288 10.878 8.40757 13.5206C8.62825 13.5206 8.77536 13.5206 8.92248 13.5206C14.0642 13.5206 19.206 13.5206 24.3478 13.5206C25.6645 13.5206 26.4442 14.3031 26.4442 15.6317C26.4442 18.7689 26.4442 21.906 26.4442 25.0431C26.4442 25.737 26.7531 26.2414 27.371 26.5563C27.8124 26.7852 28.2464 26.6744 28.5185 26.2463C28.6804 25.988 28.8275 25.7148 28.982 25.4491C30.4826 22.8434 31.9832 20.2304 33.5132 17.5731H33.4985ZM14.638 2.74363C21.4863 6.71488 28.3126 10.6787 35.1388 14.6352C35.5802 14.0595 35.4478 13.587 34.7857 13.2032C30.0044 10.4352 25.2305 7.65971 20.4491 4.89165C18.9633 4.02801 17.4847 3.16438 15.9988 2.30812C15.3883 1.95381 14.9175 2.09406 14.638 2.74363ZM25.2967 15.6539C25.3849 14.9748 25.0539 14.6278 24.333 14.6278C17.0949 14.6278 9.85668 14.6278 2.61849 14.6278C2.54493 14.6278 2.47138 14.6278 2.39782 14.6278C1.84613 14.6647 1.53718 15.0633 1.62545 15.6539H25.2967Z" fill="#A9A9A9"/>
<path d="M5.17834 25.9459C5.60498 25.9459 6.03162 25.9384 6.46562 25.9459C6.83341 25.9534 7.07616 26.1867 7.07616 26.5027C7.07616 26.8263 6.83341 27.0596 6.46562 27.0596C5.59762 27.0671 4.72963 27.0671 3.86164 27.0596C3.47178 27.0596 3.22167 26.8112 3.22903 26.4802C3.24374 26.1641 3.48649 25.9459 3.86164 25.9384C4.30299 25.9309 4.74434 25.9384 5.18569 25.9384L5.17834 25.9459Z" fill="#A9A9A9"/>
<path d="M9.72427 27.0671C9.29763 27.0671 8.87099 27.0671 8.43699 27.0671C8.04713 27.0671 7.80439 26.8263 7.81174 26.4877C7.8191 26.1641 8.05449 25.9534 8.43699 25.9459C9.30499 25.9459 10.173 25.9459 11.041 25.9459C11.4088 25.9459 11.6442 26.1792 11.6442 26.5103C11.6442 26.8338 11.4088 27.0595 11.0336 27.0671C10.5923 27.0746 10.1509 27.0671 9.70956 27.0671H9.72427Z" fill="#A9A9A9"/>
<path d="M14.329 25.9384C14.7557 25.9384 15.1823 25.9384 15.6163 25.9384C15.9915 25.9459 16.2195 26.1641 16.2269 26.4952C16.2269 26.8188 15.9988 27.0596 15.631 27.0596C14.7483 27.0671 13.873 27.0671 12.9903 27.0596C12.6225 27.0596 12.3871 26.8112 12.3945 26.4877C12.4018 26.1641 12.6446 25.9459 13.0123 25.9384C13.4537 25.9384 13.8951 25.9384 14.3364 25.9384H14.329Z" fill="#A9A9A9"/>
<path d="M26.4368 27.3093C26.4368 27.9145 26.4368 28.4534 26.4368 28.9922C26.4368 30.1807 25.635 31 24.4581 31C17.1316 31 9.81254 31 2.48609 31C1.30915 31 0.5 30.188 0.5 28.9996C0.5 24.4969 0.5 19.9942 0.5 15.4915C0.5 14.34 1.33121 13.5206 2.47873 13.5132C3.91313 13.5059 5.34752 13.5059 6.77456 13.5132C7.04673 13.5132 7.18649 13.432 7.3189 13.1958C9.42268 9.51985 11.5338 5.84386 13.6523 2.16787C14.3511 0.957308 15.3883 0.676811 16.602 1.37805C22.8913 5.02451 29.1806 8.67097 35.4625 12.3174C36.4776 12.908 36.7939 14.0226 36.2054 15.0412C33.9692 18.946 31.7331 22.8434 29.4895 26.7335C28.9084 27.7374 27.8197 28.0253 26.7973 27.4716C26.7016 27.42 26.606 27.3757 26.4442 27.2871L26.4368 27.3093ZM25.3408 19.0641H1.59603C1.59603 19.2191 1.59603 19.352 1.59603 19.4849C1.59603 22.6072 1.59603 25.7296 1.59603 28.8594C1.59603 29.6197 1.88291 29.9075 2.63321 29.9075C9.84197 29.9075 17.0581 29.9075 24.2668 29.9075C25.076 29.9075 25.3408 29.6418 25.3408 28.8298C25.3408 25.7296 25.3408 22.6294 25.3408 19.5292C25.3408 19.3815 25.3408 19.2413 25.3408 19.0715V19.0641ZM33.4985 17.5731C26.6281 13.587 19.7945 9.62319 12.9314 5.64456C11.4161 8.28714 9.92288 10.878 8.40757 13.5206C8.62825 13.5206 8.77536 13.5206 8.92248 13.5206C14.0642 13.5206 19.206 13.5206 24.3478 13.5206C25.6645 13.5206 26.4442 14.3031 26.4442 15.6317C26.4442 18.7689 26.4442 21.906 26.4442 25.0431C26.4442 25.737 26.7531 26.2414 27.371 26.5563C27.8124 26.7852 28.2464 26.6744 28.5185 26.2463C28.6804 25.988 28.8275 25.7148 28.982 25.4491C30.4826 22.8434 31.9832 20.2304 33.5132 17.5731H33.4985ZM14.638 2.74363C21.4863 6.71488 28.3126 10.6787 35.1388 14.6352C35.5802 14.0595 35.4478 13.587 34.7857 13.2032C30.0044 10.4352 25.2305 7.65971 20.4491 4.89165C18.9633 4.02801 17.4847 3.16438 15.9988 2.30812C15.3883 1.95381 14.9175 2.09406 14.638 2.74363ZM25.2967 15.6539C25.3849 14.9748 25.0539 14.6278 24.333 14.6278C17.0949 14.6278 9.85668 14.6278 2.61849 14.6278C2.54493 14.6278 2.47138 14.6278 2.39782 14.6278C1.84613 14.6647 1.53718 15.0633 1.62545 15.6539H25.2967Z" stroke="#A9A9A9" stroke-width="0.5" stroke-miterlimit="10"/>
<path d="M5.17834 25.9459C5.60498 25.9459 6.03162 25.9384 6.46562 25.9459C6.83341 25.9534 7.07616 26.1867 7.07616 26.5027C7.07616 26.8263 6.83341 27.0596 6.46562 27.0596C5.59762 27.0671 4.72963 27.0671 3.86164 27.0596C3.47178 27.0596 3.22167 26.8112 3.22903 26.4802C3.24374 26.1641 3.48649 25.9459 3.86164 25.9384C4.30299 25.9309 4.74434 25.9384 5.18569 25.9384L5.17834 25.9459Z" stroke="#A9A9A9" stroke-width="0.5" stroke-miterlimit="10"/>
<path d="M9.72427 27.0671C9.29763 27.0671 8.87099 27.0671 8.43699 27.0671C8.04713 27.0671 7.80439 26.8263 7.81174 26.4877C7.8191 26.1641 8.05449 25.9534 8.43699 25.9459C9.30499 25.9459 10.173 25.9459 11.041 25.9459C11.4088 25.9459 11.6442 26.1792 11.6442 26.5103C11.6442 26.8338 11.4088 27.0595 11.0336 27.0671C10.5923 27.0746 10.1509 27.0671 9.70956 27.0671H9.72427Z" stroke="#A9A9A9" stroke-width="0.5" stroke-miterlimit="10"/>
<path d="M14.329 25.9384C14.7557 25.9384 15.1823 25.9384 15.6163 25.9384C15.9915 25.9459 16.2195 26.1641 16.2269 26.4952C16.2269 26.8188 15.9988 27.0596 15.631 27.0596C14.7483 27.0671 13.873 27.0671 12.9903 27.0596C12.6225 27.0596 12.3871 26.8112 12.3945 26.4877C12.4018 26.1641 12.6446 25.9459 13.0123 25.9384C13.4537 25.9384 13.8951 25.9384 14.3364 25.9384H14.329Z" stroke="#A9A9A9" stroke-width="0.5" stroke-miterlimit="10"/>
</svg>
