<svg width="51" height="41" viewBox="0 0 51 41" fill="none" xmlns="http://www.w3.org/2000/svg">
<path d="M36.2982 35.5411C36.2982 36.3461 36.2982 37.0628 36.2982 37.7795C36.2982 39.3601 35.2074 40.4498 33.6061 40.4498C23.6383 40.4498 13.6806 40.4498 3.71279 40.4498C2.11154 40.4498 1.01068 39.3699 1.01068 37.7893C1.01068 31.8007 1.01068 25.8121 1.01068 19.8235C1.01068 18.292 2.14156 17.2022 3.70278 17.1924C5.65431 17.1826 7.60583 17.1826 9.54734 17.1924C9.91763 17.1924 10.1078 17.0844 10.2879 16.7703C13.1502 11.8812 16.0224 6.99214 18.9046 2.10308C19.8554 0.493024 21.2665 0.119963 22.9178 1.05262C31.4745 5.90241 40.0311 10.7522 48.5778 15.602C49.9589 16.3874 50.3892 17.8698 49.5886 19.2246C46.5462 24.418 43.5038 29.6016 40.4515 34.7754C39.6609 36.1105 38.1797 36.4934 36.7886 35.7571C36.6585 35.6884 36.5284 35.6295 36.3082 35.5117L36.2982 35.5411ZM34.8071 24.5751H2.50184C2.50184 24.7813 2.50184 24.958 2.50184 25.1347C2.50184 29.2874 2.50184 33.4402 2.50184 37.6028C2.50184 38.614 2.89215 38.9968 3.91295 38.9968C13.7206 38.9968 23.5383 38.9968 33.3459 38.9968C34.4468 38.9968 34.8071 38.6434 34.8071 37.5635C34.8071 33.4402 34.8071 29.3169 34.8071 25.1936C34.8071 24.9972 34.8071 24.8107 34.8071 24.5849V24.5751ZM45.9057 22.592C36.5584 17.2906 27.2612 12.0186 17.9239 6.72707C15.8623 10.2417 13.8307 13.6876 11.7691 17.2022C12.0693 17.2022 12.2695 17.2022 12.4696 17.2022C19.4651 17.2022 26.4605 17.2022 33.456 17.2022C35.2474 17.2022 36.3082 18.2429 36.3082 20.01C36.3082 24.1824 36.3082 28.3548 36.3082 32.5272C36.3082 33.45 36.7286 34.1209 37.5692 34.5397C38.1697 34.8441 38.7601 34.6968 39.1304 34.1274C39.3506 33.7838 39.5508 33.4206 39.7609 33.0671C41.8025 29.6016 43.8441 26.1262 45.9257 22.592H45.9057ZM20.2457 2.86883C29.563 8.15059 38.8502 13.4225 48.1375 18.6847C48.7379 17.9189 48.5578 17.2906 47.6571 16.7801C41.152 13.0986 34.6569 9.40722 28.1519 5.72569C26.1303 4.57706 24.1187 3.42842 22.0971 2.28961C21.2665 1.81837 20.626 2.0049 20.2457 2.86883ZM34.747 20.0395C34.8671 19.1363 34.4168 18.6748 33.436 18.6748C23.5883 18.6748 13.7406 18.6748 3.89293 18.6748C3.79285 18.6748 3.69277 18.6748 3.5927 18.6748C2.84211 18.7239 2.42178 19.2541 2.54188 20.0395H34.747Z" fill="white"/>
<path d="M7.37565 33.7279C7.9561 33.7279 8.53656 33.7178 9.12702 33.7279C9.62741 33.7379 9.95767 34.0481 9.95767 34.4684C9.95767 34.8988 9.62741 35.209 9.12702 35.209C7.94609 35.219 6.76517 35.219 5.58425 35.209C5.05384 35.209 4.71357 34.8788 4.72358 34.4384C4.7436 34.0181 5.07385 33.7279 5.58425 33.7178C6.18472 33.7078 6.78519 33.7178 7.38566 33.7178L7.37565 33.7279Z" fill="white"/>
<path d="M13.5605 35.219C12.98 35.219 12.3996 35.219 11.8091 35.219C11.2787 35.219 10.9484 34.8988 10.9584 34.4484C10.9685 34.0181 11.2887 33.7379 11.8091 33.7279C12.99 33.7279 14.171 33.7279 15.3519 33.7279C15.8523 33.7279 16.1725 34.0381 16.1725 34.4784C16.1725 34.9088 15.8523 35.209 15.3419 35.219C14.7414 35.229 14.1409 35.219 13.5405 35.219H13.5605Z" fill="white"/>
<path d="M19.8254 33.7178C20.4058 33.7178 20.9863 33.7178 21.5767 33.7178C22.0871 33.7278 22.3974 34.0181 22.4074 34.4584C22.4074 34.8888 22.0971 35.209 21.5967 35.209C20.3958 35.219 19.2049 35.219 18.0039 35.209C17.5036 35.209 17.1833 34.8787 17.1933 34.4484C17.2033 34.0181 17.5336 33.7278 18.034 33.7178C18.6344 33.7178 19.2349 33.7178 19.8354 33.7178H19.8254Z" fill="white"/>
<path d="M36.2982 35.5411C36.2982 36.3461 36.2982 37.0628 36.2982 37.7795C36.2982 39.3601 35.2074 40.4498 33.6061 40.4498C23.6383 40.4498 13.6806 40.4498 3.71279 40.4498C2.11154 40.4498 1.01068 39.3699 1.01068 37.7893C1.01068 31.8007 1.01068 25.8121 1.01068 19.8235C1.01068 18.292 2.14156 17.2022 3.70278 17.1924C5.65431 17.1826 7.60583 17.1826 9.54734 17.1924C9.91763 17.1924 10.1078 17.0844 10.2879 16.7703C13.1502 11.8812 16.0224 6.99214 18.9046 2.10308C19.8554 0.493024 21.2665 0.119963 22.9178 1.05262C31.4745 5.90241 40.0311 10.7522 48.5778 15.602C49.9589 16.3874 50.3892 17.8698 49.5886 19.2246C46.5462 24.418 43.5038 29.6016 40.4515 34.7754C39.6609 36.1105 38.1797 36.4934 36.7886 35.7571C36.6585 35.6884 36.5284 35.6295 36.3082 35.5117L36.2982 35.5411ZM34.8071 24.5751H2.50184C2.50184 24.7813 2.50184 24.958 2.50184 25.1347C2.50184 29.2874 2.50184 33.4402 2.50184 37.6028C2.50184 38.614 2.89215 38.9968 3.91295 38.9968C13.7206 38.9968 23.5383 38.9968 33.3459 38.9968C34.4468 38.9968 34.8071 38.6434 34.8071 37.5635C34.8071 33.4402 34.8071 29.3169 34.8071 25.1936C34.8071 24.9972 34.8071 24.8107 34.8071 24.5849V24.5751ZM45.9057 22.592C36.5584 17.2906 27.2612 12.0186 17.9239 6.72707C15.8623 10.2417 13.8307 13.6876 11.7691 17.2022C12.0693 17.2022 12.2695 17.2022 12.4696 17.2022C19.4651 17.2022 26.4605 17.2022 33.456 17.2022C35.2474 17.2022 36.3082 18.2429 36.3082 20.01C36.3082 24.1824 36.3082 28.3548 36.3082 32.5272C36.3082 33.45 36.7286 34.1209 37.5692 34.5397C38.1697 34.8441 38.7601 34.6968 39.1304 34.1274C39.3506 33.7838 39.5508 33.4206 39.7609 33.0671C41.8025 29.6016 43.8441 26.1262 45.9257 22.592H45.9057ZM20.2457 2.86883C29.563 8.15059 38.8502 13.4225 48.1375 18.6847C48.7379 17.9189 48.5578 17.2906 47.6571 16.7801C41.152 13.0986 34.6569 9.40722 28.1519 5.72569C26.1303 4.57706 24.1187 3.42842 22.0971 2.28961C21.2665 1.81837 20.626 2.0049 20.2457 2.86883ZM34.747 20.0395C34.8671 19.1363 34.4168 18.6748 33.436 18.6748C23.5883 18.6748 13.7406 18.6748 3.89293 18.6748C3.79285 18.6748 3.69277 18.6748 3.5927 18.6748C2.84211 18.7239 2.42178 19.2541 2.54188 20.0395H34.747Z" stroke="white" stroke-width="0.5" stroke-miterlimit="10"/>
<path d="M7.37565 33.7279C7.9561 33.7279 8.53656 33.7178 9.12702 33.7279C9.62741 33.7379 9.95767 34.0481 9.95767 34.4684C9.95767 34.8988 9.62741 35.209 9.12702 35.209C7.94609 35.219 6.76517 35.219 5.58425 35.209C5.05384 35.209 4.71357 34.8788 4.72358 34.4384C4.7436 34.0181 5.07385 33.7279 5.58425 33.7178C6.18472 33.7078 6.78519 33.7178 7.38566 33.7178L7.37565 33.7279Z" stroke="white" stroke-width="0.5" stroke-miterlimit="10"/>
<path d="M13.5605 35.219C12.98 35.219 12.3996 35.219 11.8091 35.219C11.2787 35.219 10.9484 34.8988 10.9584 34.4484C10.9685 34.0181 11.2887 33.7379 11.8091 33.7279C12.99 33.7279 14.171 33.7279 15.3519 33.7279C15.8523 33.7279 16.1725 34.0381 16.1725 34.4784C16.1725 34.9088 15.8523 35.209 15.3419 35.219C14.7414 35.229 14.1409 35.219 13.5405 35.219H13.5605Z" stroke="white" stroke-width="0.5" stroke-miterlimit="10"/>
<path d="M19.8254 33.7178C20.4058 33.7178 20.9863 33.7178 21.5767 33.7178C22.0871 33.7278 22.3974 34.0181 22.4074 34.4584C22.4074 34.8888 22.0971 35.209 21.5967 35.209C20.3958 35.219 19.2049 35.219 18.0039 35.209C17.5036 35.209 17.1833 34.8787 17.1933 34.4484C17.2033 34.0181 17.5336 33.7278 18.034 33.7178C18.6344 33.7178 19.2349 33.7178 19.8354 33.7178H19.8254Z" stroke="white" stroke-width="0.5" stroke-miterlimit="10"/>
</svg>
