<svg width="51" height="41" viewBox="0 0 51 41" fill="none" xmlns="http://www.w3.org/2000/svg">
<path d="M36.2983 35.5411C36.2983 36.3461 36.2983 37.0628 36.2983 37.7795C36.2983 39.3601 35.2074 40.4498 33.6062 40.4498C23.6384 40.4498 13.6806 40.4498 3.71285 40.4498C2.1116 40.4498 1.01074 39.3699 1.01074 37.7893C1.01074 31.8007 1.01074 25.8121 1.01074 19.8235C1.01074 18.292 2.14163 17.2022 3.70284 17.1924C5.65437 17.1826 7.60589 17.1826 9.54741 17.1924C9.91769 17.1924 10.1078 17.0844 10.288 16.7703C13.1502 11.8812 16.0225 6.99214 18.9047 2.10308C19.8555 0.493024 21.2666 0.119963 22.9178 1.05262C31.4745 5.90241 40.0312 10.7522 48.5779 15.602C49.959 16.3874 50.3893 17.8698 49.5887 19.2246C46.5463 24.418 43.5039 29.6016 40.4515 34.7754C39.6609 36.1105 38.1798 36.4934 36.7887 35.7571C36.6586 35.6884 36.5285 35.6295 36.3083 35.5117L36.2983 35.5411ZM34.8071 24.5751H2.50191C2.50191 24.7813 2.50191 24.958 2.50191 25.1347C2.50191 29.2874 2.50191 33.4402 2.50191 37.6028C2.50191 38.614 2.89221 38.9968 3.91301 38.9968C13.7207 38.9968 23.5383 38.9968 33.346 38.9968C34.4468 38.9968 34.8071 38.6434 34.8071 37.5635C34.8071 33.4402 34.8071 29.3169 34.8071 25.1936C34.8071 24.9972 34.8071 24.8107 34.8071 24.5849V24.5751ZM45.9058 22.592C36.5585 17.2906 27.2612 12.0186 17.9239 6.72707C15.8623 10.2417 13.8307 13.6876 11.7691 17.2022C12.0694 17.2022 12.2695 17.2022 12.4697 17.2022C19.4651 17.2022 26.4606 17.2022 33.4561 17.2022C35.2475 17.2022 36.3083 18.2429 36.3083 20.01C36.3083 24.1824 36.3083 28.3548 36.3083 32.5272C36.3083 33.45 36.7286 34.1209 37.5693 34.5397C38.1697 34.8441 38.7602 34.6968 39.1305 34.1274C39.3507 33.7838 39.5508 33.4206 39.761 33.0671C41.8026 29.6016 43.8442 26.1262 45.9258 22.592H45.9058ZM20.2458 2.86883C29.563 8.15059 38.8503 13.4225 48.1375 18.6847C48.738 17.9189 48.5579 17.2906 47.6572 16.7801C41.1521 13.0986 34.657 9.40722 28.1519 5.72569C26.1303 4.57706 24.1188 3.42842 22.0972 2.28961C21.2666 1.81837 20.6261 2.0049 20.2458 2.86883ZM34.7471 20.0395C34.8672 19.1363 34.4168 18.6748 33.4361 18.6748C23.5884 18.6748 13.7407 18.6748 3.89299 18.6748C3.79291 18.6748 3.69284 18.6748 3.59276 18.6748C2.84217 18.7239 2.42184 19.2541 2.54194 20.0395H34.7471Z" fill="#12B1BB"/>
<path d="M7.37571 33.7279C7.95617 33.7279 8.53662 33.7178 9.12708 33.7279C9.62747 33.7379 9.95773 34.0481 9.95773 34.4684C9.95773 34.8988 9.62747 35.209 9.12708 35.209C7.94616 35.219 6.76523 35.219 5.58431 35.209C5.0539 35.209 4.71363 34.8787 4.72364 34.4384C4.74366 34.0181 5.07391 33.7279 5.58431 33.7178C6.18478 33.7078 6.78525 33.7178 7.38572 33.7178L7.37571 33.7279Z" fill="#12B1BB"/>
<path d="M13.5605 35.219C12.9801 35.219 12.3996 35.219 11.8092 35.219C11.2788 35.219 10.9485 34.8988 10.9585 34.4484C10.9685 34.0181 11.2888 33.7379 11.8092 33.7279C12.9901 33.7279 14.171 33.7279 15.3519 33.7279C15.8523 33.7279 16.1726 34.0381 16.1726 34.4784C16.1726 34.9088 15.8523 35.209 15.3419 35.219C14.7415 35.229 14.141 35.219 13.5405 35.219H13.5605Z" fill="#12B1BB"/>
<path d="M19.8254 33.7178C20.4059 33.7178 20.9863 33.7178 21.5768 33.7178C22.0872 33.7278 22.3974 34.0181 22.4074 34.4584C22.4074 34.8888 22.0972 35.209 21.5968 35.209C20.3959 35.219 19.2049 35.219 18.004 35.209C17.5036 35.209 17.1834 34.8787 17.1934 34.4484C17.2034 34.0181 17.5336 33.7278 18.034 33.7178C18.6345 33.7178 19.235 33.7178 19.8354 33.7178H19.8254Z" fill="#12B1BB"/>
<path d="M36.2983 35.5411C36.2983 36.3461 36.2983 37.0628 36.2983 37.7795C36.2983 39.3601 35.2074 40.4498 33.6062 40.4498C23.6384 40.4498 13.6806 40.4498 3.71285 40.4498C2.1116 40.4498 1.01074 39.3699 1.01074 37.7893C1.01074 31.8007 1.01074 25.8121 1.01074 19.8235C1.01074 18.292 2.14163 17.2022 3.70284 17.1924C5.65437 17.1826 7.60589 17.1826 9.54741 17.1924C9.91769 17.1924 10.1078 17.0844 10.288 16.7703C13.1502 11.8812 16.0225 6.99214 18.9047 2.10308C19.8555 0.493024 21.2666 0.119963 22.9178 1.05262C31.4745 5.90241 40.0312 10.7522 48.5779 15.602C49.959 16.3874 50.3893 17.8698 49.5887 19.2246C46.5463 24.418 43.5039 29.6016 40.4515 34.7754C39.6609 36.1105 38.1798 36.4934 36.7887 35.7571C36.6586 35.6884 36.5285 35.6295 36.3083 35.5117L36.2983 35.5411ZM34.8071 24.5751H2.50191C2.50191 24.7813 2.50191 24.958 2.50191 25.1347C2.50191 29.2874 2.50191 33.4402 2.50191 37.6028C2.50191 38.614 2.89221 38.9968 3.91301 38.9968C13.7207 38.9968 23.5383 38.9968 33.346 38.9968C34.4468 38.9968 34.8071 38.6434 34.8071 37.5635C34.8071 33.4402 34.8071 29.3169 34.8071 25.1936C34.8071 24.9972 34.8071 24.8107 34.8071 24.5849V24.5751ZM45.9058 22.592C36.5585 17.2906 27.2612 12.0186 17.9239 6.72707C15.8623 10.2417 13.8307 13.6876 11.7691 17.2022C12.0694 17.2022 12.2695 17.2022 12.4697 17.2022C19.4651 17.2022 26.4606 17.2022 33.4561 17.2022C35.2475 17.2022 36.3083 18.2429 36.3083 20.01C36.3083 24.1824 36.3083 28.3548 36.3083 32.5272C36.3083 33.45 36.7286 34.1209 37.5693 34.5397C38.1697 34.8441 38.7602 34.6968 39.1305 34.1274C39.3507 33.7838 39.5508 33.4206 39.761 33.0671C41.8026 29.6016 43.8442 26.1262 45.9258 22.592H45.9058ZM20.2458 2.86883C29.563 8.15059 38.8503 13.4225 48.1375 18.6847C48.738 17.9189 48.5579 17.2906 47.6572 16.7801C41.1521 13.0986 34.657 9.40722 28.1519 5.72569C26.1303 4.57706 24.1188 3.42842 22.0972 2.28961C21.2666 1.81837 20.6261 2.0049 20.2458 2.86883ZM34.7471 20.0395C34.8672 19.1363 34.4168 18.6748 33.4361 18.6748C23.5884 18.6748 13.7407 18.6748 3.89299 18.6748C3.79291 18.6748 3.69284 18.6748 3.59276 18.6748C2.84217 18.7239 2.42184 19.2541 2.54194 20.0395H34.7471Z" stroke="#12B1BB" stroke-width="0.5" stroke-miterlimit="10"/>
<path d="M7.37571 33.7279C7.95617 33.7279 8.53662 33.7178 9.12708 33.7279C9.62747 33.7379 9.95773 34.0481 9.95773 34.4684C9.95773 34.8988 9.62747 35.209 9.12708 35.209C7.94616 35.219 6.76523 35.219 5.58431 35.209C5.0539 35.209 4.71363 34.8787 4.72364 34.4384C4.74366 34.0181 5.07391 33.7279 5.58431 33.7178C6.18478 33.7078 6.78525 33.7178 7.38572 33.7178L7.37571 33.7279Z" stroke="#12B1BB" stroke-width="0.5" stroke-miterlimit="10"/>
<path d="M13.5605 35.219C12.9801 35.219 12.3996 35.219 11.8092 35.219C11.2788 35.219 10.9485 34.8988 10.9585 34.4484C10.9685 34.0181 11.2888 33.7379 11.8092 33.7279C12.9901 33.7279 14.171 33.7279 15.3519 33.7279C15.8523 33.7279 16.1726 34.0381 16.1726 34.4784C16.1726 34.9088 15.8523 35.209 15.3419 35.219C14.7415 35.229 14.141 35.219 13.5405 35.219H13.5605Z" stroke="#12B1BB" stroke-width="0.5" stroke-miterlimit="10"/>
<path d="M19.8254 33.7178C20.4059 33.7178 20.9863 33.7178 21.5768 33.7178C22.0872 33.7278 22.3974 34.0181 22.4074 34.4584C22.4074 34.8888 22.0972 35.209 21.5968 35.209C20.3959 35.219 19.2049 35.219 18.004 35.209C17.5036 35.209 17.1834 34.8787 17.1934 34.4484C17.2034 34.0181 17.5336 33.7278 18.034 33.7178C18.6345 33.7178 19.235 33.7178 19.8354 33.7178H19.8254Z" stroke="#12B1BB" stroke-width="0.5" stroke-miterlimit="10"/>
</svg>
