<svg width="38" height="32" viewBox="0 0 38 32" fill="none" xmlns="http://www.w3.org/2000/svg">
<path d="M26.9368 27.5075C26.9368 28.1128 26.9368 28.6516 26.9368 29.1905C26.9368 30.3789 26.135 31.1982 24.9581 31.1982C17.6316 31.1982 10.3125 31.1982 2.98609 31.1982C1.80915 31.1982 1 30.3863 1 29.1979C1 24.6951 1 20.1924 1 15.6897C1 14.5382 1.83121 13.7189 2.97873 13.7115C4.41313 13.7041 5.84752 13.7041 7.27456 13.7115C7.54673 13.7115 7.68649 13.6303 7.8189 13.3941C9.92268 9.71809 12.0338 6.0421 14.1523 2.36612C14.8511 1.15555 15.8883 0.875053 17.102 1.5763C23.3913 5.22275 29.6806 8.86921 35.9625 12.5157C36.9776 13.1062 37.2939 14.2208 36.7054 15.2394C34.4692 19.1443 32.2331 23.0417 29.9895 26.9317C29.4084 27.9356 28.3197 28.2235 27.2973 27.6699C27.2016 27.6182 27.106 27.5739 26.9442 27.4854L26.9368 27.5075ZM25.8408 19.2624H2.09603C2.09603 19.4174 2.09603 19.5502 2.09603 19.6831C2.09603 22.8055 2.09603 25.9279 2.09603 29.0576C2.09603 29.8179 2.38291 30.1058 3.1332 30.1058C10.342 30.1058 17.5581 30.1058 24.7668 30.1058C25.576 30.1058 25.8408 29.84 25.8408 29.0281C25.8408 25.9279 25.8408 22.8276 25.8408 19.7274C25.8408 19.5798 25.8408 19.4395 25.8408 19.2697V19.2624ZM33.9985 17.7713C27.1281 13.7853 20.2945 9.82143 13.4314 5.8428C11.9161 8.48538 10.4229 11.0763 8.90757 13.7189C9.12825 13.7189 9.27536 13.7189 9.42248 13.7189C14.5642 13.7189 19.706 13.7189 24.8478 13.7189C26.1645 13.7189 26.9442 14.5013 26.9442 15.83C26.9442 18.9671 26.9442 22.1042 26.9442 25.2414C26.9442 25.9352 27.2531 26.4396 27.871 26.7546C28.3124 26.9834 28.7464 26.8727 29.0185 26.4446C29.1804 26.1862 29.3275 25.9131 29.482 25.6474C30.9826 23.0417 32.4832 20.4286 34.0132 17.7713H33.9985ZM15.138 2.94187C21.9863 6.91312 28.8126 10.877 35.6388 14.8335C36.0802 14.2577 35.9478 13.7853 35.2857 13.4015C30.5044 10.6334 25.7305 7.85795 20.9491 5.08989C19.4633 4.22625 17.9847 3.36262 16.4988 2.50636C15.8883 2.15205 15.4175 2.2923 15.138 2.94187ZM25.7967 15.8521C25.8849 15.173 25.5539 14.8261 24.833 14.8261C17.5949 14.8261 10.3567 14.8261 3.11849 14.8261C3.04493 14.8261 2.97138 14.8261 2.89782 14.8261C2.34613 14.863 2.03718 15.2616 2.12545 15.8521H25.7967Z" fill="#1A61F1"/>
<path d="M5.67834 26.1441C6.10498 26.1441 6.53162 26.1366 6.96562 26.1441C7.33341 26.1517 7.57616 26.3849 7.57616 26.701C7.57616 27.0245 7.33341 27.2578 6.96562 27.2578C6.09762 27.2653 5.22963 27.2653 4.36164 27.2578C3.97178 27.2578 3.72167 27.0095 3.72903 26.6784C3.74374 26.3624 3.98649 26.1441 4.36164 26.1366C4.80299 26.1291 5.24434 26.1366 5.68569 26.1366L5.67834 26.1441Z" fill="#1A61F1"/>
<path d="M10.2243 27.2653C9.79763 27.2653 9.37099 27.2653 8.93699 27.2653C8.54713 27.2653 8.30439 27.0245 8.31174 26.6859C8.3191 26.3624 8.55449 26.1517 8.93699 26.1441C9.80499 26.1441 10.673 26.1441 11.541 26.1441C11.9088 26.1441 12.1442 26.3774 12.1442 26.7085C12.1442 27.0321 11.9088 27.2578 11.5336 27.2653C11.0923 27.2728 10.6509 27.2653 10.2096 27.2653H10.2243Z" fill="#1A61F1"/>
<path d="M14.829 26.1366C15.2557 26.1366 15.6823 26.1366 16.1163 26.1366C16.4915 26.1441 16.7195 26.3624 16.7269 26.6934C16.7269 27.017 16.4988 27.2578 16.131 27.2578C15.2483 27.2653 14.373 27.2653 13.4903 27.2578C13.1225 27.2578 12.8871 27.0095 12.8945 26.6859C12.9018 26.3624 13.1446 26.1441 13.5123 26.1366C13.9537 26.1366 14.3951 26.1366 14.8364 26.1366H14.829Z" fill="#1A61F1"/>
<path d="M26.9368 27.5075C26.9368 28.1128 26.9368 28.6516 26.9368 29.1905C26.9368 30.3789 26.135 31.1982 24.9581 31.1982C17.6316 31.1982 10.3125 31.1982 2.98609 31.1982C1.80915 31.1982 1 30.3863 1 29.1979C1 24.6951 1 20.1924 1 15.6897C1 14.5382 1.83121 13.7189 2.97873 13.7115C4.41313 13.7041 5.84752 13.7041 7.27456 13.7115C7.54673 13.7115 7.68649 13.6303 7.8189 13.3941C9.92268 9.71809 12.0338 6.0421 14.1523 2.36612C14.8511 1.15555 15.8883 0.875053 17.102 1.5763C23.3913 5.22275 29.6806 8.86921 35.9625 12.5157C36.9776 13.1062 37.2939 14.2208 36.7054 15.2394C34.4692 19.1443 32.2331 23.0417 29.9895 26.9317C29.4084 27.9356 28.3197 28.2235 27.2973 27.6699C27.2016 27.6182 27.106 27.5739 26.9442 27.4854L26.9368 27.5075ZM25.8408 19.2624H2.09603C2.09603 19.4174 2.09603 19.5502 2.09603 19.6831C2.09603 22.8055 2.09603 25.9279 2.09603 29.0576C2.09603 29.8179 2.38291 30.1058 3.1332 30.1058C10.342 30.1058 17.5581 30.1058 24.7668 30.1058C25.576 30.1058 25.8408 29.84 25.8408 29.0281C25.8408 25.9279 25.8408 22.8276 25.8408 19.7274C25.8408 19.5798 25.8408 19.4395 25.8408 19.2697V19.2624ZM33.9985 17.7713C27.1281 13.7853 20.2945 9.82143 13.4314 5.8428C11.9161 8.48538 10.4229 11.0763 8.90757 13.7189C9.12825 13.7189 9.27536 13.7189 9.42248 13.7189C14.5642 13.7189 19.706 13.7189 24.8478 13.7189C26.1645 13.7189 26.9442 14.5013 26.9442 15.83C26.9442 18.9671 26.9442 22.1042 26.9442 25.2414C26.9442 25.9352 27.2531 26.4396 27.871 26.7546C28.3124 26.9834 28.7464 26.8727 29.0185 26.4446C29.1804 26.1862 29.3275 25.9131 29.482 25.6474C30.9826 23.0417 32.4832 20.4286 34.0132 17.7713H33.9985ZM15.138 2.94187C21.9863 6.91312 28.8126 10.877 35.6388 14.8335C36.0802 14.2577 35.9478 13.7853 35.2857 13.4015C30.5044 10.6334 25.7305 7.85795 20.9491 5.08989C19.4633 4.22625 17.9847 3.36262 16.4988 2.50636C15.8883 2.15205 15.4175 2.2923 15.138 2.94187ZM25.7967 15.8521C25.8849 15.173 25.5539 14.8261 24.833 14.8261C17.5949 14.8261 10.3567 14.8261 3.11849 14.8261C3.04493 14.8261 2.97138 14.8261 2.89782 14.8261C2.34613 14.863 2.03718 15.2616 2.12545 15.8521H25.7967Z" stroke="#1A61F1" stroke-width="0.5" stroke-miterlimit="10"/>
<path d="M5.67834 26.1441C6.10498 26.1441 6.53162 26.1366 6.96562 26.1441C7.33341 26.1517 7.57616 26.3849 7.57616 26.701C7.57616 27.0245 7.33341 27.2578 6.96562 27.2578C6.09762 27.2653 5.22963 27.2653 4.36164 27.2578C3.97178 27.2578 3.72167 27.0095 3.72903 26.6784C3.74374 26.3624 3.98649 26.1441 4.36164 26.1366C4.80299 26.1291 5.24434 26.1366 5.68569 26.1366L5.67834 26.1441Z" stroke="#1A61F1" stroke-width="0.5" stroke-miterlimit="10"/>
<path d="M10.2243 27.2653C9.79763 27.2653 9.37099 27.2653 8.93699 27.2653C8.54713 27.2653 8.30439 27.0245 8.31174 26.6859C8.3191 26.3624 8.55449 26.1517 8.93699 26.1441C9.80499 26.1441 10.673 26.1441 11.541 26.1441C11.9088 26.1441 12.1442 26.3774 12.1442 26.7085C12.1442 27.0321 11.9088 27.2578 11.5336 27.2653C11.0923 27.2728 10.6509 27.2653 10.2096 27.2653H10.2243Z" stroke="#1A61F1" stroke-width="0.5" stroke-miterlimit="10"/>
<path d="M14.829 26.1366C15.2557 26.1366 15.6823 26.1366 16.1163 26.1366C16.4915 26.1441 16.7195 26.3624 16.7269 26.6934C16.7269 27.017 16.4988 27.2578 16.131 27.2578C15.2483 27.2653 14.373 27.2653 13.4903 27.2578C13.1225 27.2578 12.8871 27.0095 12.8945 26.6859C12.9018 26.3624 13.1446 26.1441 13.5123 26.1366C13.9537 26.1366 14.3951 26.1366 14.8364 26.1366H14.829Z" stroke="#1A61F1" stroke-width="0.5" stroke-miterlimit="10"/>
</svg>
