<svg width="37" height="37" viewBox="0 0 37 37" fill="none" xmlns="http://www.w3.org/2000/svg">
<path d="M5.1453 14.5399C5.1453 14.3599 5.1453 14.2193 5.1453 14.0843C5.1453 10.5461 5.1453 7.00801 5.1453 3.46988C5.1453 2.37863 5.83717 1.69238 6.93405 1.69238C11.3328 1.69238 15.7315 1.69238 20.1303 1.69238C21.2047 1.69238 21.9022 2.38988 21.9022 3.45301C21.9022 4.06613 21.9022 4.67926 21.9022 5.32613C22.459 5.06738 22.9934 4.96051 23.5559 5.10676C24.5684 5.36551 25.249 6.22613 25.249 7.26676C25.249 10.1974 25.249 13.1336 25.249 16.0643V16.4861C26.4697 15.9518 27.4765 16.2105 28.2922 17.2849C28.8153 16.8855 29.4115 16.6886 30.0697 16.8011C30.7334 16.9136 31.2509 17.2624 31.6222 17.853C32.2522 17.3805 32.9272 17.2174 33.6753 17.4143C34.6203 17.6674 35.3065 18.5449 35.2953 19.5236C35.284 20.5586 35.3797 21.6161 35.1828 22.6174C34.969 23.7199 34.4797 24.7718 34.1028 25.8461C33.6134 27.2355 33.1072 28.6193 32.6234 30.0086C32.5559 30.1999 32.5165 30.4136 32.5165 30.6161C32.5053 31.9211 32.5165 33.2205 32.5165 34.5255C32.5165 35.0318 32.3309 35.2118 31.819 35.2118C28.1853 35.2118 24.5572 35.2118 20.9234 35.2118C20.4003 35.2118 20.2259 35.0318 20.2259 34.4918C20.2259 33.198 20.2934 31.9043 20.1978 30.6161C20.1472 29.9299 19.8153 29.2661 19.6072 28.5968C19.5959 28.5574 19.5284 28.5293 19.4834 28.5068C19.4553 28.4955 19.4159 28.5068 19.3822 28.5068C18.7128 28.3999 18.2403 28.5911 17.8803 29.2268C17.4697 29.9524 16.9297 30.6049 16.4628 31.2968C16.3784 31.4205 16.3278 31.5893 16.3222 31.7411C16.3109 32.6749 16.3222 33.603 16.3165 34.5368C16.3165 35.0261 16.1309 35.2118 15.6415 35.2118C11.6253 35.2118 7.60905 35.2118 3.5928 35.2118C3.08655 35.2118 2.88967 35.0261 2.90655 34.5199C3.0078 31.8818 2.67592 29.2718 2.45092 26.6561C2.19217 23.6018 1.70842 20.5586 1.77592 17.4818C1.8153 15.7268 2.95717 14.5455 4.70655 14.5455C4.83592 14.5455 4.95967 14.5455 5.13405 14.5455L5.1453 14.5399ZM6.26467 25.1543C6.26467 25.6436 6.26467 26.0936 6.26467 26.5436C6.26467 27.2243 6.43342 27.393 7.10842 27.393C11.0065 27.393 14.9047 27.393 18.8028 27.393C18.9153 27.393 19.0334 27.393 19.1797 27.393C19.1347 27.258 19.1009 27.1511 19.0615 27.0443C18.6284 25.818 18.1615 24.6086 17.7678 23.3711C17.5822 22.7918 17.4697 22.173 17.4528 21.5711C17.4078 19.968 17.4359 18.3593 17.4415 16.7561C17.4415 15.738 18.1278 14.8718 19.1122 14.613C19.6915 14.4611 20.2372 14.5736 20.794 14.8268V14.4836C20.794 10.8499 20.794 7.22176 20.794 3.58801C20.794 2.99176 20.6028 2.80613 19.9897 2.80613C15.6809 2.80613 11.3778 2.80613 7.06905 2.80613C6.43905 2.80613 6.25905 2.98613 6.25905 3.61613C6.25905 7.13176 6.25905 10.6474 6.25905 14.1574C6.25905 14.2811 6.25905 14.3993 6.25905 14.5399C7.0578 14.5399 7.8003 14.5399 8.5428 14.5399C9.92092 14.5455 11.1303 15.6311 11.2765 16.9924C11.434 18.4155 10.5172 19.7936 9.13905 20.0355C8.34592 20.1705 7.51905 20.103 6.70342 20.1255C6.55717 20.1255 6.41092 20.1255 6.2703 20.1255V24.0461H16.2828V25.1543H6.26467ZM24.1465 21.2336C24.1465 21.0649 24.1465 20.9243 24.1465 20.7893C24.1465 16.3905 24.1465 11.9918 24.1465 7.59301C24.1465 7.46363 24.1522 7.33426 24.1409 7.21051C24.0847 6.65363 23.674 6.23738 23.134 6.16988C22.6897 6.11363 22.1609 6.42863 22.0034 6.88426C21.9359 7.08676 21.9134 7.31738 21.9134 7.53676C21.9134 11.9693 21.9134 16.4074 21.9134 20.8399V21.2336H20.794C20.794 21.1268 20.794 21.0311 20.794 20.9411C20.794 19.6024 20.8165 18.2636 20.7772 16.9249C20.7715 16.6155 20.6365 16.2555 20.4453 16.0136C20.1584 15.648 19.714 15.5636 19.2697 15.7493C18.7915 15.9461 18.5553 16.3343 18.5553 16.8461C18.5553 18.4268 18.5384 20.013 18.5609 21.5936C18.5665 22.0155 18.634 22.4543 18.7747 22.8536C19.5284 25.0249 20.3103 27.1849 21.0753 29.3505C21.154 29.5755 21.2609 29.643 21.4972 29.643C24.7428 29.6318 27.9884 29.6318 31.2397 29.643C31.4984 29.643 31.5997 29.553 31.6784 29.3224C32.224 27.7586 32.7922 26.2005 33.3434 24.6368C33.6134 23.8718 33.9734 23.118 34.0972 22.3305C34.2378 21.408 34.1759 20.4518 34.1759 19.5124C34.1759 19.3493 34.0972 19.1693 34.0184 19.023C33.7822 18.6011 33.2703 18.393 32.8259 18.5111C32.2915 18.6518 31.9653 19.0568 31.9597 19.6305C31.9484 20.3505 31.9597 21.0649 31.9597 21.7961H30.8403C30.8403 21.6499 30.8403 21.5205 30.8403 21.3968C30.8403 20.6149 30.8515 19.8386 30.8403 19.0568C30.829 18.4043 30.3228 17.898 29.7209 17.9093C29.1022 17.9205 28.6297 18.4099 28.6128 19.068C28.6072 19.3605 28.6128 19.6474 28.6128 19.9399C28.6128 20.3786 28.6128 20.8118 28.6128 21.2393H27.4934C27.4934 20.3224 27.499 19.428 27.4934 18.5393C27.4878 17.8586 26.9928 17.3524 26.374 17.3524C25.7497 17.3524 25.2715 17.8699 25.2603 18.5449C25.2547 19.338 25.2603 20.1255 25.2603 20.9186C25.2603 21.0311 25.2603 21.138 25.2603 21.2505H24.1409L24.1465 21.2336ZM17.0253 28.5068H16.5753C13.3297 28.5068 10.0784 28.5068 6.8328 28.5068C5.89342 28.5068 5.1453 27.7868 5.1453 26.8699C5.13967 24.4624 5.1453 22.0493 5.1453 19.6418C5.1453 19.203 5.34217 19.0118 5.78655 19.0061C6.63592 19.0061 7.4853 19.0061 8.33467 19.0061C9.3978 19.0061 10.174 18.2805 10.1684 17.3186C10.1628 16.3624 9.38655 15.6536 8.34592 15.6536C7.1478 15.6536 5.94967 15.6536 4.75155 15.6536C3.60405 15.6536 2.93467 16.3568 2.90092 17.5043C2.8278 19.7205 3.1653 21.9143 3.35092 24.1136C3.53092 26.223 3.75592 28.3268 3.94717 30.4305C3.96967 30.6668 4.02592 30.7455 4.27342 30.7455C7.92967 30.7399 11.5803 30.7455 15.2365 30.7343C15.3434 30.7343 15.4953 30.678 15.5515 30.5936C16.0353 29.9243 16.5022 29.2493 17.0253 28.5011V28.5068ZM4.05967 31.8649V34.0699H15.1803V31.8649H4.05967ZM21.3734 30.7568V34.0643H23.0047V30.7568H21.3734ZM25.8059 30.7624H24.169V34.0699H25.8059V30.7624ZM26.9647 30.7568V34.0643H28.5959V30.7568H26.9647ZM29.7434 34.0699H31.3915V30.7624H29.7434V34.0699Z" fill="#A9A9A9" stroke="#A9A9A9" stroke-width="0.5" stroke-miterlimit="10"/>
<path d="M32.9163 9.33723C32.6632 9.06723 32.4213 8.80848 32.1626 8.52723C32.5507 8.15035 32.9557 7.7566 33.4282 7.28973H26.9707V6.17035H33.3776C32.9163 5.7316 32.5001 5.34348 32.0782 4.93848C32.4157 4.61223 32.6745 4.36473 32.9501 4.09473C33.6982 4.84285 34.4576 5.59098 35.2001 6.35598C35.4082 6.57535 35.397 6.86785 35.1832 7.0816C34.4407 7.83535 33.687 8.57223 32.922 9.3316L32.9163 9.33723Z" fill="#A9A9A9" stroke="#A9A9A9" stroke-width="0.5" stroke-miterlimit="10"/>
<path d="M28.2654 11.7389C28.766 12.2002 29.1823 12.5827 29.6154 12.982C29.2892 13.2745 29.0248 13.5164 28.7492 13.7583C28.0179 13.0383 27.236 12.2958 26.4992 11.5083C26.3867 11.3845 26.4035 10.9627 26.5273 10.8277C27.2473 10.0514 28.0123 9.32578 28.7829 8.56641C29.0304 8.83078 29.2723 9.08953 29.5254 9.36516C29.1373 9.72516 28.7267 10.1133 28.316 10.5014C28.3385 10.5352 28.3554 10.5745 28.3779 10.6083H34.7398V11.7333H28.2654V11.7389Z" fill="#A9A9A9" stroke="#A9A9A9" stroke-width="0.5" stroke-miterlimit="10"/>
<path d="M19.1185 9.51707C19.1185 12.6277 16.621 15.0971 13.4992 15.0971C10.4054 15.0971 7.94165 12.5883 7.94728 9.44957C7.9529 6.36707 10.4673 3.91457 13.6229 3.92582C16.6435 3.93144 19.1298 6.45707 19.1241 9.5227L19.1185 9.51707ZM17.9991 9.49457C17.9766 7.03644 15.946 5.02269 13.516 5.03957C11.041 5.06207 9.0329 7.09832 9.06103 9.55645C9.08915 11.9977 11.1423 14.0058 13.5779 13.9777C16.0023 13.9496 18.016 11.9021 17.9991 9.49457Z" fill="#A9A9A9" stroke="#A9A9A9" stroke-width="0.5" stroke-miterlimit="10"/>
<path d="M12.9542 6.17578H14.0961C13.9836 6.62578 14.1917 6.86766 14.5517 7.09266C14.9848 7.36266 15.1817 7.81828 15.1986 8.39203C14.8554 8.39203 14.5236 8.40328 14.1973 8.38078C14.1354 8.38078 14.0904 8.22328 14.0173 8.17266C13.8261 8.05453 13.5898 7.83516 13.4323 7.88016C13.2467 7.93078 12.9992 8.21766 13.0048 8.39766C13.0048 8.57766 13.2579 8.79703 13.4492 8.92641C13.5898 9.01641 13.8148 8.97141 13.9892 9.02203C14.6417 9.20766 15.0467 9.65766 15.1761 10.3045C15.3054 10.9458 15.1142 11.5308 14.5798 11.9133C14.2367 12.1552 13.9554 12.3633 14.1017 12.847H12.9654C13.1286 12.3239 12.7629 12.1158 12.4142 11.8627C12.0317 11.5814 11.8629 11.137 11.8686 10.6533H12.9486C12.9598 10.6814 12.9823 10.7208 12.9992 10.7658C13.1117 11.0639 13.3198 11.2383 13.6404 11.1652C13.9329 11.1033 14.1129 10.8839 14.0792 10.5802C14.0398 10.2483 13.8092 10.0964 13.4717 10.0683C12.5098 10.0008 11.8236 9.25266 11.8629 8.31891C11.8854 7.81828 12.0823 7.36828 12.4986 7.09828C12.8529 6.87328 13.0836 6.64266 12.9542 6.18141V6.17578Z" fill="#A9A9A9" stroke="#A9A9A9" stroke-width="0.5" stroke-miterlimit="10"/>
</svg>
