<svg width="43" height="42" viewBox="0 0 43 42" fill="none" xmlns="http://www.w3.org/2000/svg">
<path d="M5.92081 16.3804C5.92081 16.1704 5.92081 16.0063 5.92081 15.8488C5.92081 11.721 5.92081 7.59316 5.92081 3.46535C5.92081 2.19223 6.728 1.3916 8.00769 1.3916C13.1396 1.3916 18.2714 1.3916 23.4033 1.3916C24.6567 1.3916 25.4705 2.20535 25.4705 3.44566C25.4705 4.16098 25.4705 4.87629 25.4705 5.63098C26.1202 5.3291 26.7436 5.20441 27.3999 5.37504C28.5811 5.67691 29.3752 6.68098 29.3752 7.89504C29.3752 11.3141 29.3752 14.7397 29.3752 18.1588V18.651C30.7992 18.0275 31.9739 18.3294 32.9255 19.5829C33.5358 19.1169 34.2314 18.8872 34.9992 19.0185C35.7736 19.1497 36.3774 19.5566 36.8105 20.2457C37.5455 19.6944 38.333 19.5041 39.2058 19.7338C40.3083 20.0291 41.1089 21.0529 41.0958 22.1947C41.0827 23.4022 41.1942 24.636 40.9646 25.8041C40.7152 27.0903 40.1442 28.3175 39.7046 29.571C39.1336 31.1919 38.543 32.8063 37.9786 34.4272C37.8999 34.6503 37.8539 34.8997 37.8539 35.136C37.8408 36.6585 37.8539 38.1744 37.8539 39.6969C37.8539 40.2875 37.6374 40.4975 37.0402 40.4975C32.8008 40.4975 28.568 40.4975 24.3286 40.4975C23.7183 40.4975 23.5149 40.2875 23.5149 39.6575C23.5149 38.1482 23.5936 36.6388 23.4821 35.136C23.423 34.3354 23.0358 33.561 22.793 32.78C22.7799 32.7341 22.7011 32.7013 22.6486 32.675C22.6158 32.6619 22.5699 32.675 22.5305 32.675C21.7496 32.5504 21.1983 32.7735 20.7783 33.515C20.2992 34.3616 19.6692 35.1228 19.1246 35.93C19.0261 36.0744 18.9671 36.2713 18.9605 36.4485C18.9474 37.5378 18.9605 38.6207 18.9539 39.71C18.9539 40.281 18.7374 40.4975 18.1664 40.4975C13.4808 40.4975 8.79519 40.4975 4.10956 40.4975C3.51894 40.4975 3.28925 40.281 3.30894 39.6903C3.42706 36.6125 3.03988 33.5675 2.77738 30.516C2.4755 26.9525 1.91113 23.4022 1.98988 19.8125C2.03581 17.765 3.368 16.3869 5.40894 16.3869C5.55988 16.3869 5.70425 16.3869 5.90769 16.3869L5.92081 16.3804ZM7.22675 28.7638C7.22675 29.3347 7.22675 29.8597 7.22675 30.3847C7.22675 31.1788 7.42363 31.3757 8.21113 31.3757C12.7589 31.3757 17.3068 31.3757 21.8546 31.3757C21.9858 31.3757 22.1236 31.3757 22.2942 31.3757C22.2417 31.2182 22.2024 31.0935 22.1564 30.9688C21.6511 29.5382 21.1064 28.1272 20.6471 26.6835C20.4305 26.0075 20.2992 25.2857 20.2796 24.5835C20.2271 22.7132 20.2599 20.8363 20.2664 18.966C20.2664 17.7782 21.0671 16.7675 22.2155 16.4657C22.8914 16.2885 23.528 16.4197 24.1777 16.715V16.3147C24.1777 12.0754 24.1777 7.84254 24.1777 3.60316C24.1777 2.90754 23.9546 2.69098 23.2393 2.69098C18.2124 2.69098 13.1921 2.69098 8.16519 2.69098C7.43019 2.69098 7.22019 2.90098 7.22019 3.63598C7.22019 7.73754 7.22019 11.8391 7.22019 15.9341C7.22019 16.0785 7.22019 16.2163 7.22019 16.3804C8.15206 16.3804 9.01831 16.3804 9.88456 16.3804C11.4924 16.3869 12.9033 17.6535 13.0739 19.2416C13.2577 20.9019 12.188 22.5097 10.5802 22.7919C9.65488 22.9494 8.69019 22.8707 7.73863 22.8969C7.568 22.8969 7.39738 22.8969 7.23331 22.8969V27.471H18.9146V28.7638H7.22675ZM28.0889 24.1897C28.0889 23.9929 28.0889 23.8288 28.0889 23.6713C28.0889 18.5394 28.0889 13.4075 28.0889 8.27566C28.0889 8.12473 28.0955 7.97379 28.0824 7.82941C28.0167 7.17973 27.5377 6.6941 26.9077 6.61535C26.3892 6.54973 25.7724 6.91723 25.5886 7.44879C25.5099 7.68504 25.4836 7.9541 25.4836 8.21004C25.4836 13.3813 25.4836 18.5591 25.4836 23.7304V24.1897H24.1777C24.1777 24.065 24.1777 23.9535 24.1777 23.8485C24.1777 22.2866 24.2039 20.7247 24.158 19.1629C24.1514 18.8019 23.9939 18.3819 23.7708 18.0997C23.4361 17.6732 22.9177 17.5747 22.3993 17.7913C21.8414 18.021 21.5658 18.4738 21.5658 19.071C21.5658 20.915 21.5461 22.7657 21.5724 24.6097C21.5789 25.1019 21.6577 25.6138 21.8218 26.0797C22.7011 28.6129 23.6133 31.1329 24.5058 33.6594C24.5977 33.9219 24.7224 34.0007 24.998 34.0007C28.7846 33.9875 32.5711 33.9875 36.3643 34.0007C36.6661 34.0007 36.7842 33.8957 36.8761 33.6266C37.5127 31.8022 38.1755 29.9844 38.8186 28.16C39.1336 27.2675 39.5536 26.3882 39.698 25.4694C39.8621 24.3932 39.7899 23.2775 39.7899 22.1816C39.7899 21.9913 39.698 21.7813 39.6061 21.6107C39.3305 21.1185 38.7333 20.8757 38.2149 21.0135C37.5914 21.1775 37.2108 21.65 37.2043 22.3194C37.1911 23.1594 37.2043 23.9929 37.2043 24.846H35.8983C35.8983 24.6754 35.8983 24.5244 35.8983 24.38C35.8983 23.4679 35.9114 22.5622 35.8983 21.65C35.8852 20.8888 35.2946 20.2982 34.5924 20.3113C33.8705 20.3244 33.3192 20.8953 33.2996 21.6632C33.293 22.0044 33.2996 22.3391 33.2996 22.6804C33.2996 23.1922 33.2996 23.6975 33.2996 24.1963H31.9936C31.9936 23.1266 32.0002 22.0832 31.9936 21.0463C31.9871 20.2522 31.4096 19.6616 30.6877 19.6616C29.9592 19.6616 29.4014 20.2654 29.3883 21.0529C29.3818 21.9782 29.3883 22.8969 29.3883 23.8222C29.3883 23.9535 29.3883 24.0782 29.3883 24.2094H28.0824L28.0889 24.1897ZM19.7808 32.675H19.2558C15.4693 32.675 11.6761 32.675 7.88956 32.675C6.79363 32.675 5.92081 31.835 5.92081 30.7654C5.91425 27.9566 5.92081 25.1413 5.92081 22.3325C5.92081 21.8207 6.1505 21.5975 6.66894 21.591C7.65988 21.591 8.65081 21.591 9.64175 21.591C10.8821 21.591 11.7877 20.7444 11.7811 19.6222C11.7746 18.5066 10.8689 17.6797 9.65488 17.6797C8.25706 17.6797 6.85925 17.6797 5.46144 17.6797C4.12269 17.6797 3.34175 18.5 3.30238 19.8388C3.21706 22.4244 3.61081 24.9838 3.82738 27.5497C4.03738 30.0107 4.29988 32.465 4.523 34.9194C4.54925 35.195 4.61488 35.2869 4.90363 35.2869C9.16925 35.2803 13.4283 35.2869 17.6939 35.2738C17.8186 35.2738 17.9958 35.2082 18.0614 35.1097C18.6258 34.3288 19.1705 33.5413 19.7808 32.6685V32.675ZM4.65425 36.5928V39.1653H17.6283V36.5928H4.65425ZM24.8536 35.3V39.1588H26.7567V35.3H24.8536ZM30.0249 35.3066H28.1152V39.1653H30.0249V35.3066ZM31.3767 35.3V39.1588H33.2799V35.3H31.3767ZM34.6186 39.1653H36.5414V35.3066H34.6186V39.1653Z" fill="#12B1BB" stroke="#12B1BB" stroke-width="0.5" stroke-miterlimit="10"/>
<path d="M38.3194 10.3096C38.0241 9.99461 37.7419 9.69273 37.44 9.36461C37.8928 8.92492 38.3653 8.46555 38.9166 7.92086H31.3828V6.61492H38.8575C38.3194 6.10305 37.8337 5.65023 37.3416 5.17773C37.7353 4.79711 38.0372 4.50836 38.3587 4.19336C39.2316 5.06617 40.1175 5.93898 40.9837 6.83148C41.2266 7.08742 41.2134 7.42867 40.9641 7.67805C40.0978 8.55742 39.2184 9.41711 38.3259 10.303L38.3194 10.3096Z" fill="#12B1BB" stroke="#12B1BB" stroke-width="0.5" stroke-miterlimit="10"/>
<path d="M32.8927 13.1114C33.4767 13.6495 33.9623 14.0958 34.4677 14.5617C34.087 14.903 33.7786 15.1852 33.457 15.4673C32.6039 14.6273 31.6917 13.7611 30.832 12.8423C30.7008 12.698 30.7205 12.2058 30.8648 12.0483C31.7048 11.1427 32.5973 10.2961 33.4964 9.41016C33.7852 9.71859 34.0673 10.0205 34.3627 10.342C33.9098 10.762 33.4308 11.2148 32.9517 11.6677C32.978 11.707 32.9977 11.753 33.0239 11.7923H40.4461V13.1048H32.8927V13.1114Z" fill="#12B1BB" stroke="#12B1BB" stroke-width="0.5" stroke-miterlimit="10"/>
<path d="M22.2216 10.5193C22.2216 14.1483 19.3079 17.0293 15.6657 17.0293C12.0563 17.0293 9.18193 14.1024 9.18849 10.4405C9.19505 6.84426 12.1285 3.98301 15.8101 3.99614C19.3341 4.0027 22.2347 6.94926 22.2282 10.5258L22.2216 10.5193ZM20.9157 10.493C20.8894 7.6252 18.5204 5.27583 15.6854 5.29551C12.7979 5.32176 10.4551 7.69739 10.4879 10.5652C10.5207 13.4133 12.916 15.7561 15.7576 15.7233C18.586 15.6905 20.9354 13.3018 20.9157 10.493Z" fill="#12B1BB" stroke="#12B1BB" stroke-width="0.5" stroke-miterlimit="10"/>
<path d="M15.0289 6.62109H16.3611C16.2298 7.14609 16.4727 7.42828 16.8927 7.69078C17.398 8.00578 17.6277 8.53734 17.6473 9.20672C17.247 9.20672 16.8598 9.21984 16.4792 9.19359C16.407 9.19359 16.3545 9.00984 16.2692 8.95078C16.0461 8.81297 15.7705 8.55703 15.5867 8.60953C15.3702 8.66859 15.0814 9.00328 15.088 9.21328C15.088 9.42328 15.3833 9.67922 15.6064 9.83016C15.7705 9.93516 16.033 9.88266 16.2364 9.94172C16.9977 10.1583 17.4702 10.6833 17.6211 11.438C17.772 12.1861 17.5489 12.8686 16.9255 13.3148C16.5252 13.597 16.197 13.8398 16.3677 14.4042H15.042C15.2323 13.7939 14.8058 13.5511 14.3989 13.2558C13.9527 12.9277 13.7558 12.4092 13.7623 11.8448H15.0223C15.0355 11.8777 15.0617 11.9236 15.0814 11.9761C15.2127 12.3239 15.4555 12.5273 15.8295 12.442C16.1708 12.3698 16.3808 12.1139 16.3414 11.7595C16.2955 11.3723 16.0264 11.1952 15.6327 11.1623C14.5105 11.0836 13.7098 10.2108 13.7558 9.12141C13.782 8.53734 14.0117 8.01234 14.4973 7.69734C14.9108 7.43484 15.1798 7.16578 15.0289 6.62766V6.62109Z" fill="#12B1BB" stroke="#12B1BB" stroke-width="0.5" stroke-miterlimit="10"/>
</svg>
