<svg width="36" height="37" viewBox="0 0 36 37" fill="none" xmlns="http://www.w3.org/2000/svg">
<path d="M4.6453 14.5399C4.6453 14.3599 4.6453 14.2193 4.6453 14.0843C4.6453 10.5461 4.6453 7.00801 4.6453 3.46988C4.6453 2.37863 5.33717 1.69238 6.43405 1.69238C10.8328 1.69238 15.2315 1.69238 19.6303 1.69238C20.7047 1.69238 21.4022 2.38988 21.4022 3.45301C21.4022 4.06613 21.4022 4.67926 21.4022 5.32613C21.959 5.06738 22.4934 4.96051 23.0559 5.10676C24.0684 5.36551 24.749 6.22613 24.749 7.26676C24.749 10.1974 24.749 13.1336 24.749 16.0643V16.4861C25.9697 15.9518 26.9765 16.2105 27.7922 17.2849C28.3153 16.8855 28.9115 16.6886 29.5697 16.8011C30.2334 16.9136 30.7509 17.2624 31.1222 17.853C31.7522 17.3805 32.4272 17.2174 33.1753 17.4143C34.1203 17.6674 34.8065 18.5449 34.7953 19.5236C34.784 20.5586 34.8797 21.6161 34.6828 22.6174C34.469 23.7199 33.9797 24.7718 33.6028 25.8461C33.1134 27.2355 32.6072 28.6193 32.1234 30.0086C32.0559 30.1999 32.0165 30.4136 32.0165 30.6161C32.0053 31.9211 32.0165 33.2205 32.0165 34.5255C32.0165 35.0318 31.8309 35.2118 31.319 35.2118C27.6853 35.2118 24.0572 35.2118 20.4234 35.2118C19.9003 35.2118 19.7259 35.0318 19.7259 34.4918C19.7259 33.198 19.7934 31.9043 19.6978 30.6161C19.6472 29.9299 19.3153 29.2661 19.1072 28.5968C19.0959 28.5574 19.0284 28.5293 18.9834 28.5068C18.9553 28.4955 18.9159 28.5068 18.8822 28.5068C18.2128 28.3999 17.7403 28.5911 17.3803 29.2268C16.9697 29.9524 16.4297 30.6049 15.9628 31.2968C15.8784 31.4205 15.8278 31.5893 15.8222 31.7411C15.8109 32.6749 15.8222 33.603 15.8165 34.5368C15.8165 35.0261 15.6309 35.2118 15.1415 35.2118C11.1253 35.2118 7.10905 35.2118 3.0928 35.2118C2.58655 35.2118 2.38967 35.0261 2.40655 34.5199C2.5078 31.8818 2.17592 29.2718 1.95092 26.6561C1.69217 23.6018 1.20842 20.5586 1.27592 17.4818C1.3153 15.7268 2.45717 14.5455 4.20655 14.5455C4.33592 14.5455 4.45967 14.5455 4.63405 14.5455L4.6453 14.5399ZM5.76467 25.1543C5.76467 25.6436 5.76467 26.0936 5.76467 26.5436C5.76467 27.2243 5.93342 27.393 6.60842 27.393C10.5065 27.393 14.4047 27.393 18.3028 27.393C18.4153 27.393 18.5334 27.393 18.6797 27.393C18.6347 27.258 18.6009 27.1511 18.5615 27.0443C18.1284 25.818 17.6615 24.6086 17.2678 23.3711C17.0822 22.7918 16.9697 22.173 16.9528 21.5711C16.9078 19.968 16.9359 18.3593 16.9415 16.7561C16.9415 15.738 17.6278 14.8718 18.6122 14.613C19.1915 14.4611 19.7372 14.5736 20.294 14.8268V14.4836C20.294 10.8499 20.294 7.22176 20.294 3.58801C20.294 2.99176 20.1028 2.80613 19.4897 2.80613C15.1809 2.80613 10.8778 2.80613 6.56905 2.80613C5.93905 2.80613 5.75905 2.98613 5.75905 3.61613C5.75905 7.13176 5.75905 10.6474 5.75905 14.1574C5.75905 14.2811 5.75905 14.3993 5.75905 14.5399C6.5578 14.5399 7.3003 14.5399 8.0428 14.5399C9.42092 14.5455 10.6303 15.6311 10.7765 16.9924C10.934 18.4155 10.0172 19.7936 8.63905 20.0355C7.84592 20.1705 7.01905 20.103 6.20342 20.1255C6.05717 20.1255 5.91092 20.1255 5.7703 20.1255V24.0461H15.7828V25.1543H5.76467ZM23.6465 21.2336C23.6465 21.0649 23.6465 20.9243 23.6465 20.7893C23.6465 16.3905 23.6465 11.9918 23.6465 7.59301C23.6465 7.46363 23.6522 7.33426 23.6409 7.21051C23.5847 6.65363 23.174 6.23738 22.634 6.16988C22.1897 6.11363 21.6609 6.42863 21.5034 6.88426C21.4359 7.08676 21.4134 7.31738 21.4134 7.53676C21.4134 11.9693 21.4134 16.4074 21.4134 20.8399V21.2336H20.294C20.294 21.1268 20.294 21.0311 20.294 20.9411C20.294 19.6024 20.3165 18.2636 20.2772 16.9249C20.2715 16.6155 20.1365 16.2555 19.9453 16.0136C19.6584 15.648 19.214 15.5636 18.7697 15.7493C18.2915 15.9461 18.0553 16.3343 18.0553 16.8461C18.0553 18.4268 18.0384 20.013 18.0609 21.5936C18.0665 22.0155 18.134 22.4543 18.2747 22.8536C19.0284 25.0249 19.8103 27.1849 20.5753 29.3505C20.654 29.5755 20.7609 29.643 20.9972 29.643C24.2428 29.6318 27.4884 29.6318 30.7397 29.643C30.9984 29.643 31.0997 29.553 31.1784 29.3224C31.724 27.7586 32.2922 26.2005 32.8434 24.6368C33.1134 23.8718 33.4734 23.118 33.5972 22.3305C33.7378 21.408 33.6759 20.4518 33.6759 19.5124C33.6759 19.3493 33.5972 19.1693 33.5184 19.023C33.2822 18.6011 32.7703 18.393 32.3259 18.5111C31.7915 18.6518 31.4653 19.0568 31.4597 19.6305C31.4484 20.3505 31.4597 21.0649 31.4597 21.7961H30.3403C30.3403 21.6499 30.3403 21.5205 30.3403 21.3968C30.3403 20.6149 30.3515 19.8386 30.3403 19.0568C30.329 18.4043 29.8228 17.898 29.2209 17.9093C28.6022 17.9205 28.1297 18.4099 28.1128 19.068C28.1072 19.3605 28.1128 19.6474 28.1128 19.9399C28.1128 20.3786 28.1128 20.8118 28.1128 21.2393H26.9934C26.9934 20.3224 26.999 19.428 26.9934 18.5393C26.9878 17.8586 26.4928 17.3524 25.874 17.3524C25.2497 17.3524 24.7715 17.8699 24.7603 18.5449C24.7547 19.338 24.7603 20.1255 24.7603 20.9186C24.7603 21.0311 24.7603 21.138 24.7603 21.2505H23.6409L23.6465 21.2336ZM16.5253 28.5068H16.0753C12.8297 28.5068 9.57842 28.5068 6.3328 28.5068C5.39342 28.5068 4.6453 27.7868 4.6453 26.8699C4.63967 24.4624 4.6453 22.0493 4.6453 19.6418C4.6453 19.203 4.84217 19.0118 5.28655 19.0061C6.13592 19.0061 6.9853 19.0061 7.83467 19.0061C8.8978 19.0061 9.67405 18.2805 9.66842 17.3186C9.6628 16.3624 8.88655 15.6536 7.84592 15.6536C6.6478 15.6536 5.44967 15.6536 4.25155 15.6536C3.10405 15.6536 2.43467 16.3568 2.40092 17.5043C2.3278 19.7205 2.6653 21.9143 2.85092 24.1136C3.03092 26.223 3.25592 28.3268 3.44717 30.4305C3.46967 30.6668 3.52592 30.7455 3.77342 30.7455C7.42967 30.7399 11.0803 30.7455 14.7365 30.7343C14.8434 30.7343 14.9953 30.678 15.0515 30.5936C15.5353 29.9243 16.0022 29.2493 16.5253 28.5011V28.5068ZM3.55967 31.8649V34.0699H14.6803V31.8649H3.55967ZM20.8734 30.7568V34.0643H22.5047V30.7568H20.8734ZM25.3059 30.7624H23.669V34.0699H25.3059V30.7624ZM26.4647 30.7568V34.0643H28.0959V30.7568H26.4647ZM29.2434 34.0699H30.8915V30.7624H29.2434V34.0699Z" fill="white" stroke="white" stroke-width="0.5" stroke-miterlimit="10"/>
<path d="M32.4163 9.33723C32.1632 9.06723 31.9213 8.80848 31.6626 8.52723C32.0507 8.15035 32.4557 7.7566 32.9282 7.28973H26.4707V6.17035H32.8776C32.4163 5.7316 32.0001 5.34348 31.5782 4.93848C31.9157 4.61223 32.1745 4.36473 32.4501 4.09473C33.1982 4.84285 33.9576 5.59098 34.7001 6.35598C34.9082 6.57535 34.897 6.86785 34.6832 7.0816C33.9407 7.83535 33.187 8.57223 32.422 9.3316L32.4163 9.33723Z" fill="white" stroke="white" stroke-width="0.5" stroke-miterlimit="10"/>
<path d="M27.7654 11.7389C28.266 12.2002 28.6823 12.5827 29.1154 12.982C28.7892 13.2745 28.5248 13.5164 28.2492 13.7583C27.5179 13.0383 26.736 12.2958 25.9992 11.5083C25.8867 11.3845 25.9035 10.9627 26.0273 10.8277C26.7473 10.0514 27.5123 9.32578 28.2829 8.56641C28.5304 8.83078 28.7723 9.08953 29.0254 9.36516C28.6373 9.72516 28.2267 10.1133 27.816 10.5014C27.8385 10.5352 27.8554 10.5745 27.8779 10.6083H34.2398V11.7333H27.7654V11.7389Z" fill="white" stroke="white" stroke-width="0.5" stroke-miterlimit="10"/>
<path d="M18.6185 9.51707C18.6185 12.6277 16.121 15.0971 12.9992 15.0971C9.9054 15.0971 7.44165 12.5883 7.44728 9.44957C7.4529 6.36707 9.96728 3.91457 13.1229 3.92582C16.1435 3.93144 18.6298 6.45707 18.6241 9.5227L18.6185 9.51707ZM17.4991 9.49457C17.4766 7.03644 15.446 5.02269 13.016 5.03957C10.541 5.06207 8.5329 7.09832 8.56103 9.55645C8.58915 11.9977 10.6423 14.0058 13.0779 13.9777C15.5023 13.9496 17.516 11.9021 17.4991 9.49457Z" fill="white" stroke="white" stroke-width="0.5" stroke-miterlimit="10"/>
<path d="M12.4542 6.17578H13.5961C13.4836 6.62578 13.6917 6.86766 14.0517 7.09266C14.4848 7.36266 14.6817 7.81828 14.6986 8.39203C14.3554 8.39203 14.0236 8.40328 13.6973 8.38078C13.6354 8.38078 13.5904 8.22328 13.5173 8.17266C13.3261 8.05453 13.0898 7.83516 12.9323 7.88016C12.7467 7.93078 12.4992 8.21766 12.5048 8.39766C12.5048 8.57766 12.7579 8.79703 12.9492 8.92641C13.0898 9.01641 13.3148 8.97141 13.4892 9.02203C14.1417 9.20766 14.5467 9.65766 14.6761 10.3045C14.8054 10.9458 14.6142 11.5308 14.0798 11.9133C13.7367 12.1552 13.4554 12.3633 13.6017 12.847H12.4654C12.6286 12.3239 12.2629 12.1158 11.9142 11.8627C11.5317 11.5814 11.3629 11.137 11.3686 10.6533H12.4486C12.4598 10.6814 12.4823 10.7208 12.4992 10.7658C12.6117 11.0639 12.8198 11.2383 13.1404 11.1652C13.4329 11.1033 13.6129 10.8839 13.5792 10.5802C13.5398 10.2483 13.3092 10.0964 12.9717 10.0683C12.0098 10.0008 11.3236 9.25266 11.3629 8.31891C11.3854 7.81828 11.5823 7.36828 11.9986 7.09828C12.3529 6.87328 12.5836 6.64266 12.4542 6.18141V6.17578Z" fill="white" stroke="white" stroke-width="0.5" stroke-miterlimit="10"/>
</svg>
