<svg width="17" height="22" viewBox="0 0 17 22" fill="none" xmlns="http://www.w3.org/2000/svg">
<path fill-rule="evenodd" clip-rule="evenodd" d="M15.3584 12.1209C16.0832 10.9173 16.5 9.50733 16.5 8.00001C16.5 3.85787 13.352 0.450984 9.31797 0.0413032C9.04903 0.0139911 8.77615 0 8.50001 0C4.08173 0 0.5 3.58173 0.5 8.00001C0.5 9.50742 0.916912 10.9174 1.64172 12.1211L6.76796 21C7.53776 22.3333 9.46226 22.3333 10.2321 21L15.3584 12.1209ZM8.50001 12.8889C11.2001 12.8889 13.3889 10.7001 13.3889 8C13.3889 5.29994 11.2001 3.1111 8.50001 3.1111C5.79995 3.1111 3.61112 5.29994 3.61112 8C3.61112 10.7001 5.79995 12.8889 8.50001 12.8889Z" fill="#12B1BB"/>
</svg>
