<svg id="usabilidad" xmlns="http://www.w3.org/2000/svg" width="57.794" height="50" viewBox="0 0 57.794 50">
  <path id="Trazado_9711" data-name="Trazado 9711" d="M32.813,299.985H37.68a.488.488,0,0,0,0-.977H32.813a.488.488,0,0,0,0,.977Z" transform="translate(-30.221 -269.514)" fill="#12B1BB"/>
  <path id="Trazado_9712" data-name="Trazado 9712" d="M32.813,340.392H37.68a.488.488,0,0,0,0-.977H32.813a.488.488,0,0,0,0,.977Z" transform="translate(-30.221 -305.936)" fill="#12B1BB"/>
  <path id="Trazado_9713" data-name="Trazado 9713" d="M32.813,380.8H37.68a.488.488,0,0,0,0-.977H32.813a.488.488,0,0,0,0,.977Z" transform="translate(-30.221 -342.356)" fill="#12B1BB"/>
  <path id="Trazado_9714" data-name="Trazado 9714" d="M34.129,30.305H32.813a.488.488,0,0,0,0,.977h1.315a.488.488,0,0,0,0-.977Z" transform="translate(-30.221 -28.332)" fill="#12B1BB"/>
  <path id="Trazado_9715" data-name="Trazado 9715" d="M56.948,29.23H49.473a.8.8,0,0,0-.847.732v1.811l-4.394-3.867A4.618,4.618,0,0,1,42.52,24.4V20.274a3.881,3.881,0,0,0-3.982-3.6,4.426,4.426,0,0,0-2.971,1,3.3,3.3,0,0,0-1.24,2.54v5.828h-2.76V6.657s0,0,0-.006,0,0,0-.006V2.686A2.921,2.921,0,0,0,28.464,0H3.1A2.921,2.921,0,0,0,0,2.686v8.887a.8.8,0,0,0,.847.732.8.8,0,0,0,.847-.732V7.384H29.875V26.043H27.919V10.005a.8.8,0,0,0-.847-.732H20.717a.8.8,0,0,0-.847.732.8.8,0,0,0,.847.732h4.07l-9,6.687-9-6.687h9.982a.8.8,0,0,0,.847-.732.8.8,0,0,0-.847-.732H4.5a.8.8,0,0,0-.847.732v16.77a.8.8,0,0,0,.847.732H17.8a3.184,3.184,0,0,0-.8,1.98,3.22,3.22,0,0,0,.89,2.307,3.738,3.738,0,0,0-3.057,3.316,3.276,3.276,0,0,0,1.159,2.57,4.242,4.242,0,0,0,1.886.956A3.218,3.218,0,0,0,17,40.932a3.738,3.738,0,0,0,3.057,3.316,3.22,3.22,0,0,0-.89,2.307,3.184,3.184,0,0,0,.8,1.98H3.1a1.328,1.328,0,0,1-1.411-1.221V14.99a.8.8,0,0,0-.847-.732A.8.8,0,0,0,0,14.99V47.314A2.921,2.921,0,0,0,3.1,50h27.2a.74.74,0,1,0,0-1.465H23.326a2.328,2.328,0,0,1-2.47-2.02,1.923,1.923,0,0,1,.68-1.509,2.58,2.58,0,0,1,1.723-.629.74.74,0,1,0,0-1.465h-2.1a2.328,2.328,0,0,1-2.47-2.02,1.923,1.923,0,0,1,.68-1.509,2.58,2.58,0,0,1,1.723-.629h2.6a.74.74,0,1,0,0-1.465H18.926A2.58,2.58,0,0,1,17.2,36.66a1.923,1.923,0,0,1-.68-1.509,2.328,2.328,0,0,1,2.47-2.02h4.7a.74.74,0,1,0,0-1.465h-2.6a2.58,2.58,0,0,1-1.723-.629,1.923,1.923,0,0,1-.68-1.509,2.328,2.328,0,0,1,2.47-2.02H35.174a.8.8,0,0,0,.847-.732v-6.56a1.938,1.938,0,0,1,.728-1.49,2.608,2.608,0,0,1,1.744-.588,2.287,2.287,0,0,1,2.335,2.137V24.4a6,6,0,0,0,2.225,4.557l5.574,4.688V45.079L43.34,47.519a11.286,11.286,0,0,1-4.7,1.017H34.266a.74.74,0,1,0,0,1.465h4.375a13.2,13.2,0,0,0,5.5-1.189l4.49-2.072v2.528a.8.8,0,0,0,.847.732h7.475a.8.8,0,0,0,.847-.732V29.962a.8.8,0,0,0-.847-.732ZM5.342,11.6l9.142,6.791L5.342,25.181ZM6.781,26.043l9-6.687,9,6.687Zm19.445-.862-9.142-6.791L26.226,11.6ZM29.875,5.919H1.693V2.686A1.328,1.328,0,0,1,3.1,1.465h25.36a1.328,1.328,0,0,1,1.411,1.221ZM56.1,48.535H50.32V30.694H56.1Z" fill="#12B1BB"/>
</svg>
