<svg width="21" height="21" viewBox="0 0 21 21" fill="none" xmlns="http://www.w3.org/2000/svg">
<path fill-rule="evenodd" clip-rule="evenodd" d="M10.5 0C6.70066 0 3.62069 3.07995 3.62069 6.87927C3.62069 9.22534 4.7951 11.2971 6.5881 12.5388C2.66374 13.6284 0 16.3703 0 19.9138V21H21V19.9138C21 16.3703 18.3363 13.6284 14.4119 12.5388C16.2049 11.2971 17.3793 9.22534 17.3793 6.87927C17.3793 3.07995 14.2993 0 10.5 0ZM5.7931 6.87927C5.7931 4.27974 7.90045 2.1724 10.5 2.1724C13.0995 2.1724 15.2069 4.27974 15.2069 6.87927C15.2069 9.4788 13.0995 11.5861 10.5 11.5861C7.90045 11.5861 5.7931 9.4788 5.7931 6.87927ZM10.5 14.1994C15.2036 14.1994 18.0442 16.3584 18.6874 18.8276H2.31258C2.95578 16.3584 5.79638 14.1994 10.5 14.1994Z" fill="#12B1BB"/>
</svg>
