<svg width="32" height="32" viewBox="0 0 32 32" fill="none" xmlns="http://www.w3.org/2000/svg">
<rect x="1" y="1" width="30" height="30" rx="7" stroke="#12B1BB" stroke-width="2"/>
<path fill-rule="evenodd" clip-rule="evenodd" d="M16 5.5C12.2007 5.5 9.12069 8.57995 9.12069 12.3793C9.12069 14.7253 10.2951 16.7971 12.0881 18.0388C8.16374 19.1284 5.5 21.8703 5.5 25.4138V26.5H26.5V25.4138C26.5 21.8703 23.8363 19.1284 19.9119 18.0388C21.7049 16.7971 22.8793 14.7253 22.8793 12.3793C22.8793 8.57995 19.7993 5.5 16 5.5ZM11.2931 12.3793C11.2931 9.77974 13.4005 7.6724 16 7.6724C18.5995 7.6724 20.7069 9.77974 20.7069 12.3793C20.7069 14.9788 18.5995 17.0861 16 17.0861C13.4005 17.0861 11.2931 14.9788 11.2931 12.3793ZM16 19.6994C20.7036 19.6994 23.5442 21.8584 24.1874 24.3276H7.81258C8.45578 21.8584 11.2964 19.6994 16 19.6994Z" fill="#12B1BB"/>
</svg>
