<svg width="31" height="31" viewBox="0 0 31 31" fill="none" xmlns="http://www.w3.org/2000/svg">
<path d="M15.395 0H15.325C6.86125 0 0 6.86124 0 15.325V15.395C0 23.8587 6.86125 30.72 15.325 30.72H15.395C23.8588 30.72 30.72 23.8587 30.72 15.395V15.325C30.72 6.86124 23.8588 0 15.395 0Z" fill="white"/>
<path d="M18.3536 19.8529C14.422 19.8529 11.2233 16.6531 11.2222 12.7215C11.2233 11.7249 12.0348 10.9145 13.0293 10.9145C13.1315 10.9145 13.2327 10.9231 13.3296 10.9403C13.5427 10.9758 13.745 11.0479 13.9312 11.1566C13.9581 11.1728 13.9764 11.1986 13.9807 11.2287L14.3961 13.8473C14.4015 13.8774 14.3918 13.9086 14.3714 13.9313C14.1421 14.1853 13.8494 14.3682 13.5233 14.4597L13.3662 14.5038L13.4254 14.6556C13.9613 16.0203 15.0527 17.1106 16.4185 17.6487L16.5702 17.709L16.6143 17.5518C16.7058 17.2257 16.8888 16.933 17.1428 16.7037C17.1611 16.6865 17.1858 16.6779 17.2106 16.6779C17.216 16.6779 17.2214 16.6779 17.2278 16.679L19.8464 17.0944C19.8776 17.0998 19.9034 17.117 19.9196 17.1439C20.0272 17.3301 20.0993 17.5335 20.1359 17.7466C20.1531 17.8413 20.1607 17.9414 20.1607 18.0458C20.1607 19.0414 19.3502 19.8518 18.3536 19.8529Z" fill="#0065FF"/>
<path d="M25.3257 14.4974C25.1137 12.1016 24.0159 9.87908 22.2347 8.23992C20.4427 6.59107 18.1179 5.6827 15.6867 5.6827C10.3505 5.6827 6.00883 10.0244 6.00883 15.3605C6.00883 17.1515 6.50283 18.8961 7.43811 20.4158L5.35229 25.033L12.0306 24.3216C13.1919 24.7973 14.421 25.0384 15.6856 25.0384C16.0181 25.0384 16.3593 25.0211 16.7016 24.9856C17.0029 24.9533 17.3075 24.906 17.6067 24.8457C22.0754 23.9427 25.3376 19.9767 25.3634 15.4122V15.3605C25.3634 15.0699 25.3505 14.7793 25.3247 14.4984L25.3257 14.4974ZM12.2878 22.2949L8.59296 22.6889L9.69613 20.2447L9.47549 19.9487C9.45935 19.9272 9.44321 19.9056 9.42491 19.8809C8.46703 18.5581 7.96117 16.9954 7.96117 15.3616C7.96117 11.1017 11.4268 7.63614 15.6867 7.63614C19.6775 7.63614 23.0602 10.7498 23.3863 14.7245C23.4035 14.9376 23.4132 15.1517 23.4132 15.3627C23.4132 15.423 23.4121 15.4822 23.411 15.5457C23.3293 19.1092 20.8398 22.1357 17.357 22.9063C17.0912 22.9655 16.8189 23.0107 16.5477 23.0397C16.2657 23.072 15.9762 23.0882 15.6888 23.0882C14.6653 23.0882 13.6708 22.8901 12.7312 22.4984C12.6268 22.4564 12.5246 22.4112 12.4288 22.3649L12.2889 22.2971L12.2878 22.2949Z" fill="#0065FF"/>
</svg>
